G04 #@! TF.GenerationSoftware,KiCad,Pcbnew,8.0.6*
G04 #@! TF.CreationDate,2025-07-17T13:08:24-05:00*
G04 #@! TF.ProjectId,DetectorAcc,44657465-6374-46f7-9241-63632e6b6963,rev?*
G04 #@! TF.SameCoordinates,Original*
G04 #@! TF.FileFunction,Legend,Bot*
G04 #@! TF.FilePolarity,Positive*
%FSLAX46Y46*%
G04 Gerber Fmt 4.6, Leading zero omitted, Abs format (unit mm)*
G04 Created by KiCad (PCBNEW 8.0.6) date 2025-07-17 13:08:24*
%MOMM*%
%LPD*%
G01*
G04 APERTURE LIST*
%ADD10C,0.100000*%
%ADD11C,0.150000*%
%ADD12C,0.152400*%
%ADD13C,0.000000*%
%ADD14C,0.850000*%
%ADD15O,0.850000X0.850000*%
%ADD16R,0.850000X0.850000*%
%ADD17R,0.863600X0.304800*%
%ADD18R,0.304800X0.863600*%
%ADD19R,2.438400X2.438400*%
%ADD20R,1.193800X0.762000*%
%ADD21R,2.489200X3.098800*%
G04 APERTURE END LIST*
D10*
X141493734Y-80933609D02*
X141541353Y-80909800D01*
X141541353Y-80909800D02*
X141565163Y-80885990D01*
X141565163Y-80885990D02*
X141588972Y-80838371D01*
X141588972Y-80838371D02*
X141588972Y-80695514D01*
X141588972Y-80695514D02*
X141565163Y-80647895D01*
X141565163Y-80647895D02*
X141541353Y-80624085D01*
X141541353Y-80624085D02*
X141493734Y-80600276D01*
X141493734Y-80600276D02*
X141422306Y-80600276D01*
X141422306Y-80600276D02*
X141374687Y-80624085D01*
X141374687Y-80624085D02*
X141350877Y-80647895D01*
X141350877Y-80647895D02*
X141327068Y-80695514D01*
X141327068Y-80695514D02*
X141327068Y-80838371D01*
X141327068Y-80838371D02*
X141350877Y-80885990D01*
X141350877Y-80885990D02*
X141374687Y-80909800D01*
X141374687Y-80909800D02*
X141422306Y-80933609D01*
X141422306Y-80933609D02*
X141493734Y-80933609D01*
X140898496Y-80600276D02*
X140898496Y-80933609D01*
X141112782Y-80600276D02*
X141112782Y-80862180D01*
X141112782Y-80862180D02*
X141088972Y-80909800D01*
X141088972Y-80909800D02*
X141041353Y-80933609D01*
X141041353Y-80933609D02*
X140969925Y-80933609D01*
X140969925Y-80933609D02*
X140922306Y-80909800D01*
X140922306Y-80909800D02*
X140898496Y-80885990D01*
X140731829Y-80600276D02*
X140541353Y-80600276D01*
X140660401Y-80433609D02*
X140660401Y-80862180D01*
X140660401Y-80862180D02*
X140636591Y-80909800D01*
X140636591Y-80909800D02*
X140588972Y-80933609D01*
X140588972Y-80933609D02*
X140541353Y-80933609D01*
X141350877Y-79600276D02*
X141350877Y-80005038D01*
X141350877Y-80005038D02*
X141374687Y-80052657D01*
X141374687Y-80052657D02*
X141398496Y-80076466D01*
X141398496Y-80076466D02*
X141446115Y-80100276D01*
X141446115Y-80100276D02*
X141517544Y-80100276D01*
X141517544Y-80100276D02*
X141565163Y-80076466D01*
X141350877Y-79909800D02*
X141398496Y-79933609D01*
X141398496Y-79933609D02*
X141493734Y-79933609D01*
X141493734Y-79933609D02*
X141541353Y-79909800D01*
X141541353Y-79909800D02*
X141565163Y-79885990D01*
X141565163Y-79885990D02*
X141588972Y-79838371D01*
X141588972Y-79838371D02*
X141588972Y-79695514D01*
X141588972Y-79695514D02*
X141565163Y-79647895D01*
X141565163Y-79647895D02*
X141541353Y-79624085D01*
X141541353Y-79624085D02*
X141493734Y-79600276D01*
X141493734Y-79600276D02*
X141398496Y-79600276D01*
X141398496Y-79600276D02*
X141350877Y-79624085D01*
X141112782Y-79600276D02*
X141112782Y-79933609D01*
X141112782Y-79647895D02*
X141088972Y-79624085D01*
X141088972Y-79624085D02*
X141041353Y-79600276D01*
X141041353Y-79600276D02*
X140969925Y-79600276D01*
X140969925Y-79600276D02*
X140922306Y-79624085D01*
X140922306Y-79624085D02*
X140898496Y-79671704D01*
X140898496Y-79671704D02*
X140898496Y-79933609D01*
X140446115Y-79933609D02*
X140446115Y-79433609D01*
X140446115Y-79909800D02*
X140493734Y-79933609D01*
X140493734Y-79933609D02*
X140588972Y-79933609D01*
X140588972Y-79933609D02*
X140636591Y-79909800D01*
X140636591Y-79909800D02*
X140660401Y-79885990D01*
X140660401Y-79885990D02*
X140684210Y-79838371D01*
X140684210Y-79838371D02*
X140684210Y-79695514D01*
X140684210Y-79695514D02*
X140660401Y-79647895D01*
X140660401Y-79647895D02*
X140636591Y-79624085D01*
X140636591Y-79624085D02*
X140588972Y-79600276D01*
X140588972Y-79600276D02*
X140493734Y-79600276D01*
X140493734Y-79600276D02*
X140446115Y-79624085D01*
X141612782Y-78600276D02*
X141493734Y-78933609D01*
X141493734Y-78933609D02*
X141374687Y-78600276D01*
X141184211Y-78743133D02*
X140803259Y-78743133D01*
X141612782Y-77600276D02*
X141493734Y-77933609D01*
X141493734Y-77933609D02*
X141374687Y-77600276D01*
X141184211Y-77743133D02*
X140803259Y-77743133D01*
X140993735Y-77933609D02*
X140993735Y-77552657D01*
X130612782Y-80100276D02*
X130350877Y-80100276D01*
X130350877Y-80100276D02*
X130612782Y-80433609D01*
X130612782Y-80433609D02*
X130350877Y-80433609D01*
X130612782Y-79100276D02*
X130493734Y-79433609D01*
X130374687Y-79100276D02*
X130493734Y-79433609D01*
X130493734Y-79433609D02*
X130541353Y-79552657D01*
X130541353Y-79552657D02*
X130565163Y-79576466D01*
X130565163Y-79576466D02*
X130612782Y-79600276D01*
X130612782Y-78433609D02*
X130350877Y-78100276D01*
X130612782Y-78100276D02*
X130350877Y-78433609D01*
D11*
X139009899Y-81154819D02*
X139009899Y-81392914D01*
X139247994Y-81297676D02*
X139009899Y-81392914D01*
X139009899Y-81392914D02*
X138771804Y-81297676D01*
X139152756Y-81583390D02*
X139009899Y-81392914D01*
X139009899Y-81392914D02*
X138867042Y-81583390D01*
X139009899Y-81154819D02*
X139009899Y-81392914D01*
X139247994Y-81297676D02*
X139009899Y-81392914D01*
X139009899Y-81392914D02*
X138771804Y-81297676D01*
X139152756Y-81583390D02*
X139009899Y-81392914D01*
X139009899Y-81392914D02*
X138867042Y-81583390D01*
D12*
X138197100Y-81539861D02*
X138197100Y-80802900D01*
X138197100Y-85197100D02*
X138197100Y-84460139D01*
X137460139Y-85197100D02*
X138197100Y-85197100D01*
X138197100Y-80802900D02*
X137460139Y-80802900D01*
X133802900Y-85197100D02*
X134539861Y-85197100D01*
X134539861Y-80802900D02*
X133802900Y-80802900D01*
X133802900Y-80802900D02*
X133802900Y-81539861D01*
X133802900Y-84460139D02*
X133802900Y-85197100D01*
D13*
G36*
X133371100Y-83515501D02*
G01*
X133117100Y-83515501D01*
X133117100Y-83134501D01*
X133371100Y-83134501D01*
X133371100Y-83515501D01*
G37*
D12*
X138419100Y-73286260D02*
X138419100Y-72879101D01*
X138419100Y-75286262D02*
X138419100Y-74713740D01*
X138419100Y-77120901D02*
X138419100Y-76713742D01*
X133161300Y-77120901D02*
X138419100Y-77120901D01*
X138419100Y-72879101D02*
X133161300Y-72879101D01*
X133161300Y-72879101D02*
X133161300Y-73286260D01*
X133161300Y-74713740D02*
X133161300Y-75286262D01*
X133161300Y-76713742D02*
X133161300Y-77120901D01*
X140749300Y-74000001D02*
G75*
G02*
X140546100Y-74000001I-101600J0D01*
G01*
X140546100Y-74000001D02*
G75*
G02*
X140749300Y-74000001I101600J0D01*
G01*
%LPC*%
D14*
X129750000Y-78187500D03*
D15*
X129750000Y-79187500D03*
X129750000Y-80187500D03*
D16*
X142250000Y-77687500D03*
D15*
X142250000Y-78687500D03*
X142250000Y-79687500D03*
X142250000Y-80687500D03*
D17*
X137943100Y-82025001D03*
X137943100Y-82674999D03*
X137943100Y-83325001D03*
X137943100Y-83974999D03*
D18*
X136974999Y-84943100D03*
X136325001Y-84943100D03*
X135674999Y-84943100D03*
X135025001Y-84943100D03*
D17*
X134056900Y-83974999D03*
X134056900Y-83325001D03*
X134056900Y-82674999D03*
X134056900Y-82025001D03*
D18*
X135025001Y-81056900D03*
X135674999Y-81056900D03*
X136325001Y-81056900D03*
X136974999Y-81056900D03*
D19*
X136000000Y-83000000D03*
D20*
X138000000Y-74000000D03*
X138000000Y-76000002D03*
X133580400Y-76000002D03*
X133580400Y-74000000D03*
D21*
X135790200Y-75000001D03*
%LPD*%
M02*
