<?xml version="1.0" standalone="no"?>
 <!DOCTYPE svg PUBLIC "-//W3C//DTD SVG 1.1//EN" 
 "http://www.w3.org/Graphics/SVG/1.1/DTD/svg11.dtd"> 
<svg
  xmlns:svg="http://www.w3.org/2000/svg"
  xmlns="http://www.w3.org/2000/svg"
  xmlns:xlink="http://www.w3.org/1999/xlink"
  version="1.1"
  width="297.0022mm" height="210.0072mm" viewBox="0.0000 0.0000 297.0022 210.0072">
<title>SVG Image created as DetectorAcc-B_Silkscreen.svg date 2025/07/30 11:31:17 </title>
  <desc>Image generated by PCBNEW </desc>
<g style="fill:#000000; fill-opacity:1.0000;stroke:#000000; stroke-opacity:1.0000;
stroke-linecap:round; stroke-linejoin:round;"
 transform="translate(0 0) scale(1 1)">
</g>
<g style="fill:none; 
stroke:#000000; stroke-width:0.1000; stroke-opacity:1; 
stroke-linecap:round; stroke-linejoin:round;">
<text x="130.7500" y="79.5000"
transform="scale(-1 1) translate(-261.500000 0)"
textLength="0.5810" font-size="0.6667" lengthAdjust="spacingAndGlyphs"
text-anchor="start" opacity="0" stroke-opacity="0">y</text>
<g class="stroked-text"><desc>y</desc>
<path d="M130.6128 79.1003
L130.4937 79.4336
" />
<path d="M130.3747 79.1003
L130.4937 79.4336
" />
<path d="M130.4937 79.4336
L130.5414 79.5527
" />
<path d="M130.5414 79.5527
L130.5652 79.5765
" />
<path d="M130.5652 79.5765
L130.6128 79.6003
" />
</g><text x="130.7500" y="78.5000"
transform="scale(-1 1) translate(-261.500000 0)"
textLength="0.6048" font-size="0.6667" lengthAdjust="spacingAndGlyphs"
text-anchor="start" opacity="0" stroke-opacity="0">x</text>
<g class="stroked-text"><desc>x</desc>
<path d="M130.6128 78.4336
L130.3509 78.1003
" />
<path d="M130.6128 78.1003
L130.3509 78.4336
" />
</g><text x="141.7500" y="80.0000"
transform="scale(-1 1) translate(-283.500000 0)"
textLength="1.5571" font-size="0.6667" lengthAdjust="spacingAndGlyphs"
text-anchor="start" opacity="0" stroke-opacity="0">gnd</text>
<g class="stroked-text"><desc>gnd</desc>
<path d="M141.3509 79.6003
L141.3509 80.0050
" />
<path d="M141.3509 80.0050
L141.3747 80.0527
" />
<path d="M141.3747 80.0527
L141.3985 80.0765
" />
<path d="M141.3985 80.0765
L141.4461 80.1003
" />
<path d="M141.4461 80.1003
L141.5175 80.1003
" />
<path d="M141.5175 80.1003
L141.5652 80.0765
" />
<path d="M141.3509 79.9098
L141.3985 79.9336
" />
<path d="M141.3985 79.9336
L141.4937 79.9336
" />
<path d="M141.4937 79.9336
L141.5414 79.9098
" />
<path d="M141.5414 79.9098
L141.5652 79.8860
" />
<path d="M141.5652 79.8860
L141.5890 79.8384
" />
<path d="M141.5890 79.8384
L141.5890 79.6955
" />
<path d="M141.5890 79.6955
L141.5652 79.6479
" />
<path d="M141.5652 79.6479
L141.5414 79.6241
" />
<path d="M141.5414 79.6241
L141.4937 79.6003
" />
<path d="M141.4937 79.6003
L141.3985 79.6003
" />
<path d="M141.3985 79.6003
L141.3509 79.6241
" />
<path d="M141.1128 79.6003
L141.1128 79.9336
" />
<path d="M141.1128 79.6479
L141.0890 79.6241
" />
<path d="M141.0890 79.6241
L141.0414 79.6003
" />
<path d="M141.0414 79.6003
L140.9699 79.6003
" />
<path d="M140.9699 79.6003
L140.9223 79.6241
" />
<path d="M140.9223 79.6241
L140.8985 79.6717
" />
<path d="M140.8985 79.6717
L140.8985 79.9336
" />
<path d="M140.4461 79.9336
L140.4461 79.4336
" />
<path d="M140.4461 79.9098
L140.4937 79.9336
" />
<path d="M140.4937 79.9336
L140.5890 79.9336
" />
<path d="M140.5890 79.9336
L140.6366 79.9098
" />
<path d="M140.6366 79.9098
L140.6604 79.8860
" />
<path d="M140.6604 79.8860
L140.6842 79.8384
" />
<path d="M140.6842 79.8384
L140.6842 79.6955
" />
<path d="M140.6842 79.6955
L140.6604 79.6479
" />
<path d="M140.6604 79.6479
L140.6366 79.6241
" />
<path d="M140.6366 79.6241
L140.5890 79.6003
" />
<path d="M140.5890 79.6003
L140.4937 79.6003
" />
<path d="M140.4937 79.6003
L140.4461 79.6241
" />
</g><text x="130.7500" y="80.5000"
transform="scale(-1 1) translate(-261.500000 0)"
textLength="0.6048" font-size="0.6667" lengthAdjust="spacingAndGlyphs"
text-anchor="start" opacity="0" stroke-opacity="0">z</text>
<g class="stroked-text"><desc>z</desc>
<path d="M130.6128 80.1003
L130.3509 80.1003
" />
<path d="M130.3509 80.1003
L130.6128 80.4336
" />
<path d="M130.6128 80.4336
L130.3509 80.4336
" />
</g><text x="141.7500" y="79.0000"
transform="scale(-1 1) translate(-283.500000 0)"
textLength="1.2000" font-size="0.6667" lengthAdjust="spacingAndGlyphs"
text-anchor="start" opacity="0" stroke-opacity="0">v-</text>
<g class="stroked-text"><desc>v-</desc>
<path d="M141.6128 78.6003
L141.4937 78.9336
" />
<path d="M141.4937 78.9336
L141.3747 78.6003
" />
<path d="M141.1842 78.7431
L140.8033 78.7431
" />
</g><text x="141.7500" y="78.0000"
transform="scale(-1 1) translate(-283.500000 0)"
textLength="1.2000" font-size="0.6667" lengthAdjust="spacingAndGlyphs"
text-anchor="start" opacity="0" stroke-opacity="0">v+</text>
<g class="stroked-text"><desc>v+</desc>
<path d="M141.6128 77.6003
L141.4937 77.9336
" />
<path d="M141.4937 77.9336
L141.3747 77.6003
" />
<path d="M141.1842 77.7431
L140.8033 77.7431
" />
<path d="M140.9937 77.9336
L140.9937 77.5527
" />
</g><text x="141.7500" y="81.0000"
transform="scale(-1 1) translate(-283.500000 0)"
textLength="1.3905" font-size="0.6667" lengthAdjust="spacingAndGlyphs"
text-anchor="start" opacity="0" stroke-opacity="0">out</text>
<g class="stroked-text"><desc>out</desc>
<path d="M141.4937 80.9336
L141.5414 80.9098
" />
<path d="M141.5414 80.9098
L141.5652 80.8860
" />
<path d="M141.5652 80.8860
L141.5890 80.8384
" />
<path d="M141.5890 80.8384
L141.5890 80.6955
" />
<path d="M141.5890 80.6955
L141.5652 80.6479
" />
<path d="M141.5652 80.6479
L141.5414 80.6241
" />
<path d="M141.5414 80.6241
L141.4937 80.6003
" />
<path d="M141.4937 80.6003
L141.4223 80.6003
" />
<path d="M141.4223 80.6003
L141.3747 80.6241
" />
<path d="M141.3747 80.6241
L141.3509 80.6479
" />
<path d="M141.3509 80.6479
L141.3271 80.6955
" />
<path d="M141.3271 80.6955
L141.3271 80.8384
" />
<path d="M141.3271 80.8384
L141.3509 80.8860
" />
<path d="M141.3509 80.8860
L141.3747 80.9098
" />
<path d="M141.3747 80.9098
L141.4223 80.9336
" />
<path d="M141.4223 80.9336
L141.4937 80.9336
" />
<path d="M140.8985 80.6003
L140.8985 80.9336
" />
<path d="M141.1128 80.6003
L141.1128 80.8622
" />
<path d="M141.1128 80.8622
L141.0890 80.9098
" />
<path d="M141.0890 80.9098
L141.0414 80.9336
" />
<path d="M141.0414 80.9336
L140.9699 80.9336
" />
<path d="M140.9699 80.9336
L140.9223 80.9098
" />
<path d="M140.9223 80.9098
L140.8985 80.8860
" />
<path d="M140.7318 80.6003
L140.5414 80.6003
" />
<path d="M140.6604 80.4336
L140.6604 80.8622
" />
<path d="M140.6604 80.8622
L140.6366 80.9098
" />
<path d="M140.6366 80.9098
L140.5890 80.9336
" />
<path d="M140.5890 80.9336
L140.5414 80.9336
" />
</g></g>
<g style="fill:none; 
stroke:#000000; stroke-width:0.1500; stroke-opacity:1; 
stroke-linecap:round; stroke-linejoin:round;">
<text x="139.0099" y="82.2000"
transform="scale(-1 1) translate(-278.019800 0)"
textLength="1.0119" font-size="1.3333" lengthAdjust="spacingAndGlyphs"
text-anchor="middle" opacity="0" stroke-opacity="0">*</text>
<g class="stroked-text"><desc>*</desc>
<path d="M139.0099 81.1548
L139.0099 81.3929
" />
<path d="M139.2480 81.2977
L139.0099 81.3929
" />
<path d="M139.0099 81.3929
L138.7718 81.2977
" />
<path d="M139.1528 81.5834
L139.0099 81.3929
" />
<path d="M139.0099 81.3929
L138.8670 81.5834
" />
</g><text x="139.0099" y="82.2000"
transform="scale(-1 1) translate(-278.019800 0)"
textLength="1.0119" font-size="1.3333" lengthAdjust="spacingAndGlyphs"
text-anchor="middle" opacity="0" stroke-opacity="0">*</text>
<g class="stroked-text"><desc>*</desc>
<path d="M139.0099 81.1548
L139.0099 81.3929
" />
<path d="M139.2480 81.2977
L139.0099 81.3929
" />
<path d="M139.0099 81.3929
L138.7718 81.2977
" />
<path d="M139.1528 81.5834
L139.0099 81.3929
" />
<path d="M139.0099 81.3929
L138.8670 81.5834
" />
</g></g>
<g style="fill:none; 
stroke:#000000; stroke-width:0.1524; stroke-opacity:1; 
stroke-linecap:round; stroke-linejoin:round;">
<path d="M133.8029 80.8029
L133.8029 81.5399
" />
<path d="M133.8029 84.4601
L133.8029 85.1971
" />
<path d="M133.8029 85.1971
L134.5399 85.1971
" />
<path d="M134.5399 80.8029
L133.8029 80.8029
" />
<path d="M137.4601 85.1971
L138.1971 85.1971
" />
<path d="M138.1971 80.8029
L137.4601 80.8029
" />
<path d="M138.1971 81.5399
L138.1971 80.8029
" />
<path d="M138.1971 85.1971
L138.1971 84.4601
" />
<path style="fill:#000000; fill-opacity:1.0000; stroke:none;fill-rule:evenodd;"
d="M 133.3711,83.5155
133.1171,83.5155
133.1171,83.1345
133.3711,83.1345
Z" /> 
</g>
<g style="fill:none; 
stroke:#000000; stroke-width:0.1524; stroke-opacity:1; 
stroke-linecap:round; stroke-linejoin:round;">
<path d="M133.1613 72.8791
L133.1613 73.2863
" />
<path d="M133.1613 74.7137
L133.1613 75.2863
" />
<path d="M133.1613 76.7137
L133.1613 77.1209
" />
<path d="M133.1613 77.1209
L138.4191 77.1209
" />
<path d="M138.4191 72.8791
L133.1613 72.8791
" />
<path d="M138.4191 73.2863
L138.4191 72.8791
" />
<path d="M138.4191 75.2863
L138.4191 74.7137
" />
<path d="M138.4191 77.1209
L138.4191 76.7137
" />
<circle cx="140.6477" cy="74.0000" r="0.1016" /> 
</g>
<g style="fill:none; 
stroke:#000000; stroke-width:0.0500; stroke-opacity:1; 
stroke-linecap:round; stroke-linejoin:round;">
<circle cx="136.0451" cy="79.5000" r="7.4549" /> 
</g> 
</svg>
