%TF.GenerationSoftware,KiCad,Pcbnew,8.0.6*%
%TF.CreationDate,2025-06-24T12:05:54-05:00*%
%TF.ProjectId,FNIRsV1,464e4952-7356-4312-9e6b-696361645f70,rev?*%
%TF.SameCoordinates,Original*%
%TF.FileFunction,Drillmap*%
%TF.FilePolarity,Positive*%
%FSLAX45Y45*%
G04 Gerber Fmt 4.5, Leading zero omitted, Abs format (unit mm)*
G04 Created by KiCad (PCBNEW 8.0.6) date 2025-06-24 12:05:54*
%MOMM*%
%LPD*%
G01*
G04 APERTURE LIST*
%ADD10C,0.050000*%
%ADD11C,0.200000*%
%ADD12C,0.100000*%
G04 APERTURE END LIST*
D10*
X14352046Y-7867695D02*
G75*
G02*
X12861057Y-7867695I-745495J0D01*
G01*
X12861057Y-7867695D02*
G75*
G02*
X14352046Y-7867695I745495J0D01*
G01*
D11*
D12*
X13180148Y-8282008D02*
X13210148Y-8312008D01*
X13210148Y-8282008D02*
X13180148Y-8312008D01*
X13183148Y-7756394D02*
X13213148Y-7786394D01*
X13213148Y-7756394D02*
X13183148Y-7786394D01*
X13716871Y-7847536D02*
X13746871Y-7877536D01*
X13746871Y-7847536D02*
X13716871Y-7877536D01*
X13739715Y-8165038D02*
X13769715Y-8195038D01*
X13769715Y-8165038D02*
X13739715Y-8195038D01*
X14110254Y-7494321D02*
G75*
G02*
X14010254Y-7494321I-50000J0D01*
G01*
X14010254Y-7494321D02*
G75*
G02*
X14110254Y-7494321I50000J0D01*
G01*
X14110254Y-7748321D02*
G75*
G02*
X14010254Y-7748321I-50000J0D01*
G01*
X14010254Y-7748321D02*
G75*
G02*
X14110254Y-7748321I50000J0D01*
G01*
X14110254Y-8002321D02*
G75*
G02*
X14010254Y-8002321I-50000J0D01*
G01*
X14010254Y-8002321D02*
G75*
G02*
X14110254Y-8002321I50000J0D01*
G01*
X14110254Y-8256321D02*
G75*
G02*
X14010254Y-8256321I-50000J0D01*
G01*
X14010254Y-8256321D02*
G75*
G02*
X14110254Y-8256321I50000J0D01*
G01*
D11*
X13119333Y-8927174D02*
X13119333Y-8727174D01*
X13119333Y-8727174D02*
X13166952Y-8727174D01*
X13166952Y-8727174D02*
X13195524Y-8736698D01*
X13195524Y-8736698D02*
X13214572Y-8755745D01*
X13214572Y-8755745D02*
X13224095Y-8774793D01*
X13224095Y-8774793D02*
X13233619Y-8812888D01*
X13233619Y-8812888D02*
X13233619Y-8841460D01*
X13233619Y-8841460D02*
X13224095Y-8879555D01*
X13224095Y-8879555D02*
X13214572Y-8898602D01*
X13214572Y-8898602D02*
X13195524Y-8917650D01*
X13195524Y-8917650D02*
X13166952Y-8927174D01*
X13166952Y-8927174D02*
X13119333Y-8927174D01*
X13319333Y-8927174D02*
X13319333Y-8793841D01*
X13319333Y-8831936D02*
X13328857Y-8812888D01*
X13328857Y-8812888D02*
X13338381Y-8803364D01*
X13338381Y-8803364D02*
X13357429Y-8793841D01*
X13357429Y-8793841D02*
X13376476Y-8793841D01*
X13443143Y-8927174D02*
X13443143Y-8793841D01*
X13443143Y-8727174D02*
X13433619Y-8736698D01*
X13433619Y-8736698D02*
X13443143Y-8746222D01*
X13443143Y-8746222D02*
X13452667Y-8736698D01*
X13452667Y-8736698D02*
X13443143Y-8727174D01*
X13443143Y-8727174D02*
X13443143Y-8746222D01*
X13566952Y-8927174D02*
X13547905Y-8917650D01*
X13547905Y-8917650D02*
X13538381Y-8898602D01*
X13538381Y-8898602D02*
X13538381Y-8727174D01*
X13671714Y-8927174D02*
X13652667Y-8917650D01*
X13652667Y-8917650D02*
X13643143Y-8898602D01*
X13643143Y-8898602D02*
X13643143Y-8727174D01*
X13900286Y-8927174D02*
X13900286Y-8727174D01*
X13900286Y-8727174D02*
X13966953Y-8870031D01*
X13966953Y-8870031D02*
X14033619Y-8727174D01*
X14033619Y-8727174D02*
X14033619Y-8927174D01*
X14214572Y-8927174D02*
X14214572Y-8822412D01*
X14214572Y-8822412D02*
X14205048Y-8803364D01*
X14205048Y-8803364D02*
X14186000Y-8793841D01*
X14186000Y-8793841D02*
X14147905Y-8793841D01*
X14147905Y-8793841D02*
X14128857Y-8803364D01*
X14214572Y-8917650D02*
X14195524Y-8927174D01*
X14195524Y-8927174D02*
X14147905Y-8927174D01*
X14147905Y-8927174D02*
X14128857Y-8917650D01*
X14128857Y-8917650D02*
X14119333Y-8898602D01*
X14119333Y-8898602D02*
X14119333Y-8879555D01*
X14119333Y-8879555D02*
X14128857Y-8860507D01*
X14128857Y-8860507D02*
X14147905Y-8850983D01*
X14147905Y-8850983D02*
X14195524Y-8850983D01*
X14195524Y-8850983D02*
X14214572Y-8841460D01*
X14309810Y-8793841D02*
X14309810Y-8993841D01*
X14309810Y-8803364D02*
X14328857Y-8793841D01*
X14328857Y-8793841D02*
X14366953Y-8793841D01*
X14366953Y-8793841D02*
X14386000Y-8803364D01*
X14386000Y-8803364D02*
X14395524Y-8812888D01*
X14395524Y-8812888D02*
X14405048Y-8831936D01*
X14405048Y-8831936D02*
X14405048Y-8889079D01*
X14405048Y-8889079D02*
X14395524Y-8908126D01*
X14395524Y-8908126D02*
X14386000Y-8917650D01*
X14386000Y-8917650D02*
X14366953Y-8927174D01*
X14366953Y-8927174D02*
X14328857Y-8927174D01*
X14328857Y-8927174D02*
X14309810Y-8917650D01*
X14490762Y-8908126D02*
X14500286Y-8917650D01*
X14500286Y-8917650D02*
X14490762Y-8927174D01*
X14490762Y-8927174D02*
X14481238Y-8917650D01*
X14481238Y-8917650D02*
X14490762Y-8908126D01*
X14490762Y-8908126D02*
X14490762Y-8927174D01*
X14490762Y-8803364D02*
X14500286Y-8812888D01*
X14500286Y-8812888D02*
X14490762Y-8822412D01*
X14490762Y-8822412D02*
X14481238Y-8812888D01*
X14481238Y-8812888D02*
X14490762Y-8803364D01*
X14490762Y-8803364D02*
X14490762Y-8822412D01*
D12*
X12828557Y-9240690D02*
X12858557Y-9270690D01*
X12858557Y-9240690D02*
X12828557Y-9270690D01*
D11*
X13157429Y-9147174D02*
X13176476Y-9147174D01*
X13176476Y-9147174D02*
X13195524Y-9156698D01*
X13195524Y-9156698D02*
X13205048Y-9166222D01*
X13205048Y-9166222D02*
X13214572Y-9185269D01*
X13214572Y-9185269D02*
X13224095Y-9223364D01*
X13224095Y-9223364D02*
X13224095Y-9270983D01*
X13224095Y-9270983D02*
X13214572Y-9309079D01*
X13214572Y-9309079D02*
X13205048Y-9328126D01*
X13205048Y-9328126D02*
X13195524Y-9337650D01*
X13195524Y-9337650D02*
X13176476Y-9347174D01*
X13176476Y-9347174D02*
X13157429Y-9347174D01*
X13157429Y-9347174D02*
X13138381Y-9337650D01*
X13138381Y-9337650D02*
X13128857Y-9328126D01*
X13128857Y-9328126D02*
X13119333Y-9309079D01*
X13119333Y-9309079D02*
X13109810Y-9270983D01*
X13109810Y-9270983D02*
X13109810Y-9223364D01*
X13109810Y-9223364D02*
X13119333Y-9185269D01*
X13119333Y-9185269D02*
X13128857Y-9166222D01*
X13128857Y-9166222D02*
X13138381Y-9156698D01*
X13138381Y-9156698D02*
X13157429Y-9147174D01*
X13309810Y-9328126D02*
X13319333Y-9337650D01*
X13319333Y-9337650D02*
X13309810Y-9347174D01*
X13309810Y-9347174D02*
X13300286Y-9337650D01*
X13300286Y-9337650D02*
X13309810Y-9328126D01*
X13309810Y-9328126D02*
X13309810Y-9347174D01*
X13386000Y-9147174D02*
X13509810Y-9147174D01*
X13509810Y-9147174D02*
X13443143Y-9223364D01*
X13443143Y-9223364D02*
X13471714Y-9223364D01*
X13471714Y-9223364D02*
X13490762Y-9232888D01*
X13490762Y-9232888D02*
X13500286Y-9242412D01*
X13500286Y-9242412D02*
X13509810Y-9261460D01*
X13509810Y-9261460D02*
X13509810Y-9309079D01*
X13509810Y-9309079D02*
X13500286Y-9328126D01*
X13500286Y-9328126D02*
X13490762Y-9337650D01*
X13490762Y-9337650D02*
X13471714Y-9347174D01*
X13471714Y-9347174D02*
X13414572Y-9347174D01*
X13414572Y-9347174D02*
X13395524Y-9337650D01*
X13395524Y-9337650D02*
X13386000Y-9328126D01*
X13633619Y-9147174D02*
X13652667Y-9147174D01*
X13652667Y-9147174D02*
X13671714Y-9156698D01*
X13671714Y-9156698D02*
X13681238Y-9166222D01*
X13681238Y-9166222D02*
X13690762Y-9185269D01*
X13690762Y-9185269D02*
X13700286Y-9223364D01*
X13700286Y-9223364D02*
X13700286Y-9270983D01*
X13700286Y-9270983D02*
X13690762Y-9309079D01*
X13690762Y-9309079D02*
X13681238Y-9328126D01*
X13681238Y-9328126D02*
X13671714Y-9337650D01*
X13671714Y-9337650D02*
X13652667Y-9347174D01*
X13652667Y-9347174D02*
X13633619Y-9347174D01*
X13633619Y-9347174D02*
X13614572Y-9337650D01*
X13614572Y-9337650D02*
X13605048Y-9328126D01*
X13605048Y-9328126D02*
X13595524Y-9309079D01*
X13595524Y-9309079D02*
X13586000Y-9270983D01*
X13586000Y-9270983D02*
X13586000Y-9223364D01*
X13586000Y-9223364D02*
X13595524Y-9185269D01*
X13595524Y-9185269D02*
X13605048Y-9166222D01*
X13605048Y-9166222D02*
X13614572Y-9156698D01*
X13614572Y-9156698D02*
X13633619Y-9147174D01*
X13824095Y-9147174D02*
X13843143Y-9147174D01*
X13843143Y-9147174D02*
X13862191Y-9156698D01*
X13862191Y-9156698D02*
X13871714Y-9166222D01*
X13871714Y-9166222D02*
X13881238Y-9185269D01*
X13881238Y-9185269D02*
X13890762Y-9223364D01*
X13890762Y-9223364D02*
X13890762Y-9270983D01*
X13890762Y-9270983D02*
X13881238Y-9309079D01*
X13881238Y-9309079D02*
X13871714Y-9328126D01*
X13871714Y-9328126D02*
X13862191Y-9337650D01*
X13862191Y-9337650D02*
X13843143Y-9347174D01*
X13843143Y-9347174D02*
X13824095Y-9347174D01*
X13824095Y-9347174D02*
X13805048Y-9337650D01*
X13805048Y-9337650D02*
X13795524Y-9328126D01*
X13795524Y-9328126D02*
X13786000Y-9309079D01*
X13786000Y-9309079D02*
X13776476Y-9270983D01*
X13776476Y-9270983D02*
X13776476Y-9223364D01*
X13776476Y-9223364D02*
X13786000Y-9185269D01*
X13786000Y-9185269D02*
X13795524Y-9166222D01*
X13795524Y-9166222D02*
X13805048Y-9156698D01*
X13805048Y-9156698D02*
X13824095Y-9147174D01*
X13976476Y-9347174D02*
X13976476Y-9213841D01*
X13976476Y-9232888D02*
X13986000Y-9223364D01*
X13986000Y-9223364D02*
X14005048Y-9213841D01*
X14005048Y-9213841D02*
X14033619Y-9213841D01*
X14033619Y-9213841D02*
X14052667Y-9223364D01*
X14052667Y-9223364D02*
X14062191Y-9242412D01*
X14062191Y-9242412D02*
X14062191Y-9347174D01*
X14062191Y-9242412D02*
X14071714Y-9223364D01*
X14071714Y-9223364D02*
X14090762Y-9213841D01*
X14090762Y-9213841D02*
X14119333Y-9213841D01*
X14119333Y-9213841D02*
X14138381Y-9223364D01*
X14138381Y-9223364D02*
X14147905Y-9242412D01*
X14147905Y-9242412D02*
X14147905Y-9347174D01*
X14243143Y-9347174D02*
X14243143Y-9213841D01*
X14243143Y-9232888D02*
X14252667Y-9223364D01*
X14252667Y-9223364D02*
X14271714Y-9213841D01*
X14271714Y-9213841D02*
X14300286Y-9213841D01*
X14300286Y-9213841D02*
X14319334Y-9223364D01*
X14319334Y-9223364D02*
X14328857Y-9242412D01*
X14328857Y-9242412D02*
X14328857Y-9347174D01*
X14328857Y-9242412D02*
X14338381Y-9223364D01*
X14338381Y-9223364D02*
X14357429Y-9213841D01*
X14357429Y-9213841D02*
X14386000Y-9213841D01*
X14386000Y-9213841D02*
X14405048Y-9223364D01*
X14405048Y-9223364D02*
X14414572Y-9242412D01*
X14414572Y-9242412D02*
X14414572Y-9347174D01*
X14805048Y-9137650D02*
X14633619Y-9394793D01*
X15062191Y-9147174D02*
X15081238Y-9147174D01*
X15081238Y-9147174D02*
X15100286Y-9156698D01*
X15100286Y-9156698D02*
X15109810Y-9166222D01*
X15109810Y-9166222D02*
X15119334Y-9185269D01*
X15119334Y-9185269D02*
X15128857Y-9223364D01*
X15128857Y-9223364D02*
X15128857Y-9270983D01*
X15128857Y-9270983D02*
X15119334Y-9309079D01*
X15119334Y-9309079D02*
X15109810Y-9328126D01*
X15109810Y-9328126D02*
X15100286Y-9337650D01*
X15100286Y-9337650D02*
X15081238Y-9347174D01*
X15081238Y-9347174D02*
X15062191Y-9347174D01*
X15062191Y-9347174D02*
X15043143Y-9337650D01*
X15043143Y-9337650D02*
X15033619Y-9328126D01*
X15033619Y-9328126D02*
X15024096Y-9309079D01*
X15024096Y-9309079D02*
X15014572Y-9270983D01*
X15014572Y-9270983D02*
X15014572Y-9223364D01*
X15014572Y-9223364D02*
X15024096Y-9185269D01*
X15024096Y-9185269D02*
X15033619Y-9166222D01*
X15033619Y-9166222D02*
X15043143Y-9156698D01*
X15043143Y-9156698D02*
X15062191Y-9147174D01*
X15214572Y-9328126D02*
X15224096Y-9337650D01*
X15224096Y-9337650D02*
X15214572Y-9347174D01*
X15214572Y-9347174D02*
X15205048Y-9337650D01*
X15205048Y-9337650D02*
X15214572Y-9328126D01*
X15214572Y-9328126D02*
X15214572Y-9347174D01*
X15347905Y-9147174D02*
X15366953Y-9147174D01*
X15366953Y-9147174D02*
X15386000Y-9156698D01*
X15386000Y-9156698D02*
X15395524Y-9166222D01*
X15395524Y-9166222D02*
X15405048Y-9185269D01*
X15405048Y-9185269D02*
X15414572Y-9223364D01*
X15414572Y-9223364D02*
X15414572Y-9270983D01*
X15414572Y-9270983D02*
X15405048Y-9309079D01*
X15405048Y-9309079D02*
X15395524Y-9328126D01*
X15395524Y-9328126D02*
X15386000Y-9337650D01*
X15386000Y-9337650D02*
X15366953Y-9347174D01*
X15366953Y-9347174D02*
X15347905Y-9347174D01*
X15347905Y-9347174D02*
X15328857Y-9337650D01*
X15328857Y-9337650D02*
X15319334Y-9328126D01*
X15319334Y-9328126D02*
X15309810Y-9309079D01*
X15309810Y-9309079D02*
X15300286Y-9270983D01*
X15300286Y-9270983D02*
X15300286Y-9223364D01*
X15300286Y-9223364D02*
X15309810Y-9185269D01*
X15309810Y-9185269D02*
X15319334Y-9166222D01*
X15319334Y-9166222D02*
X15328857Y-9156698D01*
X15328857Y-9156698D02*
X15347905Y-9147174D01*
X15605048Y-9347174D02*
X15490762Y-9347174D01*
X15547905Y-9347174D02*
X15547905Y-9147174D01*
X15547905Y-9147174D02*
X15528857Y-9175745D01*
X15528857Y-9175745D02*
X15509810Y-9194793D01*
X15509810Y-9194793D02*
X15490762Y-9204317D01*
X15795524Y-9347174D02*
X15681238Y-9347174D01*
X15738381Y-9347174D02*
X15738381Y-9147174D01*
X15738381Y-9147174D02*
X15719334Y-9175745D01*
X15719334Y-9175745D02*
X15700286Y-9194793D01*
X15700286Y-9194793D02*
X15681238Y-9204317D01*
X15909810Y-9232888D02*
X15890762Y-9223364D01*
X15890762Y-9223364D02*
X15881238Y-9213841D01*
X15881238Y-9213841D02*
X15871715Y-9194793D01*
X15871715Y-9194793D02*
X15871715Y-9185269D01*
X15871715Y-9185269D02*
X15881238Y-9166222D01*
X15881238Y-9166222D02*
X15890762Y-9156698D01*
X15890762Y-9156698D02*
X15909810Y-9147174D01*
X15909810Y-9147174D02*
X15947905Y-9147174D01*
X15947905Y-9147174D02*
X15966953Y-9156698D01*
X15966953Y-9156698D02*
X15976477Y-9166222D01*
X15976477Y-9166222D02*
X15986000Y-9185269D01*
X15986000Y-9185269D02*
X15986000Y-9194793D01*
X15986000Y-9194793D02*
X15976477Y-9213841D01*
X15976477Y-9213841D02*
X15966953Y-9223364D01*
X15966953Y-9223364D02*
X15947905Y-9232888D01*
X15947905Y-9232888D02*
X15909810Y-9232888D01*
X15909810Y-9232888D02*
X15890762Y-9242412D01*
X15890762Y-9242412D02*
X15881238Y-9251936D01*
X15881238Y-9251936D02*
X15871715Y-9270983D01*
X15871715Y-9270983D02*
X15871715Y-9309079D01*
X15871715Y-9309079D02*
X15881238Y-9328126D01*
X15881238Y-9328126D02*
X15890762Y-9337650D01*
X15890762Y-9337650D02*
X15909810Y-9347174D01*
X15909810Y-9347174D02*
X15947905Y-9347174D01*
X15947905Y-9347174D02*
X15966953Y-9337650D01*
X15966953Y-9337650D02*
X15976477Y-9328126D01*
X15976477Y-9328126D02*
X15986000Y-9309079D01*
X15986000Y-9309079D02*
X15986000Y-9270983D01*
X15986000Y-9270983D02*
X15976477Y-9251936D01*
X15976477Y-9251936D02*
X15966953Y-9242412D01*
X15966953Y-9242412D02*
X15947905Y-9232888D01*
X16062191Y-9147174D02*
X16062191Y-9185269D01*
X16138381Y-9147174D02*
X16138381Y-9185269D01*
X16433620Y-9423364D02*
X16424096Y-9413841D01*
X16424096Y-9413841D02*
X16405048Y-9385269D01*
X16405048Y-9385269D02*
X16395524Y-9366222D01*
X16395524Y-9366222D02*
X16386000Y-9337650D01*
X16386000Y-9337650D02*
X16376477Y-9290031D01*
X16376477Y-9290031D02*
X16376477Y-9251936D01*
X16376477Y-9251936D02*
X16386000Y-9204317D01*
X16386000Y-9204317D02*
X16395524Y-9175745D01*
X16395524Y-9175745D02*
X16405048Y-9156698D01*
X16405048Y-9156698D02*
X16424096Y-9128126D01*
X16424096Y-9128126D02*
X16433620Y-9118602D01*
X16595524Y-9213841D02*
X16595524Y-9347174D01*
X16547905Y-9137650D02*
X16500286Y-9280507D01*
X16500286Y-9280507D02*
X16624096Y-9280507D01*
X16852667Y-9347174D02*
X16852667Y-9147174D01*
X16938382Y-9347174D02*
X16938382Y-9242412D01*
X16938382Y-9242412D02*
X16928858Y-9223364D01*
X16928858Y-9223364D02*
X16909810Y-9213841D01*
X16909810Y-9213841D02*
X16881239Y-9213841D01*
X16881239Y-9213841D02*
X16862191Y-9223364D01*
X16862191Y-9223364D02*
X16852667Y-9232888D01*
X17062191Y-9347174D02*
X17043143Y-9337650D01*
X17043143Y-9337650D02*
X17033620Y-9328126D01*
X17033620Y-9328126D02*
X17024096Y-9309079D01*
X17024096Y-9309079D02*
X17024096Y-9251936D01*
X17024096Y-9251936D02*
X17033620Y-9232888D01*
X17033620Y-9232888D02*
X17043143Y-9223364D01*
X17043143Y-9223364D02*
X17062191Y-9213841D01*
X17062191Y-9213841D02*
X17090763Y-9213841D01*
X17090763Y-9213841D02*
X17109810Y-9223364D01*
X17109810Y-9223364D02*
X17119334Y-9232888D01*
X17119334Y-9232888D02*
X17128858Y-9251936D01*
X17128858Y-9251936D02*
X17128858Y-9309079D01*
X17128858Y-9309079D02*
X17119334Y-9328126D01*
X17119334Y-9328126D02*
X17109810Y-9337650D01*
X17109810Y-9337650D02*
X17090763Y-9347174D01*
X17090763Y-9347174D02*
X17062191Y-9347174D01*
X17243143Y-9347174D02*
X17224096Y-9337650D01*
X17224096Y-9337650D02*
X17214572Y-9318602D01*
X17214572Y-9318602D02*
X17214572Y-9147174D01*
X17395524Y-9337650D02*
X17376477Y-9347174D01*
X17376477Y-9347174D02*
X17338382Y-9347174D01*
X17338382Y-9347174D02*
X17319334Y-9337650D01*
X17319334Y-9337650D02*
X17309810Y-9318602D01*
X17309810Y-9318602D02*
X17309810Y-9242412D01*
X17309810Y-9242412D02*
X17319334Y-9223364D01*
X17319334Y-9223364D02*
X17338382Y-9213841D01*
X17338382Y-9213841D02*
X17376477Y-9213841D01*
X17376477Y-9213841D02*
X17395524Y-9223364D01*
X17395524Y-9223364D02*
X17405048Y-9242412D01*
X17405048Y-9242412D02*
X17405048Y-9261460D01*
X17405048Y-9261460D02*
X17309810Y-9280507D01*
X17481239Y-9337650D02*
X17500286Y-9347174D01*
X17500286Y-9347174D02*
X17538382Y-9347174D01*
X17538382Y-9347174D02*
X17557429Y-9337650D01*
X17557429Y-9337650D02*
X17566953Y-9318602D01*
X17566953Y-9318602D02*
X17566953Y-9309079D01*
X17566953Y-9309079D02*
X17557429Y-9290031D01*
X17557429Y-9290031D02*
X17538382Y-9280507D01*
X17538382Y-9280507D02*
X17509810Y-9280507D01*
X17509810Y-9280507D02*
X17490763Y-9270983D01*
X17490763Y-9270983D02*
X17481239Y-9251936D01*
X17481239Y-9251936D02*
X17481239Y-9242412D01*
X17481239Y-9242412D02*
X17490763Y-9223364D01*
X17490763Y-9223364D02*
X17509810Y-9213841D01*
X17509810Y-9213841D02*
X17538382Y-9213841D01*
X17538382Y-9213841D02*
X17557429Y-9223364D01*
X17633620Y-9423364D02*
X17643144Y-9413841D01*
X17643144Y-9413841D02*
X17662191Y-9385269D01*
X17662191Y-9385269D02*
X17671715Y-9366222D01*
X17671715Y-9366222D02*
X17681239Y-9337650D01*
X17681239Y-9337650D02*
X17690763Y-9290031D01*
X17690763Y-9290031D02*
X17690763Y-9251936D01*
X17690763Y-9251936D02*
X17681239Y-9204317D01*
X17681239Y-9204317D02*
X17671715Y-9175745D01*
X17671715Y-9175745D02*
X17662191Y-9156698D01*
X17662191Y-9156698D02*
X17643144Y-9128126D01*
X17643144Y-9128126D02*
X17633620Y-9118602D01*
D12*
X12858557Y-9519690D02*
G75*
G02*
X12758557Y-9519690I-50000J0D01*
G01*
X12758557Y-9519690D02*
G75*
G02*
X12858557Y-9519690I50000J0D01*
G01*
D11*
X13224095Y-9611174D02*
X13109810Y-9611174D01*
X13166952Y-9611174D02*
X13166952Y-9411174D01*
X13166952Y-9411174D02*
X13147905Y-9439745D01*
X13147905Y-9439745D02*
X13128857Y-9458793D01*
X13128857Y-9458793D02*
X13109810Y-9468317D01*
X13309810Y-9592126D02*
X13319333Y-9601650D01*
X13319333Y-9601650D02*
X13309810Y-9611174D01*
X13309810Y-9611174D02*
X13300286Y-9601650D01*
X13300286Y-9601650D02*
X13309810Y-9592126D01*
X13309810Y-9592126D02*
X13309810Y-9611174D01*
X13443143Y-9411174D02*
X13462191Y-9411174D01*
X13462191Y-9411174D02*
X13481238Y-9420698D01*
X13481238Y-9420698D02*
X13490762Y-9430222D01*
X13490762Y-9430222D02*
X13500286Y-9449269D01*
X13500286Y-9449269D02*
X13509810Y-9487364D01*
X13509810Y-9487364D02*
X13509810Y-9534983D01*
X13509810Y-9534983D02*
X13500286Y-9573079D01*
X13500286Y-9573079D02*
X13490762Y-9592126D01*
X13490762Y-9592126D02*
X13481238Y-9601650D01*
X13481238Y-9601650D02*
X13462191Y-9611174D01*
X13462191Y-9611174D02*
X13443143Y-9611174D01*
X13443143Y-9611174D02*
X13424095Y-9601650D01*
X13424095Y-9601650D02*
X13414572Y-9592126D01*
X13414572Y-9592126D02*
X13405048Y-9573079D01*
X13405048Y-9573079D02*
X13395524Y-9534983D01*
X13395524Y-9534983D02*
X13395524Y-9487364D01*
X13395524Y-9487364D02*
X13405048Y-9449269D01*
X13405048Y-9449269D02*
X13414572Y-9430222D01*
X13414572Y-9430222D02*
X13424095Y-9420698D01*
X13424095Y-9420698D02*
X13443143Y-9411174D01*
X13633619Y-9411174D02*
X13652667Y-9411174D01*
X13652667Y-9411174D02*
X13671714Y-9420698D01*
X13671714Y-9420698D02*
X13681238Y-9430222D01*
X13681238Y-9430222D02*
X13690762Y-9449269D01*
X13690762Y-9449269D02*
X13700286Y-9487364D01*
X13700286Y-9487364D02*
X13700286Y-9534983D01*
X13700286Y-9534983D02*
X13690762Y-9573079D01*
X13690762Y-9573079D02*
X13681238Y-9592126D01*
X13681238Y-9592126D02*
X13671714Y-9601650D01*
X13671714Y-9601650D02*
X13652667Y-9611174D01*
X13652667Y-9611174D02*
X13633619Y-9611174D01*
X13633619Y-9611174D02*
X13614572Y-9601650D01*
X13614572Y-9601650D02*
X13605048Y-9592126D01*
X13605048Y-9592126D02*
X13595524Y-9573079D01*
X13595524Y-9573079D02*
X13586000Y-9534983D01*
X13586000Y-9534983D02*
X13586000Y-9487364D01*
X13586000Y-9487364D02*
X13595524Y-9449269D01*
X13595524Y-9449269D02*
X13605048Y-9430222D01*
X13605048Y-9430222D02*
X13614572Y-9420698D01*
X13614572Y-9420698D02*
X13633619Y-9411174D01*
X13824095Y-9411174D02*
X13843143Y-9411174D01*
X13843143Y-9411174D02*
X13862191Y-9420698D01*
X13862191Y-9420698D02*
X13871714Y-9430222D01*
X13871714Y-9430222D02*
X13881238Y-9449269D01*
X13881238Y-9449269D02*
X13890762Y-9487364D01*
X13890762Y-9487364D02*
X13890762Y-9534983D01*
X13890762Y-9534983D02*
X13881238Y-9573079D01*
X13881238Y-9573079D02*
X13871714Y-9592126D01*
X13871714Y-9592126D02*
X13862191Y-9601650D01*
X13862191Y-9601650D02*
X13843143Y-9611174D01*
X13843143Y-9611174D02*
X13824095Y-9611174D01*
X13824095Y-9611174D02*
X13805048Y-9601650D01*
X13805048Y-9601650D02*
X13795524Y-9592126D01*
X13795524Y-9592126D02*
X13786000Y-9573079D01*
X13786000Y-9573079D02*
X13776476Y-9534983D01*
X13776476Y-9534983D02*
X13776476Y-9487364D01*
X13776476Y-9487364D02*
X13786000Y-9449269D01*
X13786000Y-9449269D02*
X13795524Y-9430222D01*
X13795524Y-9430222D02*
X13805048Y-9420698D01*
X13805048Y-9420698D02*
X13824095Y-9411174D01*
X13976476Y-9611174D02*
X13976476Y-9477841D01*
X13976476Y-9496888D02*
X13986000Y-9487364D01*
X13986000Y-9487364D02*
X14005048Y-9477841D01*
X14005048Y-9477841D02*
X14033619Y-9477841D01*
X14033619Y-9477841D02*
X14052667Y-9487364D01*
X14052667Y-9487364D02*
X14062191Y-9506412D01*
X14062191Y-9506412D02*
X14062191Y-9611174D01*
X14062191Y-9506412D02*
X14071714Y-9487364D01*
X14071714Y-9487364D02*
X14090762Y-9477841D01*
X14090762Y-9477841D02*
X14119333Y-9477841D01*
X14119333Y-9477841D02*
X14138381Y-9487364D01*
X14138381Y-9487364D02*
X14147905Y-9506412D01*
X14147905Y-9506412D02*
X14147905Y-9611174D01*
X14243143Y-9611174D02*
X14243143Y-9477841D01*
X14243143Y-9496888D02*
X14252667Y-9487364D01*
X14252667Y-9487364D02*
X14271714Y-9477841D01*
X14271714Y-9477841D02*
X14300286Y-9477841D01*
X14300286Y-9477841D02*
X14319334Y-9487364D01*
X14319334Y-9487364D02*
X14328857Y-9506412D01*
X14328857Y-9506412D02*
X14328857Y-9611174D01*
X14328857Y-9506412D02*
X14338381Y-9487364D01*
X14338381Y-9487364D02*
X14357429Y-9477841D01*
X14357429Y-9477841D02*
X14386000Y-9477841D01*
X14386000Y-9477841D02*
X14405048Y-9487364D01*
X14405048Y-9487364D02*
X14414572Y-9506412D01*
X14414572Y-9506412D02*
X14414572Y-9611174D01*
X14805048Y-9401650D02*
X14633619Y-9658793D01*
X15062191Y-9411174D02*
X15081238Y-9411174D01*
X15081238Y-9411174D02*
X15100286Y-9420698D01*
X15100286Y-9420698D02*
X15109810Y-9430222D01*
X15109810Y-9430222D02*
X15119334Y-9449269D01*
X15119334Y-9449269D02*
X15128857Y-9487364D01*
X15128857Y-9487364D02*
X15128857Y-9534983D01*
X15128857Y-9534983D02*
X15119334Y-9573079D01*
X15119334Y-9573079D02*
X15109810Y-9592126D01*
X15109810Y-9592126D02*
X15100286Y-9601650D01*
X15100286Y-9601650D02*
X15081238Y-9611174D01*
X15081238Y-9611174D02*
X15062191Y-9611174D01*
X15062191Y-9611174D02*
X15043143Y-9601650D01*
X15043143Y-9601650D02*
X15033619Y-9592126D01*
X15033619Y-9592126D02*
X15024096Y-9573079D01*
X15024096Y-9573079D02*
X15014572Y-9534983D01*
X15014572Y-9534983D02*
X15014572Y-9487364D01*
X15014572Y-9487364D02*
X15024096Y-9449269D01*
X15024096Y-9449269D02*
X15033619Y-9430222D01*
X15033619Y-9430222D02*
X15043143Y-9420698D01*
X15043143Y-9420698D02*
X15062191Y-9411174D01*
X15214572Y-9592126D02*
X15224096Y-9601650D01*
X15224096Y-9601650D02*
X15214572Y-9611174D01*
X15214572Y-9611174D02*
X15205048Y-9601650D01*
X15205048Y-9601650D02*
X15214572Y-9592126D01*
X15214572Y-9592126D02*
X15214572Y-9611174D01*
X15347905Y-9411174D02*
X15366953Y-9411174D01*
X15366953Y-9411174D02*
X15386000Y-9420698D01*
X15386000Y-9420698D02*
X15395524Y-9430222D01*
X15395524Y-9430222D02*
X15405048Y-9449269D01*
X15405048Y-9449269D02*
X15414572Y-9487364D01*
X15414572Y-9487364D02*
X15414572Y-9534983D01*
X15414572Y-9534983D02*
X15405048Y-9573079D01*
X15405048Y-9573079D02*
X15395524Y-9592126D01*
X15395524Y-9592126D02*
X15386000Y-9601650D01*
X15386000Y-9601650D02*
X15366953Y-9611174D01*
X15366953Y-9611174D02*
X15347905Y-9611174D01*
X15347905Y-9611174D02*
X15328857Y-9601650D01*
X15328857Y-9601650D02*
X15319334Y-9592126D01*
X15319334Y-9592126D02*
X15309810Y-9573079D01*
X15309810Y-9573079D02*
X15300286Y-9534983D01*
X15300286Y-9534983D02*
X15300286Y-9487364D01*
X15300286Y-9487364D02*
X15309810Y-9449269D01*
X15309810Y-9449269D02*
X15319334Y-9430222D01*
X15319334Y-9430222D02*
X15328857Y-9420698D01*
X15328857Y-9420698D02*
X15347905Y-9411174D01*
X15481238Y-9411174D02*
X15605048Y-9411174D01*
X15605048Y-9411174D02*
X15538381Y-9487364D01*
X15538381Y-9487364D02*
X15566953Y-9487364D01*
X15566953Y-9487364D02*
X15586000Y-9496888D01*
X15586000Y-9496888D02*
X15595524Y-9506412D01*
X15595524Y-9506412D02*
X15605048Y-9525460D01*
X15605048Y-9525460D02*
X15605048Y-9573079D01*
X15605048Y-9573079D02*
X15595524Y-9592126D01*
X15595524Y-9592126D02*
X15586000Y-9601650D01*
X15586000Y-9601650D02*
X15566953Y-9611174D01*
X15566953Y-9611174D02*
X15509810Y-9611174D01*
X15509810Y-9611174D02*
X15490762Y-9601650D01*
X15490762Y-9601650D02*
X15481238Y-9592126D01*
X15700286Y-9611174D02*
X15738381Y-9611174D01*
X15738381Y-9611174D02*
X15757429Y-9601650D01*
X15757429Y-9601650D02*
X15766953Y-9592126D01*
X15766953Y-9592126D02*
X15786000Y-9563555D01*
X15786000Y-9563555D02*
X15795524Y-9525460D01*
X15795524Y-9525460D02*
X15795524Y-9449269D01*
X15795524Y-9449269D02*
X15786000Y-9430222D01*
X15786000Y-9430222D02*
X15776477Y-9420698D01*
X15776477Y-9420698D02*
X15757429Y-9411174D01*
X15757429Y-9411174D02*
X15719334Y-9411174D01*
X15719334Y-9411174D02*
X15700286Y-9420698D01*
X15700286Y-9420698D02*
X15690762Y-9430222D01*
X15690762Y-9430222D02*
X15681238Y-9449269D01*
X15681238Y-9449269D02*
X15681238Y-9496888D01*
X15681238Y-9496888D02*
X15690762Y-9515936D01*
X15690762Y-9515936D02*
X15700286Y-9525460D01*
X15700286Y-9525460D02*
X15719334Y-9534983D01*
X15719334Y-9534983D02*
X15757429Y-9534983D01*
X15757429Y-9534983D02*
X15776477Y-9525460D01*
X15776477Y-9525460D02*
X15786000Y-9515936D01*
X15786000Y-9515936D02*
X15795524Y-9496888D01*
X15966953Y-9477841D02*
X15966953Y-9611174D01*
X15919334Y-9401650D02*
X15871715Y-9544507D01*
X15871715Y-9544507D02*
X15995524Y-9544507D01*
X16062191Y-9411174D02*
X16062191Y-9449269D01*
X16138381Y-9411174D02*
X16138381Y-9449269D01*
X16433620Y-9687364D02*
X16424096Y-9677841D01*
X16424096Y-9677841D02*
X16405048Y-9649269D01*
X16405048Y-9649269D02*
X16395524Y-9630222D01*
X16395524Y-9630222D02*
X16386000Y-9601650D01*
X16386000Y-9601650D02*
X16376477Y-9554031D01*
X16376477Y-9554031D02*
X16376477Y-9515936D01*
X16376477Y-9515936D02*
X16386000Y-9468317D01*
X16386000Y-9468317D02*
X16395524Y-9439745D01*
X16395524Y-9439745D02*
X16405048Y-9420698D01*
X16405048Y-9420698D02*
X16424096Y-9392126D01*
X16424096Y-9392126D02*
X16433620Y-9382602D01*
X16595524Y-9477841D02*
X16595524Y-9611174D01*
X16547905Y-9401650D02*
X16500286Y-9544507D01*
X16500286Y-9544507D02*
X16624096Y-9544507D01*
X16852667Y-9611174D02*
X16852667Y-9411174D01*
X16938382Y-9611174D02*
X16938382Y-9506412D01*
X16938382Y-9506412D02*
X16928858Y-9487364D01*
X16928858Y-9487364D02*
X16909810Y-9477841D01*
X16909810Y-9477841D02*
X16881239Y-9477841D01*
X16881239Y-9477841D02*
X16862191Y-9487364D01*
X16862191Y-9487364D02*
X16852667Y-9496888D01*
X17062191Y-9611174D02*
X17043143Y-9601650D01*
X17043143Y-9601650D02*
X17033620Y-9592126D01*
X17033620Y-9592126D02*
X17024096Y-9573079D01*
X17024096Y-9573079D02*
X17024096Y-9515936D01*
X17024096Y-9515936D02*
X17033620Y-9496888D01*
X17033620Y-9496888D02*
X17043143Y-9487364D01*
X17043143Y-9487364D02*
X17062191Y-9477841D01*
X17062191Y-9477841D02*
X17090763Y-9477841D01*
X17090763Y-9477841D02*
X17109810Y-9487364D01*
X17109810Y-9487364D02*
X17119334Y-9496888D01*
X17119334Y-9496888D02*
X17128858Y-9515936D01*
X17128858Y-9515936D02*
X17128858Y-9573079D01*
X17128858Y-9573079D02*
X17119334Y-9592126D01*
X17119334Y-9592126D02*
X17109810Y-9601650D01*
X17109810Y-9601650D02*
X17090763Y-9611174D01*
X17090763Y-9611174D02*
X17062191Y-9611174D01*
X17243143Y-9611174D02*
X17224096Y-9601650D01*
X17224096Y-9601650D02*
X17214572Y-9582602D01*
X17214572Y-9582602D02*
X17214572Y-9411174D01*
X17395524Y-9601650D02*
X17376477Y-9611174D01*
X17376477Y-9611174D02*
X17338382Y-9611174D01*
X17338382Y-9611174D02*
X17319334Y-9601650D01*
X17319334Y-9601650D02*
X17309810Y-9582602D01*
X17309810Y-9582602D02*
X17309810Y-9506412D01*
X17309810Y-9506412D02*
X17319334Y-9487364D01*
X17319334Y-9487364D02*
X17338382Y-9477841D01*
X17338382Y-9477841D02*
X17376477Y-9477841D01*
X17376477Y-9477841D02*
X17395524Y-9487364D01*
X17395524Y-9487364D02*
X17405048Y-9506412D01*
X17405048Y-9506412D02*
X17405048Y-9525460D01*
X17405048Y-9525460D02*
X17309810Y-9544507D01*
X17481239Y-9601650D02*
X17500286Y-9611174D01*
X17500286Y-9611174D02*
X17538382Y-9611174D01*
X17538382Y-9611174D02*
X17557429Y-9601650D01*
X17557429Y-9601650D02*
X17566953Y-9582602D01*
X17566953Y-9582602D02*
X17566953Y-9573079D01*
X17566953Y-9573079D02*
X17557429Y-9554031D01*
X17557429Y-9554031D02*
X17538382Y-9544507D01*
X17538382Y-9544507D02*
X17509810Y-9544507D01*
X17509810Y-9544507D02*
X17490763Y-9534983D01*
X17490763Y-9534983D02*
X17481239Y-9515936D01*
X17481239Y-9515936D02*
X17481239Y-9506412D01*
X17481239Y-9506412D02*
X17490763Y-9487364D01*
X17490763Y-9487364D02*
X17509810Y-9477841D01*
X17509810Y-9477841D02*
X17538382Y-9477841D01*
X17538382Y-9477841D02*
X17557429Y-9487364D01*
X17633620Y-9687364D02*
X17643144Y-9677841D01*
X17643144Y-9677841D02*
X17662191Y-9649269D01*
X17662191Y-9649269D02*
X17671715Y-9630222D01*
X17671715Y-9630222D02*
X17681239Y-9601650D01*
X17681239Y-9601650D02*
X17690763Y-9554031D01*
X17690763Y-9554031D02*
X17690763Y-9515936D01*
X17690763Y-9515936D02*
X17681239Y-9468317D01*
X17681239Y-9468317D02*
X17671715Y-9439745D01*
X17671715Y-9439745D02*
X17662191Y-9420698D01*
X17662191Y-9420698D02*
X17643144Y-9392126D01*
X17643144Y-9392126D02*
X17633620Y-9382602D01*
M02*
