G04 #@! TF.GenerationSoftware,KiCad,Pcbnew,8.0.6*
G04 #@! TF.CreationDate,2025-07-17T13:08:23-05:00*
G04 #@! TF.ProjectId,DetectorAcc,44657465-6374-46f7-9241-63632e6b6963,rev?*
G04 #@! TF.SameCoordinates,Original*
G04 #@! TF.FileFunction,Copper,L1,Top*
G04 #@! TF.FilePolarity,Positive*
%FSLAX46Y46*%
G04 Gerber Fmt 4.6, Leading zero omitted, Abs format (unit mm)*
G04 Created by KiCad (PCBNEW 8.0.6) date 2025-07-17 13:08:23*
%MOMM*%
%LPD*%
G01*
G04 APERTURE LIST*
G04 Aperture macros list*
%AMRoundRect*
0 Rectangle with rounded corners*
0 $1 Rounding radius*
0 $2 $3 $4 $5 $6 $7 $8 $9 X,Y pos of 4 corners*
0 Add a 4 corners polygon primitive as box body*
4,1,4,$2,$3,$4,$5,$6,$7,$8,$9,$2,$3,0*
0 Add four circle primitives for the rounded corners*
1,1,$1+$1,$2,$3*
1,1,$1+$1,$4,$5*
1,1,$1+$1,$6,$7*
1,1,$1+$1,$8,$9*
0 Add four rect primitives between the rounded corners*
20,1,$1+$1,$2,$3,$4,$5,0*
20,1,$1+$1,$4,$5,$6,$7,0*
20,1,$1+$1,$6,$7,$8,$9,0*
20,1,$1+$1,$8,$9,$2,$3,0*%
G04 Aperture macros list end*
G04 #@! TA.AperFunction,ComponentPad*
%ADD10C,0.850000*%
G04 #@! TD*
G04 #@! TA.AperFunction,ComponentPad*
%ADD11O,0.850000X0.850000*%
G04 #@! TD*
G04 #@! TA.AperFunction,ComponentPad*
%ADD12R,0.850000X0.850000*%
G04 #@! TD*
G04 #@! TA.AperFunction,SMDPad,CuDef*
%ADD13RoundRect,0.162500X-0.617500X-0.162500X0.617500X-0.162500X0.617500X0.162500X-0.617500X0.162500X0*%
G04 #@! TD*
G04 #@! TA.AperFunction,SMDPad,CuDef*
%ADD14RoundRect,0.237500X0.237500X-0.250000X0.237500X0.250000X-0.237500X0.250000X-0.237500X-0.250000X0*%
G04 #@! TD*
G04 #@! TA.AperFunction,SMDPad,CuDef*
%ADD15RoundRect,0.237500X-0.250000X-0.237500X0.250000X-0.237500X0.250000X0.237500X-0.250000X0.237500X0*%
G04 #@! TD*
G04 #@! TA.AperFunction,SMDPad,CuDef*
%ADD16RoundRect,0.237500X0.300000X0.237500X-0.300000X0.237500X-0.300000X-0.237500X0.300000X-0.237500X0*%
G04 #@! TD*
G04 #@! TA.AperFunction,SMDPad,CuDef*
%ADD17RoundRect,0.237500X-0.237500X0.300000X-0.237500X-0.300000X0.237500X-0.300000X0.237500X0.300000X0*%
G04 #@! TD*
G04 #@! TA.AperFunction,SMDPad,CuDef*
%ADD18RoundRect,0.237500X0.237500X-0.300000X0.237500X0.300000X-0.237500X0.300000X-0.237500X-0.300000X0*%
G04 #@! TD*
G04 #@! TA.AperFunction,SMDPad,CuDef*
%ADD19RoundRect,0.237500X-0.300000X-0.237500X0.300000X-0.237500X0.300000X0.237500X-0.300000X0.237500X0*%
G04 #@! TD*
G04 #@! TA.AperFunction,ViaPad*
%ADD20C,0.600000*%
G04 #@! TD*
G04 #@! TA.AperFunction,Conductor*
%ADD21C,0.200000*%
G04 #@! TD*
G04 APERTURE END LIST*
D10*
X129750000Y-78187500D03*
D11*
X129750000Y-79187500D03*
X129750000Y-80187500D03*
D12*
X142250000Y-77687500D03*
D11*
X142250000Y-78687500D03*
X142250000Y-79687500D03*
X142250000Y-80687500D03*
D13*
X135400000Y-78050000D03*
X135400000Y-79000000D03*
X135400000Y-79950000D03*
X138100000Y-79950000D03*
X138100000Y-78050000D03*
D14*
X140250000Y-83662500D03*
X140250000Y-81837500D03*
D15*
X136587500Y-82000000D03*
X138412500Y-82000000D03*
D16*
X132612500Y-82500000D03*
X130887500Y-82500000D03*
X134112500Y-84250000D03*
X132387500Y-84250000D03*
D17*
X132750000Y-78637500D03*
X132750000Y-80362500D03*
D18*
X140250000Y-76750000D03*
X140250000Y-75025000D03*
D17*
X140250000Y-78456250D03*
X140250000Y-80181250D03*
D19*
X136637500Y-83750000D03*
X138362500Y-83750000D03*
D20*
X135677403Y-84943100D03*
X134112500Y-84627401D03*
X135790200Y-75000001D03*
X135400000Y-79950000D03*
X132750000Y-80362500D03*
X132612500Y-82500000D03*
D21*
X133568749Y-85227401D02*
X135393102Y-85227401D01*
X132591348Y-84250000D02*
X133568749Y-85227401D01*
X135393102Y-85227401D02*
X135677403Y-84943100D01*
X132387500Y-84250000D02*
X132591348Y-84250000D01*
X130887500Y-82750000D02*
X132387500Y-84250000D01*
X130887500Y-82500000D02*
X130887500Y-82750000D01*
X140225001Y-75000001D02*
X140250000Y-75025000D01*
X135790200Y-75000001D02*
X140225001Y-75000001D01*
X135790200Y-77459800D02*
X135790200Y-75000001D01*
X135400000Y-77850000D02*
X135790200Y-77459800D01*
X135400000Y-78050000D02*
X135400000Y-77850000D01*
X136587500Y-83700000D02*
X136637500Y-83750000D01*
X136587500Y-82000000D02*
X136587500Y-83700000D01*
X136587500Y-81137500D02*
X136587500Y-82000000D01*
X135400000Y-79950000D02*
X136587500Y-81137500D01*
X140743750Y-79687500D02*
X140250000Y-80181250D01*
X142250000Y-79687500D02*
X140743750Y-79687500D01*
X141100000Y-81837500D02*
X142250000Y-80687500D01*
X140250000Y-81837500D02*
X141100000Y-81837500D01*
X140162500Y-83750000D02*
X140250000Y-83662500D01*
X138362500Y-83750000D02*
X140162500Y-83750000D01*
X138412500Y-83700000D02*
X138362500Y-83750000D01*
X138412500Y-82000000D02*
X138412500Y-83700000D01*
X138100000Y-81687500D02*
X138412500Y-82000000D01*
X138100000Y-79950000D02*
X138100000Y-81687500D01*
X139400000Y-76750000D02*
X138100000Y-78050000D01*
X140250000Y-76750000D02*
X139400000Y-76750000D01*
X141187500Y-77687500D02*
X140250000Y-76750000D01*
X142250000Y-77687500D02*
X141187500Y-77687500D01*
X142018750Y-78456250D02*
X142250000Y-78687500D01*
X140250000Y-78456250D02*
X142018750Y-78456250D01*
X135400000Y-79000000D02*
X139706250Y-79000000D01*
X139706250Y-79000000D02*
X140250000Y-78456250D01*
X133337500Y-78050000D02*
X135400000Y-78050000D01*
X132750000Y-78637500D02*
X133337500Y-78050000D01*
X130887500Y-80500000D02*
X132750000Y-78637500D01*
X130887500Y-82500000D02*
X130887500Y-80500000D01*
M02*
