<?xml version="1.0" standalone="no"?>
 <!DOCTYPE svg PUBLIC "-//W3C//DTD SVG 1.1//EN" 
 "http://www.w3.org/Graphics/SVG/1.1/DTD/svg11.dtd"> 
<svg
  xmlns:svg="http://www.w3.org/2000/svg"
  xmlns="http://www.w3.org/2000/svg"
  xmlns:xlink="http://www.w3.org/1999/xlink"
  version="1.1"
  width="297.0022mm" height="210.0072mm" viewBox="0.0000 0.0000 297.0022 210.0072">
<title>SVG Image created as DetectorAcc-B_Fab.svg date 2025/07/30 11:31:17 </title>
  <desc>Image generated by PCBNEW </desc>
<g style="fill:#000000; fill-opacity:1.0000;stroke:#000000; stroke-opacity:1.0000;
stroke-linecap:round; stroke-linejoin:round;"
 transform="translate(0 0) scale(1 1)">
</g>
<g style="fill:none; 
stroke:#000000; stroke-width:0.1500; stroke-opacity:1; 
stroke-linecap:round; stroke-linejoin:round;">
<text x="136.0000" y="83.5000"
transform="scale(-1 1) translate(-272.000000 0)"
textLength="10.6786" font-size="1.3333" lengthAdjust="spacingAndGlyphs"
text-anchor="middle" opacity="0" stroke-opacity="0">ADXL325BCPZ</text>
<g class="stroked-text"><desc>ADXL325BCPZ</desc>
<path d="M141.0238 83.1691
L140.5476 83.1691
" />
<path d="M141.1190 83.4548
L140.7857 82.4548
" />
<path d="M140.7857 82.4548
L140.4524 83.4548
" />
<path d="M140.1190 83.4548
L140.1190 82.4548
" />
<path d="M140.1190 82.4548
L139.8810 82.4548
" />
<path d="M139.8810 82.4548
L139.7381 82.5024
" />
<path d="M139.7381 82.5024
L139.6429 82.5977
" />
<path d="M139.6429 82.5977
L139.5952 82.6929
" />
<path d="M139.5952 82.6929
L139.5476 82.8834
" />
<path d="M139.5476 82.8834
L139.5476 83.0262
" />
<path d="M139.5476 83.0262
L139.5952 83.2167
" />
<path d="M139.5952 83.2167
L139.6429 83.3120
" />
<path d="M139.6429 83.3120
L139.7381 83.4072
" />
<path d="M139.7381 83.4072
L139.8810 83.4548
" />
<path d="M139.8810 83.4548
L140.1190 83.4548
" />
<path d="M139.2143 82.4548
L138.5476 83.4548
" />
<path d="M138.5476 82.4548
L139.2143 83.4548
" />
<path d="M137.6905 83.4548
L138.1667 83.4548
" />
<path d="M138.1667 83.4548
L138.1667 82.4548
" />
<path d="M137.4524 82.4548
L136.8333 82.4548
" />
<path d="M136.8333 82.4548
L137.1667 82.8358
" />
<path d="M137.1667 82.8358
L137.0238 82.8358
" />
<path d="M137.0238 82.8358
L136.9286 82.8834
" />
<path d="M136.9286 82.8834
L136.8810 82.9310
" />
<path d="M136.8810 82.9310
L136.8333 83.0262
" />
<path d="M136.8333 83.0262
L136.8333 83.2643
" />
<path d="M136.8333 83.2643
L136.8810 83.3596
" />
<path d="M136.8810 83.3596
L136.9286 83.4072
" />
<path d="M136.9286 83.4072
L137.0238 83.4548
" />
<path d="M137.0238 83.4548
L137.3095 83.4548
" />
<path d="M137.3095 83.4548
L137.4048 83.4072
" />
<path d="M137.4048 83.4072
L137.4524 83.3596
" />
<path d="M136.4524 82.5501
L136.4048 82.5024
" />
<path d="M136.4048 82.5024
L136.3095 82.4548
" />
<path d="M136.3095 82.4548
L136.0714 82.4548
" />
<path d="M136.0714 82.4548
L135.9762 82.5024
" />
<path d="M135.9762 82.5024
L135.9286 82.5501
" />
<path d="M135.9286 82.5501
L135.8810 82.6453
" />
<path d="M135.8810 82.6453
L135.8810 82.7405
" />
<path d="M135.8810 82.7405
L135.9286 82.8834
" />
<path d="M135.9286 82.8834
L136.5000 83.4548
" />
<path d="M136.5000 83.4548
L135.8810 83.4548
" />
<path d="M134.9762 82.4548
L135.4524 82.4548
" />
<path d="M135.4524 82.4548
L135.5000 82.9310
" />
<path d="M135.5000 82.9310
L135.4524 82.8834
" />
<path d="M135.4524 82.8834
L135.3571 82.8358
" />
<path d="M135.3571 82.8358
L135.1190 82.8358
" />
<path d="M135.1190 82.8358
L135.0238 82.8834
" />
<path d="M135.0238 82.8834
L134.9762 82.9310
" />
<path d="M134.9762 82.9310
L134.9286 83.0262
" />
<path d="M134.9286 83.0262
L134.9286 83.2643
" />
<path d="M134.9286 83.2643
L134.9762 83.3596
" />
<path d="M134.9762 83.3596
L135.0238 83.4072
" />
<path d="M135.0238 83.4072
L135.1190 83.4548
" />
<path d="M135.1190 83.4548
L135.3571 83.4548
" />
<path d="M135.3571 83.4548
L135.4524 83.4072
" />
<path d="M135.4524 83.4072
L135.5000 83.3596
" />
<path d="M134.1667 82.9310
L134.0238 82.9786
" />
<path d="M134.0238 82.9786
L133.9762 83.0262
" />
<path d="M133.9762 83.0262
L133.9286 83.1215
" />
<path d="M133.9286 83.1215
L133.9286 83.2643
" />
<path d="M133.9286 83.2643
L133.9762 83.3596
" />
<path d="M133.9762 83.3596
L134.0238 83.4072
" />
<path d="M134.0238 83.4072
L134.1190 83.4548
" />
<path d="M134.1190 83.4548
L134.5000 83.4548
" />
<path d="M134.5000 83.4548
L134.5000 82.4548
" />
<path d="M134.5000 82.4548
L134.1667 82.4548
" />
<path d="M134.1667 82.4548
L134.0714 82.5024
" />
<path d="M134.0714 82.5024
L134.0238 82.5501
" />
<path d="M134.0238 82.5501
L133.9762 82.6453
" />
<path d="M133.9762 82.6453
L133.9762 82.7405
" />
<path d="M133.9762 82.7405
L134.0238 82.8358
" />
<path d="M134.0238 82.8358
L134.0714 82.8834
" />
<path d="M134.0714 82.8834
L134.1667 82.9310
" />
<path d="M134.1667 82.9310
L134.5000 82.9310
" />
<path d="M132.9286 83.3596
L132.9762 83.4072
" />
<path d="M132.9762 83.4072
L133.1190 83.4548
" />
<path d="M133.1190 83.4548
L133.2143 83.4548
" />
<path d="M133.2143 83.4548
L133.3571 83.4072
" />
<path d="M133.3571 83.4072
L133.4524 83.3120
" />
<path d="M133.4524 83.3120
L133.5000 83.2167
" />
<path d="M133.5000 83.2167
L133.5476 83.0262
" />
<path d="M133.5476 83.0262
L133.5476 82.8834
" />
<path d="M133.5476 82.8834
L133.5000 82.6929
" />
<path d="M133.5000 82.6929
L133.4524 82.5977
" />
<path d="M133.4524 82.5977
L133.3571 82.5024
" />
<path d="M133.3571 82.5024
L133.2143 82.4548
" />
<path d="M133.2143 82.4548
L133.1190 82.4548
" />
<path d="M133.1190 82.4548
L132.9762 82.5024
" />
<path d="M132.9762 82.5024
L132.9286 82.5501
" />
<path d="M132.5000 83.4548
L132.5000 82.4548
" />
<path d="M132.5000 82.4548
L132.1190 82.4548
" />
<path d="M132.1190 82.4548
L132.0238 82.5024
" />
<path d="M132.0238 82.5024
L131.9762 82.5501
" />
<path d="M131.9762 82.5501
L131.9286 82.6453
" />
<path d="M131.9286 82.6453
L131.9286 82.7882
" />
<path d="M131.9286 82.7882
L131.9762 82.8834
" />
<path d="M131.9762 82.8834
L132.0238 82.9310
" />
<path d="M132.0238 82.9310
L132.1190 82.9786
" />
<path d="M132.1190 82.9786
L132.5000 82.9786
" />
<path d="M131.5952 82.4548
L130.9286 82.4548
" />
<path d="M130.9286 82.4548
L131.5952 83.4548
" />
<path d="M131.5952 83.4548
L130.9286 83.4548
" />
</g><text x="137.5113" y="82.2000"
transform="scale(-1 1) translate(-275.022600 0)"
textLength="1.0119" font-size="1.3333" lengthAdjust="spacingAndGlyphs"
text-anchor="middle" opacity="0" stroke-opacity="0">*</text>
<g class="stroked-text"><desc>*</desc>
<path d="M137.5113 81.1548
L137.5113 81.3929
" />
<path d="M137.7494 81.2977
L137.5113 81.3929
" />
<path d="M137.5113 81.3929
L137.2732 81.2977
" />
<path d="M137.6542 81.5834
L137.5113 81.3929
" />
<path d="M137.5113 81.3929
L137.3684 81.5834
" />
</g><text x="136.0000" y="83.5000"
transform="scale(-1 1) translate(-272.000000 0)"
textLength="2.2500" font-size="1.3333" lengthAdjust="spacingAndGlyphs"
text-anchor="middle" opacity="0" stroke-opacity="0">U3</text>
<g class="stroked-text"><desc>U3</desc>
<path d="M136.7619 82.4548
L136.7619 83.2643
" />
<path d="M136.7619 83.2643
L136.7143 83.3596
" />
<path d="M136.7143 83.3596
L136.6667 83.4072
" />
<path d="M136.6667 83.4072
L136.5714 83.4548
" />
<path d="M136.5714 83.4548
L136.3810 83.4548
" />
<path d="M136.3810 83.4548
L136.2857 83.4072
" />
<path d="M136.2857 83.4072
L136.2381 83.3596
" />
<path d="M136.2381 83.3596
L136.1905 83.2643
" />
<path d="M136.1905 83.2643
L136.1905 82.4548
" />
<path d="M135.8095 82.4548
L135.1905 82.4548
" />
<path d="M135.1905 82.4548
L135.5238 82.8358
" />
<path d="M135.5238 82.8358
L135.3810 82.8358
" />
<path d="M135.3810 82.8358
L135.2857 82.8834
" />
<path d="M135.2857 82.8834
L135.2381 82.9310
" />
<path d="M135.2381 82.9310
L135.1905 83.0262
" />
<path d="M135.1905 83.0262
L135.1905 83.2643
" />
<path d="M135.1905 83.2643
L135.2381 83.3596
" />
<path d="M135.2381 83.3596
L135.2857 83.4072
" />
<path d="M135.2857 83.4072
L135.3810 83.4548
" />
<path d="M135.3810 83.4548
L135.6667 83.4548
" />
<path d="M135.6667 83.4548
L135.7619 83.4072
" />
<path d="M135.7619 83.4072
L135.8095 83.3596
" />
</g><text x="137.5113" y="82.2000"
transform="scale(-1 1) translate(-275.022600 0)"
textLength="1.0119" font-size="1.3333" lengthAdjust="spacingAndGlyphs"
text-anchor="middle" opacity="0" stroke-opacity="0">*</text>
<g class="stroked-text"><desc>*</desc>
<path d="M137.5113 81.1548
L137.5113 81.3929
" />
<path d="M137.7494 81.2977
L137.5113 81.3929
" />
<path d="M137.5113 81.3929
L137.2732 81.2977
" />
<path d="M137.6542 81.5834
L137.5113 81.3929
" />
<path d="M137.5113 81.3929
L137.3684 81.5834
" />
</g><text x="135.7902" y="75.5000"
transform="scale(-1 1) translate(-271.580400 0)"
textLength="10.8214" font-size="1.3333" lengthAdjust="spacingAndGlyphs"
text-anchor="middle" opacity="0" stroke-opacity="0">VEMD5060X01</text>
<g class="stroked-text"><desc>VEMD5060X01</desc>
<path d="M140.9807 74.4548
L140.6473 75.4548
" />
<path d="M140.6473 75.4548
L140.3140 74.4548
" />
<path d="M139.9807 74.9310
L139.6473 74.9310
" />
<path d="M139.5045 75.4548
L139.9807 75.4548
" />
<path d="M139.9807 75.4548
L139.9807 74.4548
" />
<path d="M139.9807 74.4548
L139.5045 74.4548
" />
<path d="M139.0759 75.4548
L139.0759 74.4548
" />
<path d="M139.0759 74.4548
L138.7426 75.1691
" />
<path d="M138.7426 75.1691
L138.4092 74.4548
" />
<path d="M138.4092 74.4548
L138.4092 75.4548
" />
<path d="M137.9331 75.4548
L137.9331 74.4548
" />
<path d="M137.9331 74.4548
L137.6950 74.4548
" />
<path d="M137.6950 74.4548
L137.5521 74.5024
" />
<path d="M137.5521 74.5024
L137.4569 74.5977
" />
<path d="M137.4569 74.5977
L137.4092 74.6929
" />
<path d="M137.4092 74.6929
L137.3616 74.8834
" />
<path d="M137.3616 74.8834
L137.3616 75.0262
" />
<path d="M137.3616 75.0262
L137.4092 75.2167
" />
<path d="M137.4092 75.2167
L137.4569 75.3120
" />
<path d="M137.4569 75.3120
L137.5521 75.4072
" />
<path d="M137.5521 75.4072
L137.6950 75.4548
" />
<path d="M137.6950 75.4548
L137.9331 75.4548
" />
<path d="M136.4569 74.4548
L136.9331 74.4548
" />
<path d="M136.9331 74.4548
L136.9807 74.9310
" />
<path d="M136.9807 74.9310
L136.9331 74.8834
" />
<path d="M136.9331 74.8834
L136.8378 74.8358
" />
<path d="M136.8378 74.8358
L136.5997 74.8358
" />
<path d="M136.5997 74.8358
L136.5045 74.8834
" />
<path d="M136.5045 74.8834
L136.4569 74.9310
" />
<path d="M136.4569 74.9310
L136.4092 75.0262
" />
<path d="M136.4092 75.0262
L136.4092 75.2643
" />
<path d="M136.4092 75.2643
L136.4569 75.3596
" />
<path d="M136.4569 75.3596
L136.5045 75.4072
" />
<path d="M136.5045 75.4072
L136.5997 75.4548
" />
<path d="M136.5997 75.4548
L136.8378 75.4548
" />
<path d="M136.8378 75.4548
L136.9331 75.4072
" />
<path d="M136.9331 75.4072
L136.9807 75.3596
" />
<path d="M135.7902 74.4548
L135.6950 74.4548
" />
<path d="M135.6950 74.4548
L135.5997 74.5024
" />
<path d="M135.5997 74.5024
L135.5521 74.5501
" />
<path d="M135.5521 74.5501
L135.5045 74.6453
" />
<path d="M135.5045 74.6453
L135.4569 74.8358
" />
<path d="M135.4569 74.8358
L135.4569 75.0739
" />
<path d="M135.4569 75.0739
L135.5045 75.2643
" />
<path d="M135.5045 75.2643
L135.5521 75.3596
" />
<path d="M135.5521 75.3596
L135.5997 75.4072
" />
<path d="M135.5997 75.4072
L135.6950 75.4548
" />
<path d="M135.6950 75.4548
L135.7902 75.4548
" />
<path d="M135.7902 75.4548
L135.8854 75.4072
" />
<path d="M135.8854 75.4072
L135.9331 75.3596
" />
<path d="M135.9331 75.3596
L135.9807 75.2643
" />
<path d="M135.9807 75.2643
L136.0283 75.0739
" />
<path d="M136.0283 75.0739
L136.0283 74.8358
" />
<path d="M136.0283 74.8358
L135.9807 74.6453
" />
<path d="M135.9807 74.6453
L135.9331 74.5501
" />
<path d="M135.9331 74.5501
L135.8854 74.5024
" />
<path d="M135.8854 74.5024
L135.7902 74.4548
" />
<path d="M134.5997 74.4548
L134.7902 74.4548
" />
<path d="M134.7902 74.4548
L134.8854 74.5024
" />
<path d="M134.8854 74.5024
L134.9331 74.5501
" />
<path d="M134.9331 74.5501
L135.0283 74.6929
" />
<path d="M135.0283 74.6929
L135.0759 74.8834
" />
<path d="M135.0759 74.8834
L135.0759 75.2643
" />
<path d="M135.0759 75.2643
L135.0283 75.3596
" />
<path d="M135.0283 75.3596
L134.9807 75.4072
" />
<path d="M134.9807 75.4072
L134.8854 75.4548
" />
<path d="M134.8854 75.4548
L134.6950 75.4548
" />
<path d="M134.6950 75.4548
L134.5997 75.4072
" />
<path d="M134.5997 75.4072
L134.5521 75.3596
" />
<path d="M134.5521 75.3596
L134.5045 75.2643
" />
<path d="M134.5045 75.2643
L134.5045 75.0262
" />
<path d="M134.5045 75.0262
L134.5521 74.9310
" />
<path d="M134.5521 74.9310
L134.5997 74.8834
" />
<path d="M134.5997 74.8834
L134.6950 74.8358
" />
<path d="M134.6950 74.8358
L134.8854 74.8358
" />
<path d="M134.8854 74.8358
L134.9807 74.8834
" />
<path d="M134.9807 74.8834
L135.0283 74.9310
" />
<path d="M135.0283 74.9310
L135.0759 75.0262
" />
<path d="M133.8854 74.4548
L133.7902 74.4548
" />
<path d="M133.7902 74.4548
L133.6950 74.5024
" />
<path d="M133.6950 74.5024
L133.6473 74.5501
" />
<path d="M133.6473 74.5501
L133.5997 74.6453
" />
<path d="M133.5997 74.6453
L133.5521 74.8358
" />
<path d="M133.5521 74.8358
L133.5521 75.0739
" />
<path d="M133.5521 75.0739
L133.5997 75.2643
" />
<path d="M133.5997 75.2643
L133.6473 75.3596
" />
<path d="M133.6473 75.3596
L133.6950 75.4072
" />
<path d="M133.6950 75.4072
L133.7902 75.4548
" />
<path d="M133.7902 75.4548
L133.8854 75.4548
" />
<path d="M133.8854 75.4548
L133.9807 75.4072
" />
<path d="M133.9807 75.4072
L134.0283 75.3596
" />
<path d="M134.0283 75.3596
L134.0759 75.2643
" />
<path d="M134.0759 75.2643
L134.1235 75.0739
" />
<path d="M134.1235 75.0739
L134.1235 74.8358
" />
<path d="M134.1235 74.8358
L134.0759 74.6453
" />
<path d="M134.0759 74.6453
L134.0283 74.5501
" />
<path d="M134.0283 74.5501
L133.9807 74.5024
" />
<path d="M133.9807 74.5024
L133.8854 74.4548
" />
<path d="M133.2188 74.4548
L132.5521 75.4548
" />
<path d="M132.5521 74.4548
L133.2188 75.4548
" />
<path d="M131.9807 74.4548
L131.8854 74.4548
" />
<path d="M131.8854 74.4548
L131.7902 74.5024
" />
<path d="M131.7902 74.5024
L131.7426 74.5501
" />
<path d="M131.7426 74.5501
L131.6950 74.6453
" />
<path d="M131.6950 74.6453
L131.6473 74.8358
" />
<path d="M131.6473 74.8358
L131.6473 75.0739
" />
<path d="M131.6473 75.0739
L131.6950 75.2643
" />
<path d="M131.6950 75.2643
L131.7426 75.3596
" />
<path d="M131.7426 75.3596
L131.7902 75.4072
" />
<path d="M131.7902 75.4072
L131.8854 75.4548
" />
<path d="M131.8854 75.4548
L131.9807 75.4548
" />
<path d="M131.9807 75.4548
L132.0759 75.4072
" />
<path d="M132.0759 75.4072
L132.1235 75.3596
" />
<path d="M132.1235 75.3596
L132.1712 75.2643
" />
<path d="M132.1712 75.2643
L132.2188 75.0739
" />
<path d="M132.2188 75.0739
L132.2188 74.8358
" />
<path d="M132.2188 74.8358
L132.1712 74.6453
" />
<path d="M132.1712 74.6453
L132.1235 74.5501
" />
<path d="M132.1235 74.5501
L132.0759 74.5024
" />
<path d="M132.0759 74.5024
L131.9807 74.4548
" />
<path d="M130.6950 75.4548
L131.2664 75.4548
" />
<path d="M130.9807 75.4548
L130.9807 74.4548
" />
<path d="M130.9807 74.4548
L131.0759 74.5977
" />
<path d="M131.0759 74.5977
L131.1712 74.6929
" />
<path d="M131.1712 74.6929
L131.2664 74.7405
" />
</g><text x="135.7902" y="75.5000"
transform="scale(-1 1) translate(-271.580400 0)"
textLength="2.2500" font-size="1.3333" lengthAdjust="spacingAndGlyphs"
text-anchor="middle" opacity="0" stroke-opacity="0">U2</text>
<g class="stroked-text"><desc>U2</desc>
<path d="M136.5521 74.4548
L136.5521 75.2643
" />
<path d="M136.5521 75.2643
L136.5045 75.3596
" />
<path d="M136.5045 75.3596
L136.4569 75.4072
" />
<path d="M136.4569 75.4072
L136.3616 75.4548
" />
<path d="M136.3616 75.4548
L136.1712 75.4548
" />
<path d="M136.1712 75.4548
L136.0759 75.4072
" />
<path d="M136.0759 75.4072
L136.0283 75.3596
" />
<path d="M136.0283 75.3596
L135.9807 75.2643
" />
<path d="M135.9807 75.2643
L135.9807 74.4548
" />
<path d="M135.5521 74.5501
L135.5045 74.5024
" />
<path d="M135.5045 74.5024
L135.4092 74.4548
" />
<path d="M135.4092 74.4548
L135.1712 74.4548
" />
<path d="M135.1712 74.4548
L135.0759 74.5024
" />
<path d="M135.0759 74.5024
L135.0283 74.5501
" />
<path d="M135.0283 74.5501
L134.9807 74.6453
" />
<path d="M134.9807 74.6453
L134.9807 74.7405
" />
<path d="M134.9807 74.7405
L135.0283 74.8834
" />
<path d="M135.0283 74.8834
L135.5997 75.4548
" />
<path d="M135.5997 75.4548
L134.9807 75.4548
" />
</g></g>
<g style="fill:#000000; fill-opacity:1.0000; stroke:none;">
<circle cx="133.9299" cy="80.9299" r="0.0127" /> 
</g>
<g style="fill:none; 
stroke:#000000; stroke-width:0.0254; stroke-opacity:1; 
stroke-linecap:round; stroke-linejoin:round;">
<path d="M133.9299 80.9299
L133.9299 85.0701
" />
</g>
<g style="fill:#000000; fill-opacity:1.0000; stroke:none;">
<circle cx="133.9299" cy="81.8472" r="0.0127" /> 
</g>
<g style="fill:none; 
stroke:#000000; stroke-width:0.0254; stroke-opacity:1; 
stroke-linecap:round; stroke-linejoin:round;">
<path d="M133.9299 81.8472
L133.9299 82.2028
" />
<path d="M133.9299 82.2028
L133.9299 81.8472
" />
</g>
<g style="fill:#000000; fill-opacity:1.0000; stroke:none;">
<circle cx="133.9299" cy="82.2028" r="0.0127" /> 
<circle cx="133.9299" cy="82.4972" r="0.0127" /> 
</g>
<g style="fill:none; 
stroke:#000000; stroke-width:0.0254; stroke-opacity:1; 
stroke-linecap:round; stroke-linejoin:round;">
<path d="M133.9299 82.4972
L133.9299 82.8528
" />
<path d="M133.9299 82.8528
L133.9299 82.4972
" />
</g>
<g style="fill:#000000; fill-opacity:1.0000; stroke:none;">
<circle cx="133.9299" cy="82.8528" r="0.0127" /> 
<circle cx="133.9299" cy="83.1472" r="0.0127" /> 
</g>
<g style="fill:none; 
stroke:#000000; stroke-width:0.0254; stroke-opacity:1; 
stroke-linecap:round; stroke-linejoin:round;">
<path d="M133.9299 83.1472
L133.9299 83.5028
" />
<path d="M133.9299 83.5028
L133.9299 83.1472
" />
</g>
<g style="fill:#000000; fill-opacity:1.0000; stroke:none;">
<circle cx="133.9299" cy="83.5028" r="0.0127" /> 
<circle cx="133.9299" cy="83.7972" r="0.0127" /> 
</g>
<g style="fill:none; 
stroke:#000000; stroke-width:0.0254; stroke-opacity:1; 
stroke-linecap:round; stroke-linejoin:round;">
<path d="M133.9299 83.7972
L133.9299 84.1528
" />
<path d="M133.9299 84.1528
L133.9299 83.7972
" />
</g>
<g style="fill:#000000; fill-opacity:1.0000; stroke:none;">
<circle cx="133.9299" cy="84.1528" r="0.0127" /> 
<circle cx="133.9299" cy="85.0701" r="0.0127" /> 
</g>
<g style="fill:none; 
stroke:#000000; stroke-width:0.0254; stroke-opacity:1; 
stroke-linecap:round; stroke-linejoin:round;">
<path d="M133.9299 85.0701
L138.0701 85.0701
" />
</g>
<g style="fill:#000000; fill-opacity:1.0000; stroke:none;">
<circle cx="134.8472" cy="80.9299" r="0.0127" /> 
</g>
<g style="fill:none; 
stroke:#000000; stroke-width:0.0254; stroke-opacity:1; 
stroke-linecap:round; stroke-linejoin:round;">
<path d="M134.8472 80.9299
L135.2028 80.9299
" />
</g>
<g style="fill:#000000; fill-opacity:1.0000; stroke:none;">
<circle cx="134.8472" cy="85.0701" r="0.0127" /> 
</g>
<g style="fill:none; 
stroke:#000000; stroke-width:0.0254; stroke-opacity:1; 
stroke-linecap:round; stroke-linejoin:round;">
<path d="M134.8472 85.0701
L135.2028 85.0701
" />
<path d="M135.2028 80.9299
L134.8472 80.9299
" />
</g>
<g style="fill:#000000; fill-opacity:1.0000; stroke:none;">
<circle cx="135.2028" cy="80.9299" r="0.0127" /> 
</g>
<g style="fill:none; 
stroke:#000000; stroke-width:0.0254; stroke-opacity:1; 
stroke-linecap:round; stroke-linejoin:round;">
<path d="M135.2028 85.0701
L134.8472 85.0701
" />
</g>
<g style="fill:#000000; fill-opacity:1.0000; stroke:none;">
<circle cx="135.2028" cy="85.0701" r="0.0127" /> 
<circle cx="135.4972" cy="80.9299" r="0.0127" /> 
</g>
<g style="fill:none; 
stroke:#000000; stroke-width:0.0254; stroke-opacity:1; 
stroke-linecap:round; stroke-linejoin:round;">
<path d="M135.4972 80.9299
L135.8528 80.9299
" />
</g>
<g style="fill:#000000; fill-opacity:1.0000; stroke:none;">
<circle cx="135.4972" cy="85.0701" r="0.0127" /> 
</g>
<g style="fill:none; 
stroke:#000000; stroke-width:0.0254; stroke-opacity:1; 
stroke-linecap:round; stroke-linejoin:round;">
<path d="M135.4972 85.0701
L135.8528 85.0701
" />
<path d="M135.8528 80.9299
L135.4972 80.9299
" />
</g>
<g style="fill:#000000; fill-opacity:1.0000; stroke:none;">
<circle cx="135.8528" cy="80.9299" r="0.0127" /> 
</g>
<g style="fill:none; 
stroke:#000000; stroke-width:0.0254; stroke-opacity:1; 
stroke-linecap:round; stroke-linejoin:round;">
<path d="M135.8528 85.0701
L135.4972 85.0701
" />
</g>
<g style="fill:#000000; fill-opacity:1.0000; stroke:none;">
<circle cx="135.8528" cy="85.0701" r="0.0127" /> 
<circle cx="136.1472" cy="80.9299" r="0.0127" /> 
</g>
<g style="fill:none; 
stroke:#000000; stroke-width:0.0254; stroke-opacity:1; 
stroke-linecap:round; stroke-linejoin:round;">
<path d="M136.1472 80.9299
L136.5028 80.9299
" />
</g>
<g style="fill:#000000; fill-opacity:1.0000; stroke:none;">
<circle cx="136.1472" cy="85.0701" r="0.0127" /> 
</g>
<g style="fill:none; 
stroke:#000000; stroke-width:0.0254; stroke-opacity:1; 
stroke-linecap:round; stroke-linejoin:round;">
<path d="M136.1472 85.0701
L136.5028 85.0701
" />
<path d="M136.5028 80.9299
L136.1472 80.9299
" />
</g>
<g style="fill:#000000; fill-opacity:1.0000; stroke:none;">
<circle cx="136.5028" cy="80.9299" r="0.0127" /> 
</g>
<g style="fill:none; 
stroke:#000000; stroke-width:0.0254; stroke-opacity:1; 
stroke-linecap:round; stroke-linejoin:round;">
<path d="M136.5028 85.0701
L136.1472 85.0701
" />
</g>
<g style="fill:#000000; fill-opacity:1.0000; stroke:none;">
<circle cx="136.5028" cy="85.0701" r="0.0127" /> 
<circle cx="136.7972" cy="80.9299" r="0.0127" /> 
</g>
<g style="fill:none; 
stroke:#000000; stroke-width:0.0254; stroke-opacity:1; 
stroke-linecap:round; stroke-linejoin:round;">
<path d="M136.7972 80.9299
L137.1528 80.9299
" />
</g>
<g style="fill:#000000; fill-opacity:1.0000; stroke:none;">
<circle cx="136.7972" cy="85.0701" r="0.0127" /> 
</g>
<g style="fill:none; 
stroke:#000000; stroke-width:0.0254; stroke-opacity:1; 
stroke-linecap:round; stroke-linejoin:round;">
<path d="M136.7972 85.0701
L137.1528 85.0701
" />
<path d="M136.8001 80.9299
L138.0701 82.1999
" />
<path d="M137.1528 80.9299
L136.7972 80.9299
" />
</g>
<g style="fill:#000000; fill-opacity:1.0000; stroke:none;">
<circle cx="137.1528" cy="80.9299" r="0.0127" /> 
</g>
<g style="fill:none; 
stroke:#000000; stroke-width:0.0254; stroke-opacity:1; 
stroke-linecap:round; stroke-linejoin:round;">
<path d="M137.1528 85.0701
L136.7972 85.0701
" />
</g>
<g style="fill:#000000; fill-opacity:1.0000; stroke:none;">
<circle cx="137.1528" cy="85.0701" r="0.0127" /> 
</g>
<g style="fill:none; 
stroke:#000000; stroke-width:0.0254; stroke-opacity:1; 
stroke-linecap:round; stroke-linejoin:round;">
<path d="M138.0701 80.9299
L133.9299 80.9299
" />
</g>
<g style="fill:#000000; fill-opacity:1.0000; stroke:none;">
<circle cx="138.0701" cy="80.9299" r="0.0127" /> 
<circle cx="138.0701" cy="81.8472" r="0.0127" /> 
</g>
<g style="fill:none; 
stroke:#000000; stroke-width:0.0254; stroke-opacity:1; 
stroke-linecap:round; stroke-linejoin:round;">
<path d="M138.0701 81.8472
L138.0701 82.2028
" />
<path d="M138.0701 82.2028
L138.0701 81.8472
" />
</g>
<g style="fill:#000000; fill-opacity:1.0000; stroke:none;">
<circle cx="138.0701" cy="82.2028" r="0.0127" /> 
<circle cx="138.0701" cy="82.4972" r="0.0127" /> 
</g>
<g style="fill:none; 
stroke:#000000; stroke-width:0.0254; stroke-opacity:1; 
stroke-linecap:round; stroke-linejoin:round;">
<path d="M138.0701 82.4972
L138.0701 82.8528
" />
<path d="M138.0701 82.8528
L138.0701 82.4972
" />
</g>
<g style="fill:#000000; fill-opacity:1.0000; stroke:none;">
<circle cx="138.0701" cy="82.8528" r="0.0127" /> 
<circle cx="138.0701" cy="83.1472" r="0.0127" /> 
</g>
<g style="fill:none; 
stroke:#000000; stroke-width:0.0254; stroke-opacity:1; 
stroke-linecap:round; stroke-linejoin:round;">
<path d="M138.0701 83.1472
L138.0701 83.5028
" />
<path d="M138.0701 83.5028
L138.0701 83.1472
" />
</g>
<g style="fill:#000000; fill-opacity:1.0000; stroke:none;">
<circle cx="138.0701" cy="83.5028" r="0.0127" /> 
<circle cx="138.0701" cy="83.7972" r="0.0127" /> 
</g>
<g style="fill:none; 
stroke:#000000; stroke-width:0.0254; stroke-opacity:1; 
stroke-linecap:round; stroke-linejoin:round;">
<path d="M138.0701 83.7972
L138.0701 84.1528
" />
<path d="M138.0701 84.1528
L138.0701 83.7972
" />
</g>
<g style="fill:#000000; fill-opacity:1.0000; stroke:none;">
<circle cx="138.0701" cy="84.1528" r="0.0127" /> 
</g>
<g style="fill:none; 
stroke:#000000; stroke-width:0.0254; stroke-opacity:1; 
stroke-linecap:round; stroke-linejoin:round;">
<path d="M138.0701 85.0701
L138.0701 80.9299
" />
</g>
<g style="fill:#000000; fill-opacity:1.0000; stroke:none;">
<circle cx="138.0701" cy="85.0701" r="0.0127" /> 
</g>
<g style="fill:none; 
stroke:#000000; stroke-width:0.0254; stroke-opacity:1; 
stroke-linecap:round; stroke-linejoin:round;">
<path d="M133.2883 73.0061
L133.2883 76.9939
" />
<path d="M133.2883 76.9939
L138.2921 76.9939
" />
<path d="M138.2921 73.0061
L133.2883 73.0061
" />
<path d="M138.2921 76.9939
L138.2921 73.0061
" />
<path d="M135.4854 73.0061 A0.3048 0.3048 0.0 0 0 136.0950 73.0061" />
<circle cx="137.4031" cy="74.0000" r="0.0762" /> 
</g>
<g style="fill:none; 
stroke:#000000; stroke-width:0.0500; stroke-opacity:1; 
stroke-linecap:round; stroke-linejoin:round;">
<circle cx="136.0451" cy="79.5000" r="7.4549" /> 
</g> 
</svg>
