<?xml version="1.0" standalone="no"?>
 <!DOCTYPE svg PUBLIC "-//W3C//DTD SVG 1.1//EN" 
 "http://www.w3.org/Graphics/SVG/1.1/DTD/svg11.dtd"> 
<svg
  xmlns:svg="http://www.w3.org/2000/svg"
  xmlns="http://www.w3.org/2000/svg"
  xmlns:xlink="http://www.w3.org/1999/xlink"
  version="1.1"
  width="297.0022mm" height="210.0072mm" viewBox="0.0000 0.0000 297.0022 210.0072">
<title>SVG Image created as DetectorAcc-F_Cu.svg date 2025/07/30 11:31:17 </title>
  <desc>Image generated by PCBNEW </desc>
<g style="fill:#000000; fill-opacity:1.0000;stroke:#000000; stroke-opacity:1.0000;
stroke-linecap:round; stroke-linejoin:round;"
 transform="translate(0 0) scale(1 1)">
</g>
<g style="fill:none; 
stroke:#000000; stroke-width:0.0500; stroke-opacity:1; 
stroke-linecap:round; stroke-linejoin:round;">
<circle cx="136.0451" cy="79.5000" r="7.4549" /> 
</g>
<g style="fill:#000000; fill-opacity:1.0000; stroke:none;">
<circle cx="142.2500" cy="77.6875" r="0.2500" /> 
</g>
<g style="fill:#000000; fill-opacity:1.0000; stroke:none;">
<circle cx="142.2500" cy="78.6875" r="0.2500" /> 
</g>
<g style="fill:#000000; fill-opacity:1.0000; stroke:none;">
<circle cx="142.2500" cy="79.6875" r="0.2500" /> 
</g>
<g style="fill:#000000; fill-opacity:1.0000; stroke:none;">
<circle cx="142.2500" cy="80.6875" r="0.2500" /> 
</g>
<g style="fill:#000000; fill-opacity:1.0000; stroke:none;">
<circle cx="129.7500" cy="78.1875" r="0.2500" /> 
</g>
<g style="fill:#000000; fill-opacity:1.0000; stroke:none;">
<circle cx="129.7500" cy="79.1875" r="0.2500" /> 
</g>
<g style="fill:#000000; fill-opacity:1.0000; stroke:none;">
<circle cx="129.7500" cy="80.1875" r="0.2500" /> 
<path style="fill:#000000; fill-opacity:1.0000; stroke:none;fill-rule:evenodd;"
d="M 132.9875,78.1000
133.0784,78.1181
133.1554,78.1696
133.2069,78.2466
133.2250,78.3375
133.2250,78.9375
133.2069,79.0284
133.1554,79.1054
133.0784,79.1569
132.9875,79.1750
132.5125,79.1750
132.4216,79.1569
132.3446,79.1054
132.2931,79.0284
132.2750,78.9375
132.2750,78.3375
132.2931,78.2466
132.3446,78.1696
132.4216,78.1181
132.5125,78.1000
Z" /> 
<path style="fill:#000000; fill-opacity:1.0000; stroke:none;fill-rule:evenodd;"
d="M 132.9875,79.8250
133.0784,79.8431
133.1554,79.8946
133.2069,79.9716
133.2250,80.0625
133.2250,80.6625
133.2069,80.7534
133.1554,80.8304
133.0784,80.8819
132.9875,80.9000
132.5125,80.9000
132.4216,80.8819
132.3446,80.8304
132.2931,80.7534
132.2750,80.6625
132.2750,80.0625
132.2931,79.9716
132.3446,79.8946
132.4216,79.8431
132.5125,79.8250
Z" /> 
<path style="fill:#000000; fill-opacity:1.0000; stroke:none;fill-rule:evenodd;"
d="M 133.1500,82.7375
133.1319,82.8284
133.0804,82.9054
133.0034,82.9569
132.9125,82.9750
132.3125,82.9750
132.2216,82.9569
132.1446,82.9054
132.0931,82.8284
132.0750,82.7375
132.0750,82.2625
132.0931,82.1716
132.1446,82.0946
132.2216,82.0431
132.3125,82.0250
132.9125,82.0250
133.0034,82.0431
133.0804,82.0946
133.1319,82.1716
133.1500,82.2625
Z" /> 
<path style="fill:#000000; fill-opacity:1.0000; stroke:none;fill-rule:evenodd;"
d="M 131.4250,82.7375
131.4069,82.8284
131.3554,82.9054
131.2784,82.9569
131.1875,82.9750
130.5875,82.9750
130.4966,82.9569
130.4196,82.9054
130.3681,82.8284
130.3500,82.7375
130.3500,82.2625
130.3681,82.1716
130.4196,82.0946
130.4966,82.0431
130.5875,82.0250
131.1875,82.0250
131.2784,82.0431
131.3554,82.0946
131.4069,82.1716
131.4250,82.2625
Z" /> 
<path style="fill:#000000; fill-opacity:1.0000; stroke:none;fill-rule:evenodd;"
d="M 141.8250,78.1125
141.8250,77.2625
142.6750,77.2625
142.6750,78.1125
Z" /> 
</g>
<g style="fill:#000000; fill-opacity:1.0000; stroke:none;">
<circle cx="142.2500" cy="78.6875" r="0.4250" /> 
<circle cx="142.2500" cy="79.6875" r="0.4250" /> 
<circle cx="142.2500" cy="80.6875" r="0.4250" /> 
<path style="fill:#000000; fill-opacity:1.0000; stroke:none;fill-rule:evenodd;"
d="M 136.1000,81.7625
136.1181,81.6716
136.1696,81.5946
136.2466,81.5431
136.3375,81.5250
136.8375,81.5250
136.9284,81.5431
137.0054,81.5946
137.0569,81.6716
137.0750,81.7625
137.0750,82.2375
137.0569,82.3284
137.0054,82.4054
136.9284,82.4569
136.8375,82.4750
136.3375,82.4750
136.2466,82.4569
136.1696,82.4054
136.1181,82.3284
136.1000,82.2375
Z" /> 
<path style="fill:#000000; fill-opacity:1.0000; stroke:none;fill-rule:evenodd;"
d="M 137.9250,81.7625
137.9431,81.6716
137.9946,81.5946
138.0716,81.5431
138.1625,81.5250
138.6625,81.5250
138.7534,81.5431
138.8304,81.5946
138.8819,81.6716
138.9000,81.7625
138.9000,82.2375
138.8819,82.3284
138.8304,82.4054
138.7534,82.4569
138.6625,82.4750
138.1625,82.4750
138.0716,82.4569
137.9946,82.4054
137.9431,82.3284
137.9250,82.2375
Z" /> 
<path style="fill:#000000; fill-opacity:1.0000; stroke:none;fill-rule:evenodd;"
d="M 140.0125,84.1500
139.9216,84.1319
139.8446,84.0804
139.7931,84.0034
139.7750,83.9125
139.7750,83.4125
139.7931,83.3216
139.8446,83.2446
139.9216,83.1931
140.0125,83.1750
140.4875,83.1750
140.5784,83.1931
140.6554,83.2446
140.7069,83.3216
140.7250,83.4125
140.7250,83.9125
140.7069,84.0034
140.6554,84.0804
140.5784,84.1319
140.4875,84.1500
Z" /> 
<path style="fill:#000000; fill-opacity:1.0000; stroke:none;fill-rule:evenodd;"
d="M 140.0125,82.3250
139.9216,82.3069
139.8446,82.2554
139.7931,82.1784
139.7750,82.0875
139.7750,81.5875
139.7931,81.4966
139.8446,81.4196
139.9216,81.3681
140.0125,81.3500
140.4875,81.3500
140.5784,81.3681
140.6554,81.4196
140.7069,81.4966
140.7250,81.5875
140.7250,82.0875
140.7069,82.1784
140.6554,82.2554
140.5784,82.3069
140.4875,82.3250
Z" /> 
<path style="fill:#000000; fill-opacity:1.0000; stroke:none;fill-rule:evenodd;"
d="M 134.6200,77.8875
134.6324,77.8253
134.6676,77.7726
134.7203,77.7374
134.7825,77.7250
136.0175,77.7250
136.0797,77.7374
136.1324,77.7726
136.1676,77.8253
136.1800,77.8875
136.1800,78.2125
136.1676,78.2747
136.1324,78.3274
136.0797,78.3626
136.0175,78.3750
134.7825,78.3750
134.7203,78.3626
134.6676,78.3274
134.6324,78.2747
134.6200,78.2125
Z" /> 
<path style="fill:#000000; fill-opacity:1.0000; stroke:none;fill-rule:evenodd;"
d="M 134.6200,78.8375
134.6324,78.7753
134.6676,78.7226
134.7203,78.6874
134.7825,78.6750
136.0175,78.6750
136.0797,78.6874
136.1324,78.7226
136.1676,78.7753
136.1800,78.8375
136.1800,79.1625
136.1676,79.2247
136.1324,79.2774
136.0797,79.3126
136.0175,79.3250
134.7825,79.3250
134.7203,79.3126
134.6676,79.2774
134.6324,79.2247
134.6200,79.1625
Z" /> 
<path style="fill:#000000; fill-opacity:1.0000; stroke:none;fill-rule:evenodd;"
d="M 134.6200,79.7875
134.6324,79.7253
134.6676,79.6726
134.7203,79.6374
134.7825,79.6250
136.0175,79.6250
136.0797,79.6374
136.1324,79.6726
136.1676,79.7253
136.1800,79.7875
136.1800,80.1125
136.1676,80.1747
136.1324,80.2274
136.0797,80.2626
136.0175,80.2750
134.7825,80.2750
134.7203,80.2626
134.6676,80.2274
134.6324,80.1747
134.6200,80.1125
Z" /> 
<path style="fill:#000000; fill-opacity:1.0000; stroke:none;fill-rule:evenodd;"
d="M 137.3200,79.7875
137.3324,79.7253
137.3676,79.6726
137.4203,79.6374
137.4825,79.6250
138.7175,79.6250
138.7797,79.6374
138.8324,79.6726
138.8676,79.7253
138.8800,79.7875
138.8800,80.1125
138.8676,80.1747
138.8324,80.2274
138.7797,80.2626
138.7175,80.2750
137.4825,80.2750
137.4203,80.2626
137.3676,80.2274
137.3324,80.1747
137.3200,80.1125
Z" /> 
<path style="fill:#000000; fill-opacity:1.0000; stroke:none;fill-rule:evenodd;"
d="M 137.3200,77.8875
137.3324,77.8253
137.3676,77.7726
137.4203,77.7374
137.4825,77.7250
138.7175,77.7250
138.7797,77.7374
138.8324,77.7726
138.8676,77.8253
138.8800,77.8875
138.8800,78.2125
138.8676,78.2747
138.8324,78.3274
138.7797,78.3626
138.7175,78.3750
137.4825,78.3750
137.4203,78.3626
137.3676,78.3274
137.3324,78.2747
137.3200,78.2125
Z" /> 
<circle cx="129.7500" cy="78.1875" r="0.4250" /> 
</g>
<g style="fill:#000000; fill-opacity:1.0000; stroke:none;">
<circle cx="129.7500" cy="79.1875" r="0.4250" /> 
<circle cx="129.7500" cy="80.1875" r="0.4250" /> 
<path style="fill:#000000; fill-opacity:1.0000; stroke:none;fill-rule:evenodd;"
d="M 140.4875,77.9188
140.5784,77.9368
140.6554,77.9883
140.7069,78.0654
140.7250,78.1562
140.7250,78.7562
140.7069,78.8471
140.6554,78.9242
140.5784,78.9757
140.4875,78.9937
140.0125,78.9937
139.9216,78.9757
139.8446,78.9242
139.7931,78.8471
139.7750,78.7562
139.7750,78.1562
139.7931,78.0654
139.8446,77.9883
139.9216,77.9368
140.0125,77.9188
Z" /> 
<path style="fill:#000000; fill-opacity:1.0000; stroke:none;fill-rule:evenodd;"
d="M 140.4875,79.6437
140.5784,79.6618
140.6554,79.7133
140.7069,79.7904
140.7250,79.8812
140.7250,80.4813
140.7069,80.5721
140.6554,80.6492
140.5784,80.7007
140.4875,80.7188
140.0125,80.7188
139.9216,80.7007
139.8446,80.6492
139.7931,80.5721
139.7750,80.4813
139.7750,79.8812
139.7931,79.7904
139.8446,79.7133
139.9216,79.6618
140.0125,79.6437
Z" /> 
<path style="fill:#000000; fill-opacity:1.0000; stroke:none;fill-rule:evenodd;"
d="M 140.0125,77.2875
139.9216,77.2694
139.8446,77.2179
139.7931,77.1409
139.7750,77.0500
139.7750,76.4500
139.7931,76.3591
139.8446,76.2821
139.9216,76.2306
140.0125,76.2125
140.4875,76.2125
140.5784,76.2306
140.6554,76.2821
140.7069,76.3591
140.7250,76.4500
140.7250,77.0500
140.7069,77.1409
140.6554,77.2179
140.5784,77.2694
140.4875,77.2875
Z" /> 
<path style="fill:#000000; fill-opacity:1.0000; stroke:none;fill-rule:evenodd;"
d="M 140.0125,75.5625
139.9216,75.5444
139.8446,75.4929
139.7931,75.4159
139.7750,75.3250
139.7750,74.7250
139.7931,74.6341
139.8446,74.5571
139.9216,74.5056
140.0125,74.4875
140.4875,74.4875
140.5784,74.5056
140.6554,74.5571
140.7069,74.6341
140.7250,74.7250
140.7250,75.3250
140.7069,75.4159
140.6554,75.4929
140.5784,75.5444
140.4875,75.5625
Z" /> 
<path style="fill:#000000; fill-opacity:1.0000; stroke:none;fill-rule:evenodd;"
d="M 134.6500,84.4875
134.6319,84.5784
134.5804,84.6554
134.5034,84.7069
134.4125,84.7250
133.8125,84.7250
133.7216,84.7069
133.6446,84.6554
133.5931,84.5784
133.5750,84.4875
133.5750,84.0125
133.5931,83.9216
133.6446,83.8446
133.7216,83.7931
133.8125,83.7750
134.4125,83.7750
134.5034,83.7931
134.5804,83.8446
134.6319,83.9216
134.6500,84.0125
Z" /> 
<path style="fill:#000000; fill-opacity:1.0000; stroke:none;fill-rule:evenodd;"
d="M 132.9250,84.4875
132.9069,84.5784
132.8554,84.6554
132.7784,84.7069
132.6875,84.7250
132.0875,84.7250
131.9966,84.7069
131.9196,84.6554
131.8681,84.5784
131.8500,84.4875
131.8500,84.0125
131.8681,83.9216
131.9196,83.8446
131.9966,83.7931
132.0875,83.7750
132.6875,83.7750
132.7784,83.7931
132.8554,83.8446
132.9069,83.9216
132.9250,84.0125
Z" /> 
<path style="fill:#000000; fill-opacity:1.0000; stroke:none;fill-rule:evenodd;"
d="M 136.1000,83.5125
136.1181,83.4216
136.1696,83.3446
136.2466,83.2931
136.3375,83.2750
136.9375,83.2750
137.0284,83.2931
137.1054,83.3446
137.1569,83.4216
137.1750,83.5125
137.1750,83.9875
137.1569,84.0784
137.1054,84.1554
137.0284,84.2069
136.9375,84.2250
136.3375,84.2250
136.2466,84.2069
136.1696,84.1554
136.1181,84.0784
136.1000,83.9875
Z" /> 
<path style="fill:#000000; fill-opacity:1.0000; stroke:none;fill-rule:evenodd;"
d="M 137.8250,83.5125
137.8431,83.4216
137.8946,83.3446
137.9716,83.2931
138.0625,83.2750
138.6625,83.2750
138.7534,83.2931
138.8304,83.3446
138.8819,83.4216
138.9000,83.5125
138.9000,83.9875
138.8819,84.0784
138.8304,84.1554
138.7534,84.2069
138.6625,84.2250
138.0625,84.2250
137.9716,84.2069
137.8946,84.1554
137.8431,84.0784
137.8250,83.9875
Z" /> 
<circle cx="135.7902" cy="75.0000" r="0.3000" /> 
</g>
<g style="fill:#000000; fill-opacity:1.0000; stroke:none;">
<circle cx="135.6774" cy="84.9431" r="0.3000" /> 
</g>
<g style="fill:#000000; fill-opacity:1.0000; stroke:none;">
<circle cx="135.4000" cy="79.9500" r="0.3000" /> 
</g>
<g style="fill:#000000; fill-opacity:1.0000; stroke:none;">
<circle cx="132.7500" cy="80.3625" r="0.3000" /> 
</g>
<g style="fill:#000000; fill-opacity:1.0000; stroke:none;">
<circle cx="134.1125" cy="84.6274" r="0.3000" /> 
</g>
<g style="fill:#000000; fill-opacity:1.0000; stroke:none;">
<circle cx="132.6125" cy="82.5000" r="0.3000" /> 
</g>
<g style="fill:none; 
stroke:#000000; stroke-width:0.2000; stroke-opacity:1; 
stroke-linecap:round; stroke-linejoin:round;">
<path d="M138.4125 82.0000
L138.4125 83.7000
" />
<path d="M138.3625 83.7500
L140.1625 83.7500
" />
<path d="M140.1625 83.7500
L140.2500 83.6625
" />
<path d="M138.1000 79.9500
L138.1000 81.6875
" />
<path d="M138.1000 81.6875
L138.4125 82.0000
" />
<path d="M138.4125 83.7000
L138.3625 83.7500
" />
<path d="M140.7438 79.6875
L140.2500 80.1812
" />
<path d="M135.4000 78.0500
L135.4000 77.8500
" />
<path d="M133.5687 85.2274
L135.3931 85.2274
" />
<path d="M130.8875 82.5000
L130.8875 80.5000
" />
<path d="M132.7500 78.6375
L133.3375 78.0500
" />
<path d="M135.7902 75.0000
L140.2250 75.0000
" />
<path d="M132.5913 84.2500
L133.5687 85.2274
" />
<path d="M142.2500 79.6875
L140.7438 79.6875
" />
<path d="M135.7902 77.4598
L135.7902 75.0000
" />
<path d="M140.2250 75.0000
L140.2500 75.0250
" />
<path d="M132.3875 84.2500
L132.5913 84.2500
" />
<path d="M130.8875 82.7500
L132.3875 84.2500
" />
<path d="M130.8875 82.5000
L130.8875 82.7500
" />
<path d="M135.3931 85.2274
L135.6774 84.9431
" />
<path d="M133.3375 78.0500
L135.4000 78.0500
" />
<path d="M130.8875 80.5000
L132.7500 78.6375
" />
<path d="M135.4000 77.8500
L135.7902 77.4598
" />
<path d="M140.2500 78.4562
L142.0187 78.4562
" />
<path d="M139.7062 79.0000
L140.2500 78.4562
" />
<path d="M142.0187 78.4562
L142.2500 78.6875
" />
<path d="M135.4000 79.0000
L139.7062 79.0000
" />
<path d="M142.2500 77.6875
L141.1875 77.6875
" />
<path d="M139.4000 76.7500
L138.1000 78.0500
" />
<path d="M141.1875 77.6875
L140.2500 76.7500
" />
<path d="M140.2500 76.7500
L139.4000 76.7500
" />
<path d="M141.1000 81.8375
L142.2500 80.6875
" />
<path d="M140.2500 81.8375
L141.1000 81.8375
" />
<path d="M136.5875 83.7000
L136.6375 83.7500
" />
<path d="M136.5875 82.0000
L136.5875 83.7000
" />
<path d="M136.5875 81.1375
L136.5875 82.0000
" />
<path d="M135.4000 79.9500
L136.5875 81.1375
" />
</g>
<g style="fill:#FFFFFF; fill-opacity:1.0000; stroke:none;">
<circle cx="135.7902" cy="75.0000" r="0.1500" /> 
</g>
<g style="fill:#FFFFFF; fill-opacity:1.0000; stroke:none;">
<circle cx="135.6774" cy="84.9431" r="0.1500" /> 
</g>
<g style="fill:#FFFFFF; fill-opacity:1.0000; stroke:none;">
<circle cx="135.4000" cy="79.9500" r="0.1500" /> 
</g>
<g style="fill:#FFFFFF; fill-opacity:1.0000; stroke:none;">
<circle cx="132.7500" cy="80.3625" r="0.1500" /> 
</g>
<g style="fill:#FFFFFF; fill-opacity:1.0000; stroke:none;">
<circle cx="134.1125" cy="84.6274" r="0.1500" /> 
</g>
<g style="fill:#FFFFFF; fill-opacity:1.0000; stroke:none;">
<circle cx="132.6125" cy="82.5000" r="0.1500" /> 
</g>
<g style="fill:#FFFFFF; fill-opacity:1.0000; stroke:none;">
<circle cx="142.2500" cy="77.6875" r="0.2500" /> 
</g>
<g style="fill:#FFFFFF; fill-opacity:1.0000; stroke:none;">
<circle cx="142.2500" cy="78.6875" r="0.2500" /> 
</g>
<g style="fill:#FFFFFF; fill-opacity:1.0000; stroke:none;">
<circle cx="142.2500" cy="79.6875" r="0.2500" /> 
</g>
<g style="fill:#FFFFFF; fill-opacity:1.0000; stroke:none;">
<circle cx="142.2500" cy="80.6875" r="0.2500" /> 
</g>
<g style="fill:#FFFFFF; fill-opacity:1.0000; stroke:none;">
<circle cx="129.7500" cy="78.1875" r="0.2500" /> 
</g>
<g style="fill:#FFFFFF; fill-opacity:1.0000; stroke:none;">
<circle cx="129.7500" cy="79.1875" r="0.2500" /> 
</g>
<g style="fill:#FFFFFF; fill-opacity:1.0000; stroke:none;">
<circle cx="129.7500" cy="80.1875" r="0.2500" /> 
</g> 
</svg>
