<?xml version="1.0" standalone="no"?>
 <!DOCTYPE svg PUBLIC "-//W3C//DTD SVG 1.1//EN" 
 "http://www.w3.org/Graphics/SVG/1.1/DTD/svg11.dtd"> 
<svg
  xmlns:svg="http://www.w3.org/2000/svg"
  xmlns="http://www.w3.org/2000/svg"
  xmlns:xlink="http://www.w3.org/1999/xlink"
  version="1.1"
  width="297.0022mm" height="210.0072mm" viewBox="0.0000 0.0000 297.0022 210.0072">
<title>SVG Image created as DetectorAcc-F_Silkscreen.svg date 2025/07/30 11:31:17 </title>
  <desc>Image generated by PCBNEW </desc>
<g style="fill:#000000; fill-opacity:1.0000;stroke:#000000; stroke-opacity:1.0000;
stroke-linecap:round; stroke-linejoin:round;"
 transform="translate(0 0) scale(1 1)">
</g>
<g style="fill:none; 
stroke:#000000; stroke-width:0.1000; stroke-opacity:1; 
stroke-linecap:round; stroke-linejoin:round;">
<g transform="rotate(-89.947872 145.6482 78.3360)">
<text x="145.6482" y="78.8360"
textLength="4.4810" font-size="1.3333" lengthAdjust="spacingAndGlyphs"
text-anchor="middle" opacity="0" stroke-opacity="0">1 mm</text>
</g>
<g class="stroked-text"><desc>1 mm</desc>
<path d="M146.1043 79.7650
L146.1038 80.3365
" />
<path d="M146.1040 80.0507
L145.1040 80.0498
" />
<path d="M145.1040 80.0498
L145.2468 80.1452
" />
<path d="M145.2468 80.1452
L145.3419 80.2405
" />
<path d="M145.3419 80.2405
L145.3895 80.3358
" />
<path d="M146.1054 78.5745
L145.4387 78.5739
" />
<path d="M145.5339 78.5740
L145.4864 78.5264
" />
<path d="M145.4864 78.5264
L145.4388 78.4311
" />
<path d="M145.4388 78.4311
L145.4390 78.2882
" />
<path d="M145.4390 78.2882
L145.4867 78.1930
" />
<path d="M145.4867 78.1930
L145.5819 78.1455
" />
<path d="M145.5819 78.1455
L146.1058 78.1460
" />
<path d="M145.5819 78.1455
L145.4868 78.0978
" />
<path d="M145.4868 78.0978
L145.4392 78.0025
" />
<path d="M145.4392 78.0025
L145.4393 77.8597
" />
<path d="M145.4393 77.8597
L145.4871 77.7645
" />
<path d="M145.4871 77.7645
L145.5823 77.7169
" />
<path d="M145.5823 77.7169
L146.1061 77.7174
" />
<path d="M146.1066 77.2412
L145.4399 77.2406
" />
<path d="M145.5352 77.2407
L145.4876 77.1930
" />
<path d="M145.4876 77.1930
L145.4400 77.0977
" />
<path d="M145.4400 77.0977
L145.4402 76.9549
" />
<path d="M145.4402 76.9549
L145.4879 76.8597
" />
<path d="M145.4879 76.8597
L145.5832 76.8122
" />
<path d="M145.5832 76.8122
L146.1070 76.8126
" />
<path d="M145.5832 76.8122
L145.4880 76.7645
" />
<path d="M145.4880 76.7645
L145.4404 76.6692
" />
<path d="M145.4404 76.6692
L145.4406 76.5263
" />
<path d="M145.4406 76.5263
L145.4883 76.4311
" />
<path d="M145.4883 76.4311
L145.5836 76.3836
" />
<path d="M145.5836 76.3836
L146.1074 76.3841
" />
</g><path d="M142.2630 78.6966
L145.1322 78.6992
" />
<path d="M142.2639 77.6941
L145.1331 77.6968
" />
<path d="M144.5458 78.6986
L144.5467 77.6962
" />
<path d="M144.5458 78.6986
L144.5467 77.6962
" />
<path d="M144.5458 78.6986
L143.9604 77.5716
" />
<path d="M144.5458 78.6986
L145.1333 77.5727
" />
<path d="M144.5467 77.6962
L145.1321 78.8233
" />
<path d="M144.5467 77.6962
L143.9593 78.8222
" />
<text x="136.0451" y="89.3745"
textLength="7.8143" font-size="1.3333" lengthAdjust="spacingAndGlyphs"
text-anchor="middle" opacity="0" stroke-opacity="0">14.90 mm</text>
<g class="stroked-text"><desc>14.90 mm</desc>
<path d="M132.9498 89.3319
L132.3784 89.3319
" />
<path d="M132.6641 89.3319
L132.6641 88.3319
" />
<path d="M132.6641 88.3319
L132.5689 88.4748
" />
<path d="M132.5689 88.4748
L132.4736 88.5700
" />
<path d="M132.4736 88.5700
L132.3784 88.6176
" />
<path d="M133.8070 88.6652
L133.8070 89.3319
" />
<path d="M133.5689 88.2843
L133.3308 88.9986
" />
<path d="M133.3308 88.9986
L133.9498 88.9986
" />
<path d="M134.3308 89.2367
L134.3784 89.2843
" />
<path d="M134.3784 89.2843
L134.3308 89.3319
" />
<path d="M134.3308 89.3319
L134.2831 89.2843
" />
<path d="M134.2831 89.2843
L134.3308 89.2367
" />
<path d="M134.3308 89.2367
L134.3308 89.3319
" />
<path d="M134.8546 89.3319
L135.0451 89.3319
" />
<path d="M135.0451 89.3319
L135.1403 89.2843
" />
<path d="M135.1403 89.2843
L135.1879 89.2367
" />
<path d="M135.1879 89.2367
L135.2831 89.0938
" />
<path d="M135.2831 89.0938
L135.3308 88.9033
" />
<path d="M135.3308 88.9033
L135.3308 88.5224
" />
<path d="M135.3308 88.5224
L135.2831 88.4272
" />
<path d="M135.2831 88.4272
L135.2355 88.3795
" />
<path d="M135.2355 88.3795
L135.1403 88.3319
" />
<path d="M135.1403 88.3319
L134.9498 88.3319
" />
<path d="M134.9498 88.3319
L134.8546 88.3795
" />
<path d="M134.8546 88.3795
L134.8070 88.4272
" />
<path d="M134.8070 88.4272
L134.7593 88.5224
" />
<path d="M134.7593 88.5224
L134.7593 88.7605
" />
<path d="M134.7593 88.7605
L134.8070 88.8557
" />
<path d="M134.8070 88.8557
L134.8546 88.9033
" />
<path d="M134.8546 88.9033
L134.9498 88.9510
" />
<path d="M134.9498 88.9510
L135.1403 88.9510
" />
<path d="M135.1403 88.9510
L135.2355 88.9033
" />
<path d="M135.2355 88.9033
L135.2831 88.8557
" />
<path d="M135.2831 88.8557
L135.3308 88.7605
" />
<path d="M135.9498 88.3319
L136.0451 88.3319
" />
<path d="M136.0451 88.3319
L136.1403 88.3795
" />
<path d="M136.1403 88.3795
L136.1879 88.4272
" />
<path d="M136.1879 88.4272
L136.2355 88.5224
" />
<path d="M136.2355 88.5224
L136.2831 88.7129
" />
<path d="M136.2831 88.7129
L136.2831 88.9510
" />
<path d="M136.2831 88.9510
L136.2355 89.1414
" />
<path d="M136.2355 89.1414
L136.1879 89.2367
" />
<path d="M136.1879 89.2367
L136.1403 89.2843
" />
<path d="M136.1403 89.2843
L136.0451 89.3319
" />
<path d="M136.0451 89.3319
L135.9498 89.3319
" />
<path d="M135.9498 89.3319
L135.8546 89.2843
" />
<path d="M135.8546 89.2843
L135.8070 89.2367
" />
<path d="M135.8070 89.2367
L135.7593 89.1414
" />
<path d="M135.7593 89.1414
L135.7117 88.9510
" />
<path d="M135.7117 88.9510
L135.7117 88.7129
" />
<path d="M135.7117 88.7129
L135.7593 88.5224
" />
<path d="M135.7593 88.5224
L135.8070 88.4272
" />
<path d="M135.8070 88.4272
L135.8546 88.3795
" />
<path d="M135.8546 88.3795
L135.9498 88.3319
" />
<path d="M137.4736 89.3319
L137.4736 88.6652
" />
<path d="M137.4736 88.7605
L137.5212 88.7129
" />
<path d="M137.5212 88.7129
L137.6165 88.6652
" />
<path d="M137.6165 88.6652
L137.7593 88.6652
" />
<path d="M137.7593 88.6652
L137.8546 88.7129
" />
<path d="M137.8546 88.7129
L137.9022 88.8081
" />
<path d="M137.9022 88.8081
L137.9022 89.3319
" />
<path d="M137.9022 88.8081
L137.9498 88.7129
" />
<path d="M137.9498 88.7129
L138.0451 88.6652
" />
<path d="M138.0451 88.6652
L138.1879 88.6652
" />
<path d="M138.1879 88.6652
L138.2831 88.7129
" />
<path d="M138.2831 88.7129
L138.3308 88.8081
" />
<path d="M138.3308 88.8081
L138.3308 89.3319
" />
<path d="M138.8070 89.3319
L138.8070 88.6652
" />
<path d="M138.8070 88.7605
L138.8546 88.7129
" />
<path d="M138.8546 88.7129
L138.9498 88.6652
" />
<path d="M138.9498 88.6652
L139.0927 88.6652
" />
<path d="M139.0927 88.6652
L139.1879 88.7129
" />
<path d="M139.1879 88.7129
L139.2355 88.8081
" />
<path d="M139.2355 88.8081
L139.2355 89.3319
" />
<path d="M139.2355 88.8081
L139.2831 88.7129
" />
<path d="M139.2831 88.7129
L139.3784 88.6652
" />
<path d="M139.3784 88.6652
L139.5212 88.6652
" />
<path d="M139.5212 88.6652
L139.6165 88.7129
" />
<path d="M139.6165 88.7129
L139.6641 88.8081
" />
<path d="M139.6641 88.8081
L139.6641 89.3319
" />
</g><path d="M128.5901 80.0000
L128.5901 90.5609
" />
<path d="M143.5000 80.0000
L143.5000 90.5609
" />
<path d="M128.5901 89.9745
L143.5000 89.9745
" />
<path d="M128.5901 89.9745
L143.5000 89.9745
" />
<path d="M128.5901 89.9745
L129.7166 89.3881
" />
<path d="M128.5901 89.9745
L129.7166 90.5609
" />
<path d="M143.5000 89.9745
L142.3735 90.5609
" />
<path d="M143.5000 89.9745
L142.3735 89.3881
" />
<g transform="rotate(-90.000000 133.8973 80.7481)">
<text x="133.8973" y="80.9981"
textLength="1.1762" font-size="0.6667" lengthAdjust="spacingAndGlyphs"
text-anchor="middle" opacity="0" stroke-opacity="0">C4</text>
</g>
<g class="stroked-text"><desc>C4</desc>
<path d="M134.0758 80.8314
L134.0996 80.8552
" />
<path d="M134.0996 80.8552
L134.1234 80.9266
" />
<path d="M134.1234 80.9266
L134.1234 80.9743
" />
<path d="M134.1234 80.9743
L134.0996 81.0457
" />
<path d="M134.0996 81.0457
L134.0520 81.0933
" />
<path d="M134.0520 81.0933
L134.0044 81.1171
" />
<path d="M134.0044 81.1171
L133.9091 81.1409
" />
<path d="M133.9091 81.1409
L133.8377 81.1409
" />
<path d="M133.8377 81.1409
L133.7425 81.1171
" />
<path d="M133.7425 81.1171
L133.6948 81.0933
" />
<path d="M133.6948 81.0933
L133.6472 81.0457
" />
<path d="M133.6472 81.0457
L133.6234 80.9743
" />
<path d="M133.6234 80.9743
L133.6234 80.9266
" />
<path d="M133.6234 80.9266
L133.6472 80.8552
" />
<path d="M133.6472 80.8552
L133.6710 80.8314
" />
<path d="M133.7901 80.4028
L134.1234 80.4028
" />
<path d="M133.5996 80.5219
L133.9567 80.6409
" />
<path d="M133.9567 80.6409
L133.9567 80.3314
" />
</g><text x="130.6616" y="83.9291"
textLength="1.1762" font-size="0.6667" lengthAdjust="spacingAndGlyphs"
text-anchor="middle" opacity="0" stroke-opacity="0">C6</text>
<g class="stroked-text"><desc>C6</desc>
<path d="M130.5782 83.8576
L130.5544 83.8814
" />
<path d="M130.5544 83.8814
L130.4830 83.9052
" />
<path d="M130.4830 83.9052
L130.4354 83.9052
" />
<path d="M130.4354 83.9052
L130.3639 83.8814
" />
<path d="M130.3639 83.8814
L130.3163 83.8338
" />
<path d="M130.3163 83.8338
L130.2925 83.7862
" />
<path d="M130.2925 83.7862
L130.2687 83.6909
" />
<path d="M130.2687 83.6909
L130.2687 83.6195
" />
<path d="M130.2687 83.6195
L130.2925 83.5243
" />
<path d="M130.2925 83.5243
L130.3163 83.4766
" />
<path d="M130.3163 83.4766
L130.3639 83.4290
" />
<path d="M130.3639 83.4290
L130.4354 83.4052
" />
<path d="M130.4354 83.4052
L130.4830 83.4052
" />
<path d="M130.4830 83.4052
L130.5544 83.4290
" />
<path d="M130.5544 83.4290
L130.5782 83.4528
" />
<path d="M131.0068 83.4052
L130.9116 83.4052
" />
<path d="M130.9116 83.4052
L130.8639 83.4290
" />
<path d="M130.8639 83.4290
L130.8401 83.4528
" />
<path d="M130.8401 83.4528
L130.7925 83.5243
" />
<path d="M130.7925 83.5243
L130.7687 83.6195
" />
<path d="M130.7687 83.6195
L130.7687 83.8100
" />
<path d="M130.7687 83.8100
L130.7925 83.8576
" />
<path d="M130.7925 83.8576
L130.8163 83.8814
" />
<path d="M130.8163 83.8814
L130.8639 83.9052
" />
<path d="M130.8639 83.9052
L130.9592 83.9052
" />
<path d="M130.9592 83.9052
L131.0068 83.8814
" />
<path d="M131.0068 83.8814
L131.0306 83.8576
" />
<path d="M131.0306 83.8576
L131.0544 83.8100
" />
<path d="M131.0544 83.8100
L131.0544 83.6909
" />
<path d="M131.0544 83.6909
L131.0306 83.6433
" />
<path d="M131.0306 83.6433
L131.0068 83.6195
" />
<path d="M131.0068 83.6195
L130.9592 83.5957
" />
<path d="M130.9592 83.5957
L130.8639 83.5957
" />
<path d="M130.8639 83.5957
L130.8163 83.6195
" />
<path d="M130.8163 83.6195
L130.7925 83.6433
" />
<path d="M130.7925 83.6433
L130.7687 83.6909
" />
</g><text x="136.4880" y="83.1775"
textLength="1.1762" font-size="0.6667" lengthAdjust="spacingAndGlyphs"
text-anchor="middle" opacity="0" stroke-opacity="0">R1</text>
<g class="stroked-text"><desc>R1</desc>
<path d="M136.4047 83.1536
L136.2380 82.9155
" />
<path d="M136.1189 83.1536
L136.1189 82.6536
" />
<path d="M136.1189 82.6536
L136.3094 82.6536
" />
<path d="M136.3094 82.6536
L136.3570 82.6774
" />
<path d="M136.3570 82.6774
L136.3808 82.7012
" />
<path d="M136.3808 82.7012
L136.4047 82.7489
" />
<path d="M136.4047 82.7489
L136.4047 82.8203
" />
<path d="M136.4047 82.8203
L136.3808 82.8679
" />
<path d="M136.3808 82.8679
L136.3570 82.8917
" />
<path d="M136.3570 82.8917
L136.3094 82.9155
" />
<path d="M136.3094 82.9155
L136.1189 82.9155
" />
<path d="M136.8808 83.1536
L136.5951 83.1536
" />
<path d="M136.7380 83.1536
L136.7380 82.6536
" />
<path d="M136.7380 82.6536
L136.6904 82.7251
" />
<path d="M136.6904 82.7251
L136.6428 82.7727
" />
<path d="M136.6428 82.7727
L136.5951 82.7965
" />
</g><g transform="rotate(-90.000000 141.4058 83.7628)">
<text x="141.4058" y="84.0128"
textLength="1.1762" font-size="0.6667" lengthAdjust="spacingAndGlyphs"
text-anchor="middle" opacity="0" stroke-opacity="0">R2</text>
</g>
<g class="stroked-text"><desc>R2</desc>
<path d="M141.6320 83.8461
L141.3939 84.0128
" />
<path d="M141.6320 84.1319
L141.1320 84.1319
" />
<path d="M141.1320 84.1319
L141.1320 83.9414
" />
<path d="M141.1320 83.9414
L141.1558 83.8938
" />
<path d="M141.1558 83.8938
L141.1796 83.8700
" />
<path d="M141.1796 83.8700
L141.2272 83.8461
" />
<path d="M141.2272 83.8461
L141.2986 83.8461
" />
<path d="M141.2986 83.8461
L141.3462 83.8700
" />
<path d="M141.3462 83.8700
L141.3701 83.8938
" />
<path d="M141.3701 83.8938
L141.3939 83.9414
" />
<path d="M141.3939 83.9414
L141.3939 84.1319
" />
<path d="M141.1796 83.6557
L141.1558 83.6319
" />
<path d="M141.1558 83.6319
L141.1320 83.5842
" />
<path d="M141.1320 83.5842
L141.1320 83.4652
" />
<path d="M141.1320 83.4652
L141.1558 83.4176
" />
<path d="M141.1558 83.4176
L141.1796 83.3938
" />
<path d="M141.1796 83.3938
L141.2272 83.3700
" />
<path d="M141.2272 83.3700
L141.2748 83.3700
" />
<path d="M141.2748 83.3700
L141.3462 83.3938
" />
<path d="M141.3462 83.3938
L141.6320 83.6795
" />
<path d="M141.6320 83.6795
L141.6320 83.3700
" />
</g><g transform="rotate(-90.000000 141.4058 80.5128)">
<text x="141.4058" y="80.7628"
textLength="1.1762" font-size="0.6667" lengthAdjust="spacingAndGlyphs"
text-anchor="middle" opacity="0" stroke-opacity="0">C2</text>
</g>
<g class="stroked-text"><desc>C2</desc>
<path d="M141.5843 80.5961
L141.6081 80.6200
" />
<path d="M141.6081 80.6200
L141.6320 80.6914
" />
<path d="M141.6320 80.6914
L141.6320 80.7390
" />
<path d="M141.6320 80.7390
L141.6081 80.8104
" />
<path d="M141.6081 80.8104
L141.5605 80.8581
" />
<path d="M141.5605 80.8581
L141.5129 80.8819
" />
<path d="M141.5129 80.8819
L141.4177 80.9057
" />
<path d="M141.4177 80.9057
L141.3462 80.9057
" />
<path d="M141.3462 80.9057
L141.2510 80.8819
" />
<path d="M141.2510 80.8819
L141.2034 80.8581
" />
<path d="M141.2034 80.8581
L141.1558 80.8104
" />
<path d="M141.1558 80.8104
L141.1320 80.7390
" />
<path d="M141.1320 80.7390
L141.1320 80.6914
" />
<path d="M141.1320 80.6914
L141.1558 80.6200
" />
<path d="M141.1558 80.6200
L141.1796 80.5961
" />
<path d="M141.1796 80.4057
L141.1558 80.3819
" />
<path d="M141.1558 80.3819
L141.1320 80.3342
" />
<path d="M141.1320 80.3342
L141.1320 80.2152
" />
<path d="M141.1320 80.2152
L141.1558 80.1676
" />
<path d="M141.1558 80.1676
L141.1796 80.1438
" />
<path d="M141.1796 80.1438
L141.2272 80.1200
" />
<path d="M141.2272 80.1200
L141.2748 80.1200
" />
<path d="M141.2748 80.1200
L141.3462 80.1438
" />
<path d="M141.3462 80.1438
L141.6320 80.4295
" />
<path d="M141.6320 80.4295
L141.6320 80.1200
" />
</g><g transform="rotate(-90.000000 141.4058 77.0128)">
<text x="141.4058" y="77.2628"
textLength="1.1762" font-size="0.6667" lengthAdjust="spacingAndGlyphs"
text-anchor="middle" opacity="0" stroke-opacity="0">C3</text>
</g>
<g class="stroked-text"><desc>C3</desc>
<path d="M141.5843 77.0961
L141.6081 77.1200
" />
<path d="M141.6081 77.1200
L141.6320 77.1914
" />
<path d="M141.6320 77.1914
L141.6320 77.2390
" />
<path d="M141.6320 77.2390
L141.6081 77.3104
" />
<path d="M141.6081 77.3104
L141.5605 77.3581
" />
<path d="M141.5605 77.3581
L141.5129 77.3819
" />
<path d="M141.5129 77.3819
L141.4177 77.4057
" />
<path d="M141.4177 77.4057
L141.3462 77.4057
" />
<path d="M141.3462 77.4057
L141.2510 77.3819
" />
<path d="M141.2510 77.3819
L141.2034 77.3581
" />
<path d="M141.2034 77.3581
L141.1558 77.3104
" />
<path d="M141.1558 77.3104
L141.1320 77.2390
" />
<path d="M141.1320 77.2390
L141.1320 77.1914
" />
<path d="M141.1320 77.1914
L141.1558 77.1200
" />
<path d="M141.1558 77.1200
L141.1796 77.0961
" />
<path d="M141.1320 76.9295
L141.1320 76.6200
" />
<path d="M141.1320 76.6200
L141.3224 76.7866
" />
<path d="M141.3224 76.7866
L141.3224 76.7152
" />
<path d="M141.3224 76.7152
L141.3462 76.6676
" />
<path d="M141.3462 76.6676
L141.3701 76.6438
" />
<path d="M141.3701 76.6438
L141.4177 76.6200
" />
<path d="M141.4177 76.6200
L141.5367 76.6200
" />
<path d="M141.5367 76.6200
L141.5843 76.6438
" />
<path d="M141.5843 76.6438
L141.6081 76.6676
" />
<path d="M141.6081 76.6676
L141.6320 76.7152
" />
<path d="M141.6320 76.7152
L141.6320 76.8581
" />
<path d="M141.6320 76.8581
L141.6081 76.9057
" />
<path d="M141.6081 76.9057
L141.5843 76.9295
" />
</g><text x="132.3918" y="85.6593"
textLength="1.1762" font-size="0.6667" lengthAdjust="spacingAndGlyphs"
text-anchor="middle" opacity="0" stroke-opacity="0">C5</text>
<g class="stroked-text"><desc>C5</desc>
<path d="M132.3085 85.5878
L132.2847 85.6116
" />
<path d="M132.2847 85.6116
L132.2132 85.6355
" />
<path d="M132.2132 85.6355
L132.1656 85.6355
" />
<path d="M132.1656 85.6355
L132.0942 85.6116
" />
<path d="M132.0942 85.6116
L132.0466 85.5640
" />
<path d="M132.0466 85.5640
L132.0228 85.5164
" />
<path d="M132.0228 85.5164
L131.9990 85.4212
" />
<path d="M131.9990 85.4212
L131.9990 85.3497
" />
<path d="M131.9990 85.3497
L132.0228 85.2545
" />
<path d="M132.0228 85.2545
L132.0466 85.2069
" />
<path d="M132.0466 85.2069
L132.0942 85.1593
" />
<path d="M132.0942 85.1593
L132.1656 85.1355
" />
<path d="M132.1656 85.1355
L132.2132 85.1355
" />
<path d="M132.2132 85.1355
L132.2847 85.1593
" />
<path d="M132.2847 85.1593
L132.3085 85.1831
" />
<path d="M132.7609 85.1355
L132.5228 85.1355
" />
<path d="M132.5228 85.1355
L132.4990 85.3735
" />
<path d="M132.4990 85.3735
L132.5228 85.3497
" />
<path d="M132.5228 85.3497
L132.5704 85.3259
" />
<path d="M132.5704 85.3259
L132.6894 85.3259
" />
<path d="M132.6894 85.3259
L132.7370 85.3497
" />
<path d="M132.7370 85.3497
L132.7609 85.3735
" />
<path d="M132.7609 85.3735
L132.7847 85.4212
" />
<path d="M132.7847 85.4212
L132.7847 85.5402
" />
<path d="M132.7847 85.5402
L132.7609 85.5878
" />
<path d="M132.7609 85.5878
L132.7370 85.6116
" />
<path d="M132.7370 85.6116
L132.6894 85.6355
" />
<path d="M132.6894 85.6355
L132.5704 85.6355
" />
<path d="M132.5704 85.6355
L132.5228 85.6116
" />
<path d="M132.5228 85.6116
L132.4990 85.5878
" />
</g><text x="136.5000" y="85.0000"
textLength="1.1762" font-size="0.6667" lengthAdjust="spacingAndGlyphs"
text-anchor="middle" opacity="0" stroke-opacity="0">C1</text>
<g class="stroked-text"><desc>C1</desc>
<path d="M136.4167 84.9285
L136.3929 84.9523
" />
<path d="M136.3929 84.9523
L136.3214 84.9761
" />
<path d="M136.3214 84.9761
L136.2738 84.9761
" />
<path d="M136.2738 84.9761
L136.2024 84.9523
" />
<path d="M136.2024 84.9523
L136.1548 84.9047
" />
<path d="M136.1548 84.9047
L136.1310 84.8571
" />
<path d="M136.1310 84.8571
L136.1071 84.7618
" />
<path d="M136.1071 84.7618
L136.1071 84.6904
" />
<path d="M136.1071 84.6904
L136.1310 84.5952
" />
<path d="M136.1310 84.5952
L136.1548 84.5475
" />
<path d="M136.1548 84.5475
L136.2024 84.4999
" />
<path d="M136.2024 84.4999
L136.2738 84.4761
" />
<path d="M136.2738 84.4761
L136.3214 84.4761
" />
<path d="M136.3214 84.4761
L136.3929 84.4999
" />
<path d="M136.3929 84.4999
L136.4167 84.5237
" />
<path d="M136.8929 84.9761
L136.6071 84.9761
" />
<path d="M136.7500 84.9761
L136.7500 84.4761
" />
<path d="M136.7500 84.4761
L136.7024 84.5475
" />
<path d="M136.7024 84.5475
L136.6548 84.5952
" />
<path d="M136.6548 84.5952
L136.6071 84.6190
" />
</g></g>
<g style="fill:none; 
stroke:#000000; stroke-width:0.1200; stroke-opacity:1; 
stroke-linecap:round; stroke-linejoin:round;">
<path d="M132.2400 79.3537
L132.2400 79.6463
" />
<path d="M133.2600 79.3537
L133.2600 79.6463
" />
<path d="M131.8963 81.9900
L131.6037 81.9900
" />
<path d="M131.8963 83.0100
L131.6037 83.0100
" />
<path d="M137.2453 81.4775
L137.7547 81.4775
" />
<path d="M137.2453 82.5225
L137.7547 82.5225
" />
<path d="M139.7275 83.0047
L139.7275 82.4953
" />
<path d="M140.7725 83.0047
L140.7725 82.4953
" />
<path d="M135.8500 80.6100
L137.6500 80.6100
" />
<path d="M136.8500 77.3900
L136.0500 77.3900
" />
<path d="M136.8500 77.3900
L137.6500 77.3900
" />
<path style="fill:#000000; fill-opacity:1.0000; 
stroke:#000000; stroke-width:0.1200; stroke-opacity:1; 
stroke-linecap:round; stroke-linejoin:round;fill-rule:evenodd;"
d="M 135.5500,77.4400
135.3100,77.1100
135.7900,77.1100
Z" /> 
</g>
<g style="fill:none; 
stroke:#000000; stroke-width:0.1200; stroke-opacity:1; 
stroke-linecap:round; stroke-linejoin:round;">
<path d="M139.7400 79.1725
L139.7400 79.4650
" />
<path d="M140.7600 79.1725
L140.7600 79.4650
" />
<path d="M139.7400 76.0338
L139.7400 75.7412
" />
<path d="M140.7600 76.0338
L140.7600 75.7412
" />
<path d="M133.3963 83.7400
L133.1037 83.7400
" />
<path d="M133.3963 84.7600
L133.1037 84.7600
" />
<path d="M137.3537 83.2400
L137.6463 83.2400
" />
<path d="M137.3537 84.2600
L137.6463 84.2600
" />
</g>
<g style="fill:none; 
stroke:#000000; stroke-width:0.0500; stroke-opacity:1; 
stroke-linecap:round; stroke-linejoin:round;">
<circle cx="136.0451" cy="79.5000" r="7.4549" /> 
</g> 
</svg>
