<?xml version="1.0" standalone="no"?>
 <!DOCTYPE svg PUBLIC "-//W3C//DTD SVG 1.1//EN" 
 "http://www.w3.org/Graphics/SVG/1.1/DTD/svg11.dtd"> 
<svg
  xmlns:svg="http://www.w3.org/2000/svg"
  xmlns="http://www.w3.org/2000/svg"
  xmlns:xlink="http://www.w3.org/1999/xlink"
  version="1.1"
  width="297.0022mm" height="210.0072mm" viewBox="0.0000 0.0000 297.0022 210.0072">
<title>SVG Image created as DetectorAcc-B_Courtyard.svg date 2025/07/30 11:31:17 </title>
  <desc>Image generated by PCBNEW </desc>
<g style="fill:#000000; fill-opacity:1.0000;stroke:#000000; stroke-opacity:1.0000;
stroke-linecap:round; stroke-linejoin:round;"
 transform="translate(0 0) scale(1 1)">
</g>
<g style="fill:none; 
stroke:#000000; stroke-width:0.1524; stroke-opacity:1; 
stroke-linecap:round; stroke-linejoin:round;">
<path d="M133.3711 81.6186
L133.6759 81.6186
" />
<path d="M133.3711 84.3814
L133.3711 81.6186
" />
<path d="M133.6759 80.6759
L134.6186 80.6759
" />
<path d="M133.6759 81.6186
L133.6759 80.6759
" />
<path d="M133.6759 84.3814
L133.3711 84.3814
" />
<path d="M133.6759 85.3241
L133.6759 84.3814
" />
<path d="M134.6186 80.3711
L137.3814 80.3711
" />
<path d="M134.6186 80.6759
L134.6186 80.3711
" />
<path d="M134.6186 85.3241
L133.6759 85.3241
" />
<path d="M134.6186 85.6289
L134.6186 85.3241
" />
<path d="M137.3814 80.3711
L137.3814 80.6759
" />
<path d="M137.3814 80.6759
L138.3241 80.6759
" />
<path d="M137.3814 85.3241
L137.3814 85.6289
" />
<path d="M137.3814 85.6289
L134.6186 85.6289
" />
<path d="M138.3241 80.6759
L138.3241 81.6186
" />
<path d="M138.3241 81.6186
L138.6289 81.6186
" />
<path d="M138.3241 84.3814
L138.3241 85.3241
" />
<path d="M138.3241 85.3241
L137.3814 85.3241
" />
<path d="M138.6289 81.6186
L138.6289 84.3814
" />
<path d="M138.6289 84.3814
L138.3241 84.3814
" />
<path d="M132.7295 76.6350
L132.7295 73.3650
" />
<path d="M133.0343 72.7521
L138.5461 72.7521
" />
<path d="M133.0343 73.3650
L132.7295 73.3650
" />
<path d="M133.0343 73.3650
L133.0343 72.7521
" />
<path d="M133.0343 76.6350
L132.7295 76.6350
" />
<path d="M133.0343 77.2479
L133.0343 76.6350
" />
<path d="M138.5461 72.7521
L138.5461 73.3650
" />
<path d="M138.5461 73.3650
L138.8509 73.3650
" />
<path d="M138.5461 76.6350
L138.5461 77.2479
" />
<path d="M138.5461 76.6350
L138.8509 76.6350
" />
<path d="M138.5461 77.2479
L133.0343 77.2479
" />
<path d="M138.8509 73.3650
L138.8509 76.6350
" />
</g>
<g style="fill:none; 
stroke:#000000; stroke-width:0.0500; stroke-opacity:1; 
stroke-linecap:round; stroke-linejoin:round;">
<circle cx="136.0451" cy="79.5000" r="7.4549" /> 
</g> 
</svg>
