<?xml version="1.0" standalone="no"?>
 <!DOCTYPE svg PUBLIC "-//W3C//DTD SVG 1.1//EN" 
 "http://www.w3.org/Graphics/SVG/1.1/DTD/svg11.dtd"> 
<svg
  xmlns:svg="http://www.w3.org/2000/svg"
  xmlns="http://www.w3.org/2000/svg"
  xmlns:xlink="http://www.w3.org/1999/xlink"
  version="1.1"
  width="297.0022mm" height="210.0072mm" viewBox="0.0000 0.0000 297.0022 210.0072">
<title>SVG Image created as DetectorAcc-F_Courtyard.svg date 2025/07/30 11:31:17 </title>
  <desc>Image generated by PCBNEW </desc>
<g style="fill:#000000; fill-opacity:1.0000;stroke:#000000; stroke-opacity:1.0000;
stroke-linecap:round; stroke-linejoin:round;"
 transform="translate(0 0) scale(1 1)">
</g>
<g style="fill:none; 
stroke:#000000; stroke-width:0.0500; stroke-opacity:1; 
stroke-linecap:round; stroke-linejoin:round;">
<path d="M132.0200 77.8500
L133.4800 77.8500
" />
<path d="M132.0200 81.1500
L132.0200 77.8500
" />
<path d="M133.4800 77.8500
L133.4800 81.1500
" />
<path d="M133.4800 81.1500
L132.0200 81.1500
" />
<path d="M130.1000 81.7700
L133.4000 81.7700
" />
<path d="M130.1000 83.2300
L130.1000 81.7700
" />
<path d="M133.4000 81.7700
L133.4000 83.2300
" />
<path d="M133.4000 83.2300
L130.1000 83.2300
" />
<path d="M135.8500 81.2700
L139.1500 81.2700
" />
<path d="M135.8500 82.7300
L135.8500 81.2700
" />
<path d="M139.1500 81.2700
L139.1500 82.7300
" />
<path d="M139.1500 82.7300
L135.8500 82.7300
" />
<path d="M139.5200 81.1000
L140.9800 81.1000
" />
<path d="M139.5200 84.4000
L139.5200 81.1000
" />
<path d="M140.9800 81.1000
L140.9800 84.4000
" />
<path d="M140.9800 84.4000
L139.5200 84.4000
" />
<path d="M134.3700 77.2000
L134.3700 80.8000
" />
<path d="M134.3700 77.2000
L139.1300 77.2000
" />
<path d="M139.1300 80.8000
L134.3700 80.8000
" />
<path d="M139.1300 80.8000
L139.1300 77.2000
" />
<path d="M139.5200 77.6688
L140.9800 77.6688
" />
<path d="M139.5200 80.9688
L139.5200 77.6688
" />
<path d="M140.9800 77.6688
L140.9800 80.9688
" />
<path d="M140.9800 80.9688
L139.5200 80.9688
" />
<path d="M139.5200 74.2375
L140.9800 74.2375
" />
<path d="M139.5200 77.5375
L139.5200 74.2375
" />
<path d="M140.9800 74.2375
L140.9800 77.5375
" />
<path d="M140.9800 77.5375
L139.5200 77.5375
" />
<path d="M131.6000 83.5200
L134.9000 83.5200
" />
<path d="M131.6000 84.9800
L131.6000 83.5200
" />
<path d="M134.9000 83.5200
L134.9000 84.9800
" />
<path d="M134.9000 84.9800
L131.6000 84.9800
" />
<path d="M135.8500 83.0200
L139.1500 83.0200
" />
<path d="M135.8500 84.4800
L135.8500 83.0200
" />
<path d="M139.1500 83.0200
L139.1500 84.4800
" />
<path d="M139.1500 84.4800
L135.8500 84.4800
" />
<circle cx="136.0451" cy="79.5000" r="7.4549" /> 
</g> 
</svg>
