G04 #@! TF.GenerationSoftware,KiCad,Pcbnew,8.0.6*
G04 #@! TF.CreationDate,2025-07-17T13:08:24-05:00*
G04 #@! TF.ProjectId,DetectorAcc,44657465-6374-46f7-9241-63632e6b6963,rev?*
G04 #@! TF.SameCoordinates,Original*
G04 #@! TF.FileFunction,Legend,Top*
G04 #@! TF.FilePolarity,Positive*
%FSLAX46Y46*%
G04 Gerber Fmt 4.6, Leading zero omitted, Abs format (unit mm)*
G04 Created by KiCad (PCBNEW 8.0.6) date 2025-07-17 13:08:24*
%MOMM*%
%LPD*%
G01*
G04 APERTURE LIST*
G04 Aperture macros list*
%AMRoundRect*
0 Rectangle with rounded corners*
0 $1 Rounding radius*
0 $2 $3 $4 $5 $6 $7 $8 $9 X,Y pos of 4 corners*
0 Add a 4 corners polygon primitive as box body*
4,1,4,$2,$3,$4,$5,$6,$7,$8,$9,$2,$3,0*
0 Add four circle primitives for the rounded corners*
1,1,$1+$1,$2,$3*
1,1,$1+$1,$4,$5*
1,1,$1+$1,$6,$7*
1,1,$1+$1,$8,$9*
0 Add four rect primitives between the rounded corners*
20,1,$1+$1,$2,$3,$4,$5,0*
20,1,$1+$1,$4,$5,$6,$7,0*
20,1,$1+$1,$6,$7,$8,$9,0*
20,1,$1+$1,$8,$9,$2,$3,0*%
G04 Aperture macros list end*
%ADD10C,0.100000*%
%ADD11C,0.120000*%
%ADD12C,0.850000*%
%ADD13O,0.850000X0.850000*%
%ADD14R,0.850000X0.850000*%
%ADD15RoundRect,0.162500X-0.617500X-0.162500X0.617500X-0.162500X0.617500X0.162500X-0.617500X0.162500X0*%
%ADD16RoundRect,0.237500X0.237500X-0.250000X0.237500X0.250000X-0.237500X0.250000X-0.237500X-0.250000X0*%
%ADD17RoundRect,0.237500X-0.250000X-0.237500X0.250000X-0.237500X0.250000X0.237500X-0.250000X0.237500X0*%
%ADD18RoundRect,0.237500X0.300000X0.237500X-0.300000X0.237500X-0.300000X-0.237500X0.300000X-0.237500X0*%
%ADD19RoundRect,0.237500X-0.237500X0.300000X-0.237500X-0.300000X0.237500X-0.300000X0.237500X0.300000X0*%
%ADD20RoundRect,0.237500X0.237500X-0.300000X0.237500X0.300000X-0.237500X0.300000X-0.237500X-0.300000X0*%
%ADD21RoundRect,0.237500X-0.300000X-0.237500X0.300000X-0.237500X0.300000X0.237500X-0.300000X0.237500X0*%
G04 APERTURE END LIST*
D10*
X141631958Y-83846150D02*
X141393863Y-84012816D01*
X141631958Y-84131864D02*
X141131958Y-84131864D01*
X141131958Y-84131864D02*
X141131958Y-83941388D01*
X141131958Y-83941388D02*
X141155768Y-83893769D01*
X141155768Y-83893769D02*
X141179577Y-83869959D01*
X141179577Y-83869959D02*
X141227196Y-83846150D01*
X141227196Y-83846150D02*
X141298625Y-83846150D01*
X141298625Y-83846150D02*
X141346244Y-83869959D01*
X141346244Y-83869959D02*
X141370053Y-83893769D01*
X141370053Y-83893769D02*
X141393863Y-83941388D01*
X141393863Y-83941388D02*
X141393863Y-84131864D01*
X141179577Y-83655673D02*
X141155768Y-83631864D01*
X141155768Y-83631864D02*
X141131958Y-83584245D01*
X141131958Y-83584245D02*
X141131958Y-83465197D01*
X141131958Y-83465197D02*
X141155768Y-83417578D01*
X141155768Y-83417578D02*
X141179577Y-83393769D01*
X141179577Y-83393769D02*
X141227196Y-83369959D01*
X141227196Y-83369959D02*
X141274815Y-83369959D01*
X141274815Y-83369959D02*
X141346244Y-83393769D01*
X141346244Y-83393769D02*
X141631958Y-83679483D01*
X141631958Y-83679483D02*
X141631958Y-83369959D01*
X136404657Y-83153625D02*
X136237991Y-82915530D01*
X136118943Y-83153625D02*
X136118943Y-82653625D01*
X136118943Y-82653625D02*
X136309419Y-82653625D01*
X136309419Y-82653625D02*
X136357038Y-82677435D01*
X136357038Y-82677435D02*
X136380848Y-82701244D01*
X136380848Y-82701244D02*
X136404657Y-82748863D01*
X136404657Y-82748863D02*
X136404657Y-82820292D01*
X136404657Y-82820292D02*
X136380848Y-82867911D01*
X136380848Y-82867911D02*
X136357038Y-82891720D01*
X136357038Y-82891720D02*
X136309419Y-82915530D01*
X136309419Y-82915530D02*
X136118943Y-82915530D01*
X136880848Y-83153625D02*
X136595134Y-83153625D01*
X136737991Y-83153625D02*
X136737991Y-82653625D01*
X136737991Y-82653625D02*
X136690372Y-82725054D01*
X136690372Y-82725054D02*
X136642753Y-82772673D01*
X136642753Y-82772673D02*
X136595134Y-82796482D01*
X130578224Y-83857585D02*
X130554415Y-83881395D01*
X130554415Y-83881395D02*
X130482986Y-83905204D01*
X130482986Y-83905204D02*
X130435367Y-83905204D01*
X130435367Y-83905204D02*
X130363939Y-83881395D01*
X130363939Y-83881395D02*
X130316320Y-83833775D01*
X130316320Y-83833775D02*
X130292510Y-83786156D01*
X130292510Y-83786156D02*
X130268701Y-83690918D01*
X130268701Y-83690918D02*
X130268701Y-83619490D01*
X130268701Y-83619490D02*
X130292510Y-83524252D01*
X130292510Y-83524252D02*
X130316320Y-83476633D01*
X130316320Y-83476633D02*
X130363939Y-83429014D01*
X130363939Y-83429014D02*
X130435367Y-83405204D01*
X130435367Y-83405204D02*
X130482986Y-83405204D01*
X130482986Y-83405204D02*
X130554415Y-83429014D01*
X130554415Y-83429014D02*
X130578224Y-83452823D01*
X131006796Y-83405204D02*
X130911558Y-83405204D01*
X130911558Y-83405204D02*
X130863939Y-83429014D01*
X130863939Y-83429014D02*
X130840129Y-83452823D01*
X130840129Y-83452823D02*
X130792510Y-83524252D01*
X130792510Y-83524252D02*
X130768701Y-83619490D01*
X130768701Y-83619490D02*
X130768701Y-83809966D01*
X130768701Y-83809966D02*
X130792510Y-83857585D01*
X130792510Y-83857585D02*
X130816320Y-83881395D01*
X130816320Y-83881395D02*
X130863939Y-83905204D01*
X130863939Y-83905204D02*
X130959177Y-83905204D01*
X130959177Y-83905204D02*
X131006796Y-83881395D01*
X131006796Y-83881395D02*
X131030605Y-83857585D01*
X131030605Y-83857585D02*
X131054415Y-83809966D01*
X131054415Y-83809966D02*
X131054415Y-83690918D01*
X131054415Y-83690918D02*
X131030605Y-83643299D01*
X131030605Y-83643299D02*
X131006796Y-83619490D01*
X131006796Y-83619490D02*
X130959177Y-83595680D01*
X130959177Y-83595680D02*
X130863939Y-83595680D01*
X130863939Y-83595680D02*
X130816320Y-83619490D01*
X130816320Y-83619490D02*
X130792510Y-83643299D01*
X130792510Y-83643299D02*
X130768701Y-83690918D01*
X132308474Y-85587835D02*
X132284665Y-85611645D01*
X132284665Y-85611645D02*
X132213236Y-85635454D01*
X132213236Y-85635454D02*
X132165617Y-85635454D01*
X132165617Y-85635454D02*
X132094189Y-85611645D01*
X132094189Y-85611645D02*
X132046570Y-85564025D01*
X132046570Y-85564025D02*
X132022760Y-85516406D01*
X132022760Y-85516406D02*
X131998951Y-85421168D01*
X131998951Y-85421168D02*
X131998951Y-85349740D01*
X131998951Y-85349740D02*
X132022760Y-85254502D01*
X132022760Y-85254502D02*
X132046570Y-85206883D01*
X132046570Y-85206883D02*
X132094189Y-85159264D01*
X132094189Y-85159264D02*
X132165617Y-85135454D01*
X132165617Y-85135454D02*
X132213236Y-85135454D01*
X132213236Y-85135454D02*
X132284665Y-85159264D01*
X132284665Y-85159264D02*
X132308474Y-85183073D01*
X132760855Y-85135454D02*
X132522760Y-85135454D01*
X132522760Y-85135454D02*
X132498951Y-85373549D01*
X132498951Y-85373549D02*
X132522760Y-85349740D01*
X132522760Y-85349740D02*
X132570379Y-85325930D01*
X132570379Y-85325930D02*
X132689427Y-85325930D01*
X132689427Y-85325930D02*
X132737046Y-85349740D01*
X132737046Y-85349740D02*
X132760855Y-85373549D01*
X132760855Y-85373549D02*
X132784665Y-85421168D01*
X132784665Y-85421168D02*
X132784665Y-85540216D01*
X132784665Y-85540216D02*
X132760855Y-85587835D01*
X132760855Y-85587835D02*
X132737046Y-85611645D01*
X132737046Y-85611645D02*
X132689427Y-85635454D01*
X132689427Y-85635454D02*
X132570379Y-85635454D01*
X132570379Y-85635454D02*
X132522760Y-85611645D01*
X132522760Y-85611645D02*
X132498951Y-85587835D01*
X134075788Y-80831397D02*
X134099598Y-80855206D01*
X134099598Y-80855206D02*
X134123407Y-80926635D01*
X134123407Y-80926635D02*
X134123407Y-80974254D01*
X134123407Y-80974254D02*
X134099598Y-81045682D01*
X134099598Y-81045682D02*
X134051978Y-81093301D01*
X134051978Y-81093301D02*
X134004359Y-81117111D01*
X134004359Y-81117111D02*
X133909121Y-81140920D01*
X133909121Y-81140920D02*
X133837693Y-81140920D01*
X133837693Y-81140920D02*
X133742455Y-81117111D01*
X133742455Y-81117111D02*
X133694836Y-81093301D01*
X133694836Y-81093301D02*
X133647217Y-81045682D01*
X133647217Y-81045682D02*
X133623407Y-80974254D01*
X133623407Y-80974254D02*
X133623407Y-80926635D01*
X133623407Y-80926635D02*
X133647217Y-80855206D01*
X133647217Y-80855206D02*
X133671026Y-80831397D01*
X133790074Y-80402825D02*
X134123407Y-80402825D01*
X133599598Y-80521873D02*
X133956740Y-80640920D01*
X133956740Y-80640920D02*
X133956740Y-80331397D01*
X141584339Y-77096150D02*
X141608149Y-77119959D01*
X141608149Y-77119959D02*
X141631958Y-77191388D01*
X141631958Y-77191388D02*
X141631958Y-77239007D01*
X141631958Y-77239007D02*
X141608149Y-77310435D01*
X141608149Y-77310435D02*
X141560529Y-77358054D01*
X141560529Y-77358054D02*
X141512910Y-77381864D01*
X141512910Y-77381864D02*
X141417672Y-77405673D01*
X141417672Y-77405673D02*
X141346244Y-77405673D01*
X141346244Y-77405673D02*
X141251006Y-77381864D01*
X141251006Y-77381864D02*
X141203387Y-77358054D01*
X141203387Y-77358054D02*
X141155768Y-77310435D01*
X141155768Y-77310435D02*
X141131958Y-77239007D01*
X141131958Y-77239007D02*
X141131958Y-77191388D01*
X141131958Y-77191388D02*
X141155768Y-77119959D01*
X141155768Y-77119959D02*
X141179577Y-77096150D01*
X141131958Y-76929483D02*
X141131958Y-76619959D01*
X141131958Y-76619959D02*
X141322434Y-76786626D01*
X141322434Y-76786626D02*
X141322434Y-76715197D01*
X141322434Y-76715197D02*
X141346244Y-76667578D01*
X141346244Y-76667578D02*
X141370053Y-76643769D01*
X141370053Y-76643769D02*
X141417672Y-76619959D01*
X141417672Y-76619959D02*
X141536720Y-76619959D01*
X141536720Y-76619959D02*
X141584339Y-76643769D01*
X141584339Y-76643769D02*
X141608149Y-76667578D01*
X141608149Y-76667578D02*
X141631958Y-76715197D01*
X141631958Y-76715197D02*
X141631958Y-76858054D01*
X141631958Y-76858054D02*
X141608149Y-76905673D01*
X141608149Y-76905673D02*
X141584339Y-76929483D01*
X141584339Y-80596150D02*
X141608149Y-80619959D01*
X141608149Y-80619959D02*
X141631958Y-80691388D01*
X141631958Y-80691388D02*
X141631958Y-80739007D01*
X141631958Y-80739007D02*
X141608149Y-80810435D01*
X141608149Y-80810435D02*
X141560529Y-80858054D01*
X141560529Y-80858054D02*
X141512910Y-80881864D01*
X141512910Y-80881864D02*
X141417672Y-80905673D01*
X141417672Y-80905673D02*
X141346244Y-80905673D01*
X141346244Y-80905673D02*
X141251006Y-80881864D01*
X141251006Y-80881864D02*
X141203387Y-80858054D01*
X141203387Y-80858054D02*
X141155768Y-80810435D01*
X141155768Y-80810435D02*
X141131958Y-80739007D01*
X141131958Y-80739007D02*
X141131958Y-80691388D01*
X141131958Y-80691388D02*
X141155768Y-80619959D01*
X141155768Y-80619959D02*
X141179577Y-80596150D01*
X141179577Y-80405673D02*
X141155768Y-80381864D01*
X141155768Y-80381864D02*
X141131958Y-80334245D01*
X141131958Y-80334245D02*
X141131958Y-80215197D01*
X141131958Y-80215197D02*
X141155768Y-80167578D01*
X141155768Y-80167578D02*
X141179577Y-80143769D01*
X141179577Y-80143769D02*
X141227196Y-80119959D01*
X141227196Y-80119959D02*
X141274815Y-80119959D01*
X141274815Y-80119959D02*
X141346244Y-80143769D01*
X141346244Y-80143769D02*
X141631958Y-80429483D01*
X141631958Y-80429483D02*
X141631958Y-80119959D01*
X136416666Y-84928490D02*
X136392857Y-84952300D01*
X136392857Y-84952300D02*
X136321428Y-84976109D01*
X136321428Y-84976109D02*
X136273809Y-84976109D01*
X136273809Y-84976109D02*
X136202381Y-84952300D01*
X136202381Y-84952300D02*
X136154762Y-84904680D01*
X136154762Y-84904680D02*
X136130952Y-84857061D01*
X136130952Y-84857061D02*
X136107143Y-84761823D01*
X136107143Y-84761823D02*
X136107143Y-84690395D01*
X136107143Y-84690395D02*
X136130952Y-84595157D01*
X136130952Y-84595157D02*
X136154762Y-84547538D01*
X136154762Y-84547538D02*
X136202381Y-84499919D01*
X136202381Y-84499919D02*
X136273809Y-84476109D01*
X136273809Y-84476109D02*
X136321428Y-84476109D01*
X136321428Y-84476109D02*
X136392857Y-84499919D01*
X136392857Y-84499919D02*
X136416666Y-84523728D01*
X136892857Y-84976109D02*
X136607143Y-84976109D01*
X136750000Y-84976109D02*
X136750000Y-84476109D01*
X136750000Y-84476109D02*
X136702381Y-84547538D01*
X136702381Y-84547538D02*
X136654762Y-84595157D01*
X136654762Y-84595157D02*
X136607143Y-84618966D01*
D11*
X135850000Y-80610000D02*
X137650000Y-80610000D01*
X136850000Y-77390000D02*
X136050000Y-77390000D01*
X136850000Y-77390000D02*
X137650000Y-77390000D01*
X135550000Y-77440000D02*
X135310000Y-77110000D01*
X135790000Y-77110000D01*
X135550000Y-77440000D01*
G36*
X135550000Y-77440000D02*
G01*
X135310000Y-77110000D01*
X135790000Y-77110000D01*
X135550000Y-77440000D01*
G37*
X139727500Y-83004724D02*
X139727500Y-82495276D01*
X140772500Y-83004724D02*
X140772500Y-82495276D01*
X137245276Y-81477500D02*
X137754724Y-81477500D01*
X137245276Y-82522500D02*
X137754724Y-82522500D01*
X131896267Y-83010000D02*
X131603733Y-83010000D01*
X131896267Y-81990000D02*
X131603733Y-81990000D01*
X133396267Y-84760000D02*
X133103733Y-84760000D01*
X133396267Y-83740000D02*
X133103733Y-83740000D01*
X133260000Y-79353733D02*
X133260000Y-79646267D01*
X132240000Y-79353733D02*
X132240000Y-79646267D01*
X139740000Y-76033767D02*
X139740000Y-75741233D01*
X140760000Y-76033767D02*
X140760000Y-75741233D01*
X140760000Y-79172483D02*
X140760000Y-79465017D01*
X139740000Y-79172483D02*
X139740000Y-79465017D01*
X137353733Y-83240000D02*
X137646267Y-83240000D01*
X137353733Y-84260000D02*
X137646267Y-84260000D01*
%LPC*%
D12*
X129750000Y-78187500D03*
D13*
X129750000Y-79187500D03*
X129750000Y-80187500D03*
D14*
X142250000Y-77687500D03*
D13*
X142250000Y-78687500D03*
X142250000Y-79687500D03*
X142250000Y-80687500D03*
D15*
X135400000Y-78050000D03*
X135400000Y-79000000D03*
X135400000Y-79950000D03*
X138100000Y-79950000D03*
X138100000Y-78050000D03*
D16*
X140250000Y-83662500D03*
X140250000Y-81837500D03*
D17*
X136587500Y-82000000D03*
X138412500Y-82000000D03*
D18*
X132612500Y-82500000D03*
X130887500Y-82500000D03*
X134112500Y-84250000D03*
X132387500Y-84250000D03*
D19*
X132750000Y-78637500D03*
X132750000Y-80362500D03*
D20*
X140250000Y-76750000D03*
X140250000Y-75025000D03*
D19*
X140250000Y-78456250D03*
X140250000Y-80181250D03*
D21*
X136637500Y-83750000D03*
X138362500Y-83750000D03*
%LPD*%
M02*
