%TF.GenerationSoftware,KiCad,Pcbnew,8.0.6*%
%TF.CreationDate,2025-07-11T16:26:12-05:00*%
%TF.ProjectId,PortFrontV1,506f7274-4672-46f6-9e74-56312e6b6963,rev?*%
%TF.SameCoordinates,Original*%
%TF.FileFunction,Drillmap*%
%TF.FilePolarity,Positive*%
%FSLAX45Y45*%
G04 Gerber Fmt 4.5, Leading zero omitted, Abs format (unit mm)*
G04 Created by KiCad (PCBNEW 8.0.6) date 2025-07-11 16:26:12*
%MOMM*%
%LPD*%
G01*
G04 APERTURE LIST*
%ADD10C,0.050000*%
%ADD11C,0.200000*%
%ADD12C,0.100000*%
%ADD13C,0.132500*%
G04 APERTURE END LIST*
D10*
X7725000Y-6250000D02*
G75*
G02*
X7425000Y-6250000I-150000J0D01*
G01*
X7425000Y-6250000D02*
G75*
G02*
X7725000Y-6250000I150000J0D01*
G01*
X8550000Y-5000000D02*
X6600000Y-5000000D01*
X7900000Y-7050000D02*
X7850000Y-7100000D01*
X8400000Y-6100000D02*
X7850000Y-6650000D01*
X7300000Y-6650000D02*
X7300000Y-6850000D01*
X6750000Y-6100000D02*
X7300000Y-6650000D01*
X7850000Y-6850000D02*
X7900000Y-6900000D01*
X7900000Y-6900000D02*
X7900000Y-7050000D01*
X6550000Y-5050000D02*
X6550000Y-5300000D01*
X7850000Y-6650000D02*
X7850000Y-6850000D01*
X8400000Y-5500000D02*
X8400000Y-6100000D01*
X7300000Y-7100000D02*
X7850000Y-7100000D01*
X6550000Y-5300000D02*
X6750000Y-5500000D01*
X7250000Y-7050000D02*
X7300000Y-7100000D01*
X8600000Y-5300000D02*
X8400000Y-5500000D01*
X8600000Y-5050000D02*
X8600000Y-5300000D01*
X8550000Y-5000000D02*
X8600000Y-5050000D01*
X6600000Y-5000000D02*
X6550000Y-5050000D01*
X6750000Y-5500000D02*
X6750000Y-6100000D01*
X7250000Y-6900000D02*
X7250000Y-7050000D01*
X7300000Y-6850000D02*
X7250000Y-6900000D01*
D11*
D12*
X6948664Y-5897440D02*
X6998664Y-5947440D01*
X6998664Y-5897440D02*
X6948664Y-5947440D01*
X7024453Y-5723593D02*
X7074453Y-5773593D01*
X7074453Y-5723593D02*
X7024453Y-5773593D01*
X7150000Y-5825000D02*
X7200000Y-5875000D01*
X7200000Y-5825000D02*
X7150000Y-5875000D01*
X7200000Y-5675000D02*
X7250000Y-5725000D01*
X7250000Y-5675000D02*
X7200000Y-5725000D01*
X7350000Y-5775000D02*
X7400000Y-5825000D01*
X7400000Y-5775000D02*
X7350000Y-5825000D01*
X7425000Y-5625000D02*
X7475000Y-5675000D01*
X7475000Y-5625000D02*
X7425000Y-5675000D01*
X7550000Y-5750000D02*
X7600000Y-5800000D01*
X7600000Y-5750000D02*
X7550000Y-5800000D01*
X7675000Y-5625000D02*
X7725000Y-5675000D01*
X7725000Y-5625000D02*
X7675000Y-5675000D01*
X7750000Y-5775000D02*
X7800000Y-5825000D01*
X7800000Y-5775000D02*
X7750000Y-5825000D01*
X7900000Y-5675000D02*
X7950000Y-5725000D01*
X7950000Y-5675000D02*
X7900000Y-5725000D01*
X7950000Y-5825000D02*
X8000000Y-5875000D01*
X8000000Y-5825000D02*
X7950000Y-5875000D01*
X8075547Y-5723593D02*
X8125547Y-5773593D01*
X8125547Y-5723593D02*
X8075547Y-5773593D01*
X8151336Y-5897440D02*
X8201336Y-5947440D01*
X8201336Y-5897440D02*
X8151336Y-5947440D01*
D13*
X6879250Y-5375000D02*
G75*
G02*
X6746750Y-5375000I-66250J0D01*
G01*
X6746750Y-5375000D02*
G75*
G02*
X6879250Y-5375000I66250J0D01*
G01*
X7006250Y-5175000D02*
G75*
G02*
X6873750Y-5175000I-66250J0D01*
G01*
X6873750Y-5175000D02*
G75*
G02*
X7006250Y-5175000I66250J0D01*
G01*
X7133250Y-5375000D02*
G75*
G02*
X7000750Y-5375000I-66250J0D01*
G01*
X7000750Y-5375000D02*
G75*
G02*
X7133250Y-5375000I66250J0D01*
G01*
X7260250Y-5175000D02*
G75*
G02*
X7127750Y-5175000I-66250J0D01*
G01*
X7127750Y-5175000D02*
G75*
G02*
X7260250Y-5175000I66250J0D01*
G01*
X7387250Y-5375000D02*
G75*
G02*
X7254750Y-5375000I-66250J0D01*
G01*
X7254750Y-5375000D02*
G75*
G02*
X7387250Y-5375000I66250J0D01*
G01*
X7514250Y-5175000D02*
G75*
G02*
X7381750Y-5175000I-66250J0D01*
G01*
X7381750Y-5175000D02*
G75*
G02*
X7514250Y-5175000I66250J0D01*
G01*
X7641250Y-5375000D02*
G75*
G02*
X7508750Y-5375000I-66250J0D01*
G01*
X7508750Y-5375000D02*
G75*
G02*
X7641250Y-5375000I66250J0D01*
G01*
X7768250Y-5175000D02*
G75*
G02*
X7635750Y-5175000I-66250J0D01*
G01*
X7635750Y-5175000D02*
G75*
G02*
X7768250Y-5175000I66250J0D01*
G01*
X7895250Y-5375000D02*
G75*
G02*
X7762750Y-5375000I-66250J0D01*
G01*
X7762750Y-5375000D02*
G75*
G02*
X7895250Y-5375000I66250J0D01*
G01*
X8022250Y-5175000D02*
G75*
G02*
X7889750Y-5175000I-66250J0D01*
G01*
X7889750Y-5175000D02*
G75*
G02*
X8022250Y-5175000I66250J0D01*
G01*
X8149250Y-5375000D02*
G75*
G02*
X8016750Y-5375000I-66250J0D01*
G01*
X8016750Y-5375000D02*
G75*
G02*
X8149250Y-5375000I66250J0D01*
G01*
X8276250Y-5175000D02*
G75*
G02*
X8143750Y-5175000I-66250J0D01*
G01*
X8143750Y-5175000D02*
G75*
G02*
X8276250Y-5175000I66250J0D01*
G01*
X8403250Y-5375000D02*
G75*
G02*
X8270750Y-5375000I-66250J0D01*
G01*
X8270750Y-5375000D02*
G75*
G02*
X8403250Y-5375000I66250J0D01*
G01*
D11*
X6808277Y-7413984D02*
X6808277Y-7213984D01*
X6808277Y-7213984D02*
X6855896Y-7213984D01*
X6855896Y-7213984D02*
X6884467Y-7223508D01*
X6884467Y-7223508D02*
X6903515Y-7242555D01*
X6903515Y-7242555D02*
X6913039Y-7261603D01*
X6913039Y-7261603D02*
X6922562Y-7299698D01*
X6922562Y-7299698D02*
X6922562Y-7328269D01*
X6922562Y-7328269D02*
X6913039Y-7366365D01*
X6913039Y-7366365D02*
X6903515Y-7385412D01*
X6903515Y-7385412D02*
X6884467Y-7404460D01*
X6884467Y-7404460D02*
X6855896Y-7413984D01*
X6855896Y-7413984D02*
X6808277Y-7413984D01*
X7008277Y-7413984D02*
X7008277Y-7280650D01*
X7008277Y-7318746D02*
X7017801Y-7299698D01*
X7017801Y-7299698D02*
X7027324Y-7290174D01*
X7027324Y-7290174D02*
X7046372Y-7280650D01*
X7046372Y-7280650D02*
X7065420Y-7280650D01*
X7132086Y-7413984D02*
X7132086Y-7280650D01*
X7132086Y-7213984D02*
X7122562Y-7223508D01*
X7122562Y-7223508D02*
X7132086Y-7233031D01*
X7132086Y-7233031D02*
X7141610Y-7223508D01*
X7141610Y-7223508D02*
X7132086Y-7213984D01*
X7132086Y-7213984D02*
X7132086Y-7233031D01*
X7255896Y-7413984D02*
X7236848Y-7404460D01*
X7236848Y-7404460D02*
X7227324Y-7385412D01*
X7227324Y-7385412D02*
X7227324Y-7213984D01*
X7360658Y-7413984D02*
X7341610Y-7404460D01*
X7341610Y-7404460D02*
X7332086Y-7385412D01*
X7332086Y-7385412D02*
X7332086Y-7213984D01*
X7589229Y-7413984D02*
X7589229Y-7213984D01*
X7589229Y-7213984D02*
X7655896Y-7356841D01*
X7655896Y-7356841D02*
X7722562Y-7213984D01*
X7722562Y-7213984D02*
X7722562Y-7413984D01*
X7903515Y-7413984D02*
X7903515Y-7309222D01*
X7903515Y-7309222D02*
X7893991Y-7290174D01*
X7893991Y-7290174D02*
X7874943Y-7280650D01*
X7874943Y-7280650D02*
X7836848Y-7280650D01*
X7836848Y-7280650D02*
X7817801Y-7290174D01*
X7903515Y-7404460D02*
X7884467Y-7413984D01*
X7884467Y-7413984D02*
X7836848Y-7413984D01*
X7836848Y-7413984D02*
X7817801Y-7404460D01*
X7817801Y-7404460D02*
X7808277Y-7385412D01*
X7808277Y-7385412D02*
X7808277Y-7366365D01*
X7808277Y-7366365D02*
X7817801Y-7347317D01*
X7817801Y-7347317D02*
X7836848Y-7337793D01*
X7836848Y-7337793D02*
X7884467Y-7337793D01*
X7884467Y-7337793D02*
X7903515Y-7328269D01*
X7998753Y-7280650D02*
X7998753Y-7480650D01*
X7998753Y-7290174D02*
X8017801Y-7280650D01*
X8017801Y-7280650D02*
X8055896Y-7280650D01*
X8055896Y-7280650D02*
X8074943Y-7290174D01*
X8074943Y-7290174D02*
X8084467Y-7299698D01*
X8084467Y-7299698D02*
X8093991Y-7318746D01*
X8093991Y-7318746D02*
X8093991Y-7375888D01*
X8093991Y-7375888D02*
X8084467Y-7394936D01*
X8084467Y-7394936D02*
X8074943Y-7404460D01*
X8074943Y-7404460D02*
X8055896Y-7413984D01*
X8055896Y-7413984D02*
X8017801Y-7413984D01*
X8017801Y-7413984D02*
X7998753Y-7404460D01*
X8179705Y-7394936D02*
X8189229Y-7404460D01*
X8189229Y-7404460D02*
X8179705Y-7413984D01*
X8179705Y-7413984D02*
X8170182Y-7404460D01*
X8170182Y-7404460D02*
X8179705Y-7394936D01*
X8179705Y-7394936D02*
X8179705Y-7413984D01*
X8179705Y-7290174D02*
X8189229Y-7299698D01*
X8189229Y-7299698D02*
X8179705Y-7309222D01*
X8179705Y-7309222D02*
X8170182Y-7299698D01*
X8170182Y-7299698D02*
X8179705Y-7290174D01*
X8179705Y-7290174D02*
X8179705Y-7309222D01*
D12*
X6497500Y-7717500D02*
X6547500Y-7767500D01*
X6547500Y-7717500D02*
X6497500Y-7767500D01*
D11*
X6846372Y-7633984D02*
X6865420Y-7633984D01*
X6865420Y-7633984D02*
X6884467Y-7643508D01*
X6884467Y-7643508D02*
X6893991Y-7653031D01*
X6893991Y-7653031D02*
X6903515Y-7672079D01*
X6903515Y-7672079D02*
X6913039Y-7710174D01*
X6913039Y-7710174D02*
X6913039Y-7757793D01*
X6913039Y-7757793D02*
X6903515Y-7795888D01*
X6903515Y-7795888D02*
X6893991Y-7814936D01*
X6893991Y-7814936D02*
X6884467Y-7824460D01*
X6884467Y-7824460D02*
X6865420Y-7833984D01*
X6865420Y-7833984D02*
X6846372Y-7833984D01*
X6846372Y-7833984D02*
X6827324Y-7824460D01*
X6827324Y-7824460D02*
X6817801Y-7814936D01*
X6817801Y-7814936D02*
X6808277Y-7795888D01*
X6808277Y-7795888D02*
X6798753Y-7757793D01*
X6798753Y-7757793D02*
X6798753Y-7710174D01*
X6798753Y-7710174D02*
X6808277Y-7672079D01*
X6808277Y-7672079D02*
X6817801Y-7653031D01*
X6817801Y-7653031D02*
X6827324Y-7643508D01*
X6827324Y-7643508D02*
X6846372Y-7633984D01*
X6998753Y-7814936D02*
X7008277Y-7824460D01*
X7008277Y-7824460D02*
X6998753Y-7833984D01*
X6998753Y-7833984D02*
X6989229Y-7824460D01*
X6989229Y-7824460D02*
X6998753Y-7814936D01*
X6998753Y-7814936D02*
X6998753Y-7833984D01*
X7189229Y-7633984D02*
X7093991Y-7633984D01*
X7093991Y-7633984D02*
X7084467Y-7729222D01*
X7084467Y-7729222D02*
X7093991Y-7719698D01*
X7093991Y-7719698D02*
X7113039Y-7710174D01*
X7113039Y-7710174D02*
X7160658Y-7710174D01*
X7160658Y-7710174D02*
X7179705Y-7719698D01*
X7179705Y-7719698D02*
X7189229Y-7729222D01*
X7189229Y-7729222D02*
X7198753Y-7748269D01*
X7198753Y-7748269D02*
X7198753Y-7795888D01*
X7198753Y-7795888D02*
X7189229Y-7814936D01*
X7189229Y-7814936D02*
X7179705Y-7824460D01*
X7179705Y-7824460D02*
X7160658Y-7833984D01*
X7160658Y-7833984D02*
X7113039Y-7833984D01*
X7113039Y-7833984D02*
X7093991Y-7824460D01*
X7093991Y-7824460D02*
X7084467Y-7814936D01*
X7322562Y-7633984D02*
X7341610Y-7633984D01*
X7341610Y-7633984D02*
X7360658Y-7643508D01*
X7360658Y-7643508D02*
X7370182Y-7653031D01*
X7370182Y-7653031D02*
X7379705Y-7672079D01*
X7379705Y-7672079D02*
X7389229Y-7710174D01*
X7389229Y-7710174D02*
X7389229Y-7757793D01*
X7389229Y-7757793D02*
X7379705Y-7795888D01*
X7379705Y-7795888D02*
X7370182Y-7814936D01*
X7370182Y-7814936D02*
X7360658Y-7824460D01*
X7360658Y-7824460D02*
X7341610Y-7833984D01*
X7341610Y-7833984D02*
X7322562Y-7833984D01*
X7322562Y-7833984D02*
X7303515Y-7824460D01*
X7303515Y-7824460D02*
X7293991Y-7814936D01*
X7293991Y-7814936D02*
X7284467Y-7795888D01*
X7284467Y-7795888D02*
X7274943Y-7757793D01*
X7274943Y-7757793D02*
X7274943Y-7710174D01*
X7274943Y-7710174D02*
X7284467Y-7672079D01*
X7284467Y-7672079D02*
X7293991Y-7653031D01*
X7293991Y-7653031D02*
X7303515Y-7643508D01*
X7303515Y-7643508D02*
X7322562Y-7633984D01*
X7513039Y-7633984D02*
X7532086Y-7633984D01*
X7532086Y-7633984D02*
X7551134Y-7643508D01*
X7551134Y-7643508D02*
X7560658Y-7653031D01*
X7560658Y-7653031D02*
X7570182Y-7672079D01*
X7570182Y-7672079D02*
X7579705Y-7710174D01*
X7579705Y-7710174D02*
X7579705Y-7757793D01*
X7579705Y-7757793D02*
X7570182Y-7795888D01*
X7570182Y-7795888D02*
X7560658Y-7814936D01*
X7560658Y-7814936D02*
X7551134Y-7824460D01*
X7551134Y-7824460D02*
X7532086Y-7833984D01*
X7532086Y-7833984D02*
X7513039Y-7833984D01*
X7513039Y-7833984D02*
X7493991Y-7824460D01*
X7493991Y-7824460D02*
X7484467Y-7814936D01*
X7484467Y-7814936D02*
X7474943Y-7795888D01*
X7474943Y-7795888D02*
X7465420Y-7757793D01*
X7465420Y-7757793D02*
X7465420Y-7710174D01*
X7465420Y-7710174D02*
X7474943Y-7672079D01*
X7474943Y-7672079D02*
X7484467Y-7653031D01*
X7484467Y-7653031D02*
X7493991Y-7643508D01*
X7493991Y-7643508D02*
X7513039Y-7633984D01*
X7665420Y-7833984D02*
X7665420Y-7700650D01*
X7665420Y-7719698D02*
X7674943Y-7710174D01*
X7674943Y-7710174D02*
X7693991Y-7700650D01*
X7693991Y-7700650D02*
X7722563Y-7700650D01*
X7722563Y-7700650D02*
X7741610Y-7710174D01*
X7741610Y-7710174D02*
X7751134Y-7729222D01*
X7751134Y-7729222D02*
X7751134Y-7833984D01*
X7751134Y-7729222D02*
X7760658Y-7710174D01*
X7760658Y-7710174D02*
X7779705Y-7700650D01*
X7779705Y-7700650D02*
X7808277Y-7700650D01*
X7808277Y-7700650D02*
X7827324Y-7710174D01*
X7827324Y-7710174D02*
X7836848Y-7729222D01*
X7836848Y-7729222D02*
X7836848Y-7833984D01*
X7932086Y-7833984D02*
X7932086Y-7700650D01*
X7932086Y-7719698D02*
X7941610Y-7710174D01*
X7941610Y-7710174D02*
X7960658Y-7700650D01*
X7960658Y-7700650D02*
X7989229Y-7700650D01*
X7989229Y-7700650D02*
X8008277Y-7710174D01*
X8008277Y-7710174D02*
X8017801Y-7729222D01*
X8017801Y-7729222D02*
X8017801Y-7833984D01*
X8017801Y-7729222D02*
X8027324Y-7710174D01*
X8027324Y-7710174D02*
X8046372Y-7700650D01*
X8046372Y-7700650D02*
X8074943Y-7700650D01*
X8074943Y-7700650D02*
X8093991Y-7710174D01*
X8093991Y-7710174D02*
X8103515Y-7729222D01*
X8103515Y-7729222D02*
X8103515Y-7833984D01*
X8493991Y-7624460D02*
X8322563Y-7881603D01*
X8751134Y-7633984D02*
X8770182Y-7633984D01*
X8770182Y-7633984D02*
X8789229Y-7643508D01*
X8789229Y-7643508D02*
X8798753Y-7653031D01*
X8798753Y-7653031D02*
X8808277Y-7672079D01*
X8808277Y-7672079D02*
X8817801Y-7710174D01*
X8817801Y-7710174D02*
X8817801Y-7757793D01*
X8817801Y-7757793D02*
X8808277Y-7795888D01*
X8808277Y-7795888D02*
X8798753Y-7814936D01*
X8798753Y-7814936D02*
X8789229Y-7824460D01*
X8789229Y-7824460D02*
X8770182Y-7833984D01*
X8770182Y-7833984D02*
X8751134Y-7833984D01*
X8751134Y-7833984D02*
X8732087Y-7824460D01*
X8732087Y-7824460D02*
X8722563Y-7814936D01*
X8722563Y-7814936D02*
X8713039Y-7795888D01*
X8713039Y-7795888D02*
X8703515Y-7757793D01*
X8703515Y-7757793D02*
X8703515Y-7710174D01*
X8703515Y-7710174D02*
X8713039Y-7672079D01*
X8713039Y-7672079D02*
X8722563Y-7653031D01*
X8722563Y-7653031D02*
X8732087Y-7643508D01*
X8732087Y-7643508D02*
X8751134Y-7633984D01*
X8903515Y-7814936D02*
X8913039Y-7824460D01*
X8913039Y-7824460D02*
X8903515Y-7833984D01*
X8903515Y-7833984D02*
X8893991Y-7824460D01*
X8893991Y-7824460D02*
X8903515Y-7814936D01*
X8903515Y-7814936D02*
X8903515Y-7833984D01*
X9036848Y-7633984D02*
X9055896Y-7633984D01*
X9055896Y-7633984D02*
X9074944Y-7643508D01*
X9074944Y-7643508D02*
X9084468Y-7653031D01*
X9084468Y-7653031D02*
X9093991Y-7672079D01*
X9093991Y-7672079D02*
X9103515Y-7710174D01*
X9103515Y-7710174D02*
X9103515Y-7757793D01*
X9103515Y-7757793D02*
X9093991Y-7795888D01*
X9093991Y-7795888D02*
X9084468Y-7814936D01*
X9084468Y-7814936D02*
X9074944Y-7824460D01*
X9074944Y-7824460D02*
X9055896Y-7833984D01*
X9055896Y-7833984D02*
X9036848Y-7833984D01*
X9036848Y-7833984D02*
X9017801Y-7824460D01*
X9017801Y-7824460D02*
X9008277Y-7814936D01*
X9008277Y-7814936D02*
X8998753Y-7795888D01*
X8998753Y-7795888D02*
X8989229Y-7757793D01*
X8989229Y-7757793D02*
X8989229Y-7710174D01*
X8989229Y-7710174D02*
X8998753Y-7672079D01*
X8998753Y-7672079D02*
X9008277Y-7653031D01*
X9008277Y-7653031D02*
X9017801Y-7643508D01*
X9017801Y-7643508D02*
X9036848Y-7633984D01*
X9293991Y-7833984D02*
X9179706Y-7833984D01*
X9236848Y-7833984D02*
X9236848Y-7633984D01*
X9236848Y-7633984D02*
X9217801Y-7662555D01*
X9217801Y-7662555D02*
X9198753Y-7681603D01*
X9198753Y-7681603D02*
X9179706Y-7691127D01*
X9389229Y-7833984D02*
X9427325Y-7833984D01*
X9427325Y-7833984D02*
X9446372Y-7824460D01*
X9446372Y-7824460D02*
X9455896Y-7814936D01*
X9455896Y-7814936D02*
X9474944Y-7786365D01*
X9474944Y-7786365D02*
X9484468Y-7748269D01*
X9484468Y-7748269D02*
X9484468Y-7672079D01*
X9484468Y-7672079D02*
X9474944Y-7653031D01*
X9474944Y-7653031D02*
X9465420Y-7643508D01*
X9465420Y-7643508D02*
X9446372Y-7633984D01*
X9446372Y-7633984D02*
X9408277Y-7633984D01*
X9408277Y-7633984D02*
X9389229Y-7643508D01*
X9389229Y-7643508D02*
X9379706Y-7653031D01*
X9379706Y-7653031D02*
X9370182Y-7672079D01*
X9370182Y-7672079D02*
X9370182Y-7719698D01*
X9370182Y-7719698D02*
X9379706Y-7738746D01*
X9379706Y-7738746D02*
X9389229Y-7748269D01*
X9389229Y-7748269D02*
X9408277Y-7757793D01*
X9408277Y-7757793D02*
X9446372Y-7757793D01*
X9446372Y-7757793D02*
X9465420Y-7748269D01*
X9465420Y-7748269D02*
X9474944Y-7738746D01*
X9474944Y-7738746D02*
X9484468Y-7719698D01*
X9551134Y-7633984D02*
X9684468Y-7633984D01*
X9684468Y-7633984D02*
X9598753Y-7833984D01*
X9751134Y-7633984D02*
X9751134Y-7672079D01*
X9827325Y-7633984D02*
X9827325Y-7672079D01*
X10122563Y-7910174D02*
X10113039Y-7900650D01*
X10113039Y-7900650D02*
X10093991Y-7872079D01*
X10093991Y-7872079D02*
X10084468Y-7853031D01*
X10084468Y-7853031D02*
X10074944Y-7824460D01*
X10074944Y-7824460D02*
X10065420Y-7776841D01*
X10065420Y-7776841D02*
X10065420Y-7738746D01*
X10065420Y-7738746D02*
X10074944Y-7691127D01*
X10074944Y-7691127D02*
X10084468Y-7662555D01*
X10084468Y-7662555D02*
X10093991Y-7643508D01*
X10093991Y-7643508D02*
X10113039Y-7614936D01*
X10113039Y-7614936D02*
X10122563Y-7605412D01*
X10303515Y-7833984D02*
X10189230Y-7833984D01*
X10246372Y-7833984D02*
X10246372Y-7633984D01*
X10246372Y-7633984D02*
X10227325Y-7662555D01*
X10227325Y-7662555D02*
X10208277Y-7681603D01*
X10208277Y-7681603D02*
X10189230Y-7691127D01*
X10370182Y-7633984D02*
X10493991Y-7633984D01*
X10493991Y-7633984D02*
X10427325Y-7710174D01*
X10427325Y-7710174D02*
X10455896Y-7710174D01*
X10455896Y-7710174D02*
X10474944Y-7719698D01*
X10474944Y-7719698D02*
X10484468Y-7729222D01*
X10484468Y-7729222D02*
X10493991Y-7748269D01*
X10493991Y-7748269D02*
X10493991Y-7795888D01*
X10493991Y-7795888D02*
X10484468Y-7814936D01*
X10484468Y-7814936D02*
X10474944Y-7824460D01*
X10474944Y-7824460D02*
X10455896Y-7833984D01*
X10455896Y-7833984D02*
X10398753Y-7833984D01*
X10398753Y-7833984D02*
X10379706Y-7824460D01*
X10379706Y-7824460D02*
X10370182Y-7814936D01*
X10732087Y-7833984D02*
X10732087Y-7633984D01*
X10817801Y-7833984D02*
X10817801Y-7729222D01*
X10817801Y-7729222D02*
X10808277Y-7710174D01*
X10808277Y-7710174D02*
X10789230Y-7700650D01*
X10789230Y-7700650D02*
X10760658Y-7700650D01*
X10760658Y-7700650D02*
X10741611Y-7710174D01*
X10741611Y-7710174D02*
X10732087Y-7719698D01*
X10941611Y-7833984D02*
X10922563Y-7824460D01*
X10922563Y-7824460D02*
X10913039Y-7814936D01*
X10913039Y-7814936D02*
X10903515Y-7795888D01*
X10903515Y-7795888D02*
X10903515Y-7738746D01*
X10903515Y-7738746D02*
X10913039Y-7719698D01*
X10913039Y-7719698D02*
X10922563Y-7710174D01*
X10922563Y-7710174D02*
X10941611Y-7700650D01*
X10941611Y-7700650D02*
X10970182Y-7700650D01*
X10970182Y-7700650D02*
X10989230Y-7710174D01*
X10989230Y-7710174D02*
X10998753Y-7719698D01*
X10998753Y-7719698D02*
X11008277Y-7738746D01*
X11008277Y-7738746D02*
X11008277Y-7795888D01*
X11008277Y-7795888D02*
X10998753Y-7814936D01*
X10998753Y-7814936D02*
X10989230Y-7824460D01*
X10989230Y-7824460D02*
X10970182Y-7833984D01*
X10970182Y-7833984D02*
X10941611Y-7833984D01*
X11122563Y-7833984D02*
X11103515Y-7824460D01*
X11103515Y-7824460D02*
X11093992Y-7805412D01*
X11093992Y-7805412D02*
X11093992Y-7633984D01*
X11274944Y-7824460D02*
X11255896Y-7833984D01*
X11255896Y-7833984D02*
X11217801Y-7833984D01*
X11217801Y-7833984D02*
X11198753Y-7824460D01*
X11198753Y-7824460D02*
X11189230Y-7805412D01*
X11189230Y-7805412D02*
X11189230Y-7729222D01*
X11189230Y-7729222D02*
X11198753Y-7710174D01*
X11198753Y-7710174D02*
X11217801Y-7700650D01*
X11217801Y-7700650D02*
X11255896Y-7700650D01*
X11255896Y-7700650D02*
X11274944Y-7710174D01*
X11274944Y-7710174D02*
X11284468Y-7729222D01*
X11284468Y-7729222D02*
X11284468Y-7748269D01*
X11284468Y-7748269D02*
X11189230Y-7767317D01*
X11360658Y-7824460D02*
X11379706Y-7833984D01*
X11379706Y-7833984D02*
X11417801Y-7833984D01*
X11417801Y-7833984D02*
X11436849Y-7824460D01*
X11436849Y-7824460D02*
X11446372Y-7805412D01*
X11446372Y-7805412D02*
X11446372Y-7795888D01*
X11446372Y-7795888D02*
X11436849Y-7776841D01*
X11436849Y-7776841D02*
X11417801Y-7767317D01*
X11417801Y-7767317D02*
X11389230Y-7767317D01*
X11389230Y-7767317D02*
X11370182Y-7757793D01*
X11370182Y-7757793D02*
X11360658Y-7738746D01*
X11360658Y-7738746D02*
X11360658Y-7729222D01*
X11360658Y-7729222D02*
X11370182Y-7710174D01*
X11370182Y-7710174D02*
X11389230Y-7700650D01*
X11389230Y-7700650D02*
X11417801Y-7700650D01*
X11417801Y-7700650D02*
X11436849Y-7710174D01*
X11513039Y-7910174D02*
X11522563Y-7900650D01*
X11522563Y-7900650D02*
X11541611Y-7872079D01*
X11541611Y-7872079D02*
X11551134Y-7853031D01*
X11551134Y-7853031D02*
X11560658Y-7824460D01*
X11560658Y-7824460D02*
X11570182Y-7776841D01*
X11570182Y-7776841D02*
X11570182Y-7738746D01*
X11570182Y-7738746D02*
X11560658Y-7691127D01*
X11560658Y-7691127D02*
X11551134Y-7662555D01*
X11551134Y-7662555D02*
X11541611Y-7643508D01*
X11541611Y-7643508D02*
X11522563Y-7614936D01*
X11522563Y-7614936D02*
X11513039Y-7605412D01*
D13*
X6547500Y-8006500D02*
G75*
G02*
X6415000Y-8006500I-66250J0D01*
G01*
X6415000Y-8006500D02*
G75*
G02*
X6547500Y-8006500I66250J0D01*
G01*
D11*
X6913039Y-8097984D02*
X6798753Y-8097984D01*
X6855896Y-8097984D02*
X6855896Y-7897984D01*
X6855896Y-7897984D02*
X6836848Y-7926555D01*
X6836848Y-7926555D02*
X6817801Y-7945603D01*
X6817801Y-7945603D02*
X6798753Y-7955127D01*
X6998753Y-8078936D02*
X7008277Y-8088460D01*
X7008277Y-8088460D02*
X6998753Y-8097984D01*
X6998753Y-8097984D02*
X6989229Y-8088460D01*
X6989229Y-8088460D02*
X6998753Y-8078936D01*
X6998753Y-8078936D02*
X6998753Y-8097984D01*
X7074943Y-7897984D02*
X7198753Y-7897984D01*
X7198753Y-7897984D02*
X7132086Y-7974174D01*
X7132086Y-7974174D02*
X7160658Y-7974174D01*
X7160658Y-7974174D02*
X7179705Y-7983698D01*
X7179705Y-7983698D02*
X7189229Y-7993222D01*
X7189229Y-7993222D02*
X7198753Y-8012269D01*
X7198753Y-8012269D02*
X7198753Y-8059888D01*
X7198753Y-8059888D02*
X7189229Y-8078936D01*
X7189229Y-8078936D02*
X7179705Y-8088460D01*
X7179705Y-8088460D02*
X7160658Y-8097984D01*
X7160658Y-8097984D02*
X7103515Y-8097984D01*
X7103515Y-8097984D02*
X7084467Y-8088460D01*
X7084467Y-8088460D02*
X7074943Y-8078936D01*
X7274943Y-7917031D02*
X7284467Y-7907508D01*
X7284467Y-7907508D02*
X7303515Y-7897984D01*
X7303515Y-7897984D02*
X7351134Y-7897984D01*
X7351134Y-7897984D02*
X7370182Y-7907508D01*
X7370182Y-7907508D02*
X7379705Y-7917031D01*
X7379705Y-7917031D02*
X7389229Y-7936079D01*
X7389229Y-7936079D02*
X7389229Y-7955127D01*
X7389229Y-7955127D02*
X7379705Y-7983698D01*
X7379705Y-7983698D02*
X7265420Y-8097984D01*
X7265420Y-8097984D02*
X7389229Y-8097984D01*
X7570182Y-7897984D02*
X7474943Y-7897984D01*
X7474943Y-7897984D02*
X7465420Y-7993222D01*
X7465420Y-7993222D02*
X7474943Y-7983698D01*
X7474943Y-7983698D02*
X7493991Y-7974174D01*
X7493991Y-7974174D02*
X7541610Y-7974174D01*
X7541610Y-7974174D02*
X7560658Y-7983698D01*
X7560658Y-7983698D02*
X7570182Y-7993222D01*
X7570182Y-7993222D02*
X7579705Y-8012269D01*
X7579705Y-8012269D02*
X7579705Y-8059888D01*
X7579705Y-8059888D02*
X7570182Y-8078936D01*
X7570182Y-8078936D02*
X7560658Y-8088460D01*
X7560658Y-8088460D02*
X7541610Y-8097984D01*
X7541610Y-8097984D02*
X7493991Y-8097984D01*
X7493991Y-8097984D02*
X7474943Y-8088460D01*
X7474943Y-8088460D02*
X7465420Y-8078936D01*
X7665420Y-8097984D02*
X7665420Y-7964650D01*
X7665420Y-7983698D02*
X7674943Y-7974174D01*
X7674943Y-7974174D02*
X7693991Y-7964650D01*
X7693991Y-7964650D02*
X7722563Y-7964650D01*
X7722563Y-7964650D02*
X7741610Y-7974174D01*
X7741610Y-7974174D02*
X7751134Y-7993222D01*
X7751134Y-7993222D02*
X7751134Y-8097984D01*
X7751134Y-7993222D02*
X7760658Y-7974174D01*
X7760658Y-7974174D02*
X7779705Y-7964650D01*
X7779705Y-7964650D02*
X7808277Y-7964650D01*
X7808277Y-7964650D02*
X7827324Y-7974174D01*
X7827324Y-7974174D02*
X7836848Y-7993222D01*
X7836848Y-7993222D02*
X7836848Y-8097984D01*
X7932086Y-8097984D02*
X7932086Y-7964650D01*
X7932086Y-7983698D02*
X7941610Y-7974174D01*
X7941610Y-7974174D02*
X7960658Y-7964650D01*
X7960658Y-7964650D02*
X7989229Y-7964650D01*
X7989229Y-7964650D02*
X8008277Y-7974174D01*
X8008277Y-7974174D02*
X8017801Y-7993222D01*
X8017801Y-7993222D02*
X8017801Y-8097984D01*
X8017801Y-7993222D02*
X8027324Y-7974174D01*
X8027324Y-7974174D02*
X8046372Y-7964650D01*
X8046372Y-7964650D02*
X8074943Y-7964650D01*
X8074943Y-7964650D02*
X8093991Y-7974174D01*
X8093991Y-7974174D02*
X8103515Y-7993222D01*
X8103515Y-7993222D02*
X8103515Y-8097984D01*
X8493991Y-7888460D02*
X8322563Y-8145603D01*
X8751134Y-7897984D02*
X8770182Y-7897984D01*
X8770182Y-7897984D02*
X8789229Y-7907508D01*
X8789229Y-7907508D02*
X8798753Y-7917031D01*
X8798753Y-7917031D02*
X8808277Y-7936079D01*
X8808277Y-7936079D02*
X8817801Y-7974174D01*
X8817801Y-7974174D02*
X8817801Y-8021793D01*
X8817801Y-8021793D02*
X8808277Y-8059888D01*
X8808277Y-8059888D02*
X8798753Y-8078936D01*
X8798753Y-8078936D02*
X8789229Y-8088460D01*
X8789229Y-8088460D02*
X8770182Y-8097984D01*
X8770182Y-8097984D02*
X8751134Y-8097984D01*
X8751134Y-8097984D02*
X8732087Y-8088460D01*
X8732087Y-8088460D02*
X8722563Y-8078936D01*
X8722563Y-8078936D02*
X8713039Y-8059888D01*
X8713039Y-8059888D02*
X8703515Y-8021793D01*
X8703515Y-8021793D02*
X8703515Y-7974174D01*
X8703515Y-7974174D02*
X8713039Y-7936079D01*
X8713039Y-7936079D02*
X8722563Y-7917031D01*
X8722563Y-7917031D02*
X8732087Y-7907508D01*
X8732087Y-7907508D02*
X8751134Y-7897984D01*
X8903515Y-8078936D02*
X8913039Y-8088460D01*
X8913039Y-8088460D02*
X8903515Y-8097984D01*
X8903515Y-8097984D02*
X8893991Y-8088460D01*
X8893991Y-8088460D02*
X8903515Y-8078936D01*
X8903515Y-8078936D02*
X8903515Y-8097984D01*
X9036848Y-7897984D02*
X9055896Y-7897984D01*
X9055896Y-7897984D02*
X9074944Y-7907508D01*
X9074944Y-7907508D02*
X9084468Y-7917031D01*
X9084468Y-7917031D02*
X9093991Y-7936079D01*
X9093991Y-7936079D02*
X9103515Y-7974174D01*
X9103515Y-7974174D02*
X9103515Y-8021793D01*
X9103515Y-8021793D02*
X9093991Y-8059888D01*
X9093991Y-8059888D02*
X9084468Y-8078936D01*
X9084468Y-8078936D02*
X9074944Y-8088460D01*
X9074944Y-8088460D02*
X9055896Y-8097984D01*
X9055896Y-8097984D02*
X9036848Y-8097984D01*
X9036848Y-8097984D02*
X9017801Y-8088460D01*
X9017801Y-8088460D02*
X9008277Y-8078936D01*
X9008277Y-8078936D02*
X8998753Y-8059888D01*
X8998753Y-8059888D02*
X8989229Y-8021793D01*
X8989229Y-8021793D02*
X8989229Y-7974174D01*
X8989229Y-7974174D02*
X8998753Y-7936079D01*
X8998753Y-7936079D02*
X9008277Y-7917031D01*
X9008277Y-7917031D02*
X9017801Y-7907508D01*
X9017801Y-7907508D02*
X9036848Y-7897984D01*
X9284468Y-7897984D02*
X9189229Y-7897984D01*
X9189229Y-7897984D02*
X9179706Y-7993222D01*
X9179706Y-7993222D02*
X9189229Y-7983698D01*
X9189229Y-7983698D02*
X9208277Y-7974174D01*
X9208277Y-7974174D02*
X9255896Y-7974174D01*
X9255896Y-7974174D02*
X9274944Y-7983698D01*
X9274944Y-7983698D02*
X9284468Y-7993222D01*
X9284468Y-7993222D02*
X9293991Y-8012269D01*
X9293991Y-8012269D02*
X9293991Y-8059888D01*
X9293991Y-8059888D02*
X9284468Y-8078936D01*
X9284468Y-8078936D02*
X9274944Y-8088460D01*
X9274944Y-8088460D02*
X9255896Y-8097984D01*
X9255896Y-8097984D02*
X9208277Y-8097984D01*
X9208277Y-8097984D02*
X9189229Y-8088460D01*
X9189229Y-8088460D02*
X9179706Y-8078936D01*
X9370182Y-7917031D02*
X9379706Y-7907508D01*
X9379706Y-7907508D02*
X9398753Y-7897984D01*
X9398753Y-7897984D02*
X9446372Y-7897984D01*
X9446372Y-7897984D02*
X9465420Y-7907508D01*
X9465420Y-7907508D02*
X9474944Y-7917031D01*
X9474944Y-7917031D02*
X9484468Y-7936079D01*
X9484468Y-7936079D02*
X9484468Y-7955127D01*
X9484468Y-7955127D02*
X9474944Y-7983698D01*
X9474944Y-7983698D02*
X9360658Y-8097984D01*
X9360658Y-8097984D02*
X9484468Y-8097984D01*
X9560658Y-7917031D02*
X9570182Y-7907508D01*
X9570182Y-7907508D02*
X9589229Y-7897984D01*
X9589229Y-7897984D02*
X9636849Y-7897984D01*
X9636849Y-7897984D02*
X9655896Y-7907508D01*
X9655896Y-7907508D02*
X9665420Y-7917031D01*
X9665420Y-7917031D02*
X9674944Y-7936079D01*
X9674944Y-7936079D02*
X9674944Y-7955127D01*
X9674944Y-7955127D02*
X9665420Y-7983698D01*
X9665420Y-7983698D02*
X9551134Y-8097984D01*
X9551134Y-8097984D02*
X9674944Y-8097984D01*
X9751134Y-7897984D02*
X9751134Y-7936079D01*
X9827325Y-7897984D02*
X9827325Y-7936079D01*
X10122563Y-8174174D02*
X10113039Y-8164650D01*
X10113039Y-8164650D02*
X10093991Y-8136079D01*
X10093991Y-8136079D02*
X10084468Y-8117031D01*
X10084468Y-8117031D02*
X10074944Y-8088460D01*
X10074944Y-8088460D02*
X10065420Y-8040841D01*
X10065420Y-8040841D02*
X10065420Y-8002746D01*
X10065420Y-8002746D02*
X10074944Y-7955127D01*
X10074944Y-7955127D02*
X10084468Y-7926555D01*
X10084468Y-7926555D02*
X10093991Y-7907508D01*
X10093991Y-7907508D02*
X10113039Y-7878936D01*
X10113039Y-7878936D02*
X10122563Y-7869412D01*
X10303515Y-8097984D02*
X10189230Y-8097984D01*
X10246372Y-8097984D02*
X10246372Y-7897984D01*
X10246372Y-7897984D02*
X10227325Y-7926555D01*
X10227325Y-7926555D02*
X10208277Y-7945603D01*
X10208277Y-7945603D02*
X10189230Y-7955127D01*
X10370182Y-7897984D02*
X10493991Y-7897984D01*
X10493991Y-7897984D02*
X10427325Y-7974174D01*
X10427325Y-7974174D02*
X10455896Y-7974174D01*
X10455896Y-7974174D02*
X10474944Y-7983698D01*
X10474944Y-7983698D02*
X10484468Y-7993222D01*
X10484468Y-7993222D02*
X10493991Y-8012269D01*
X10493991Y-8012269D02*
X10493991Y-8059888D01*
X10493991Y-8059888D02*
X10484468Y-8078936D01*
X10484468Y-8078936D02*
X10474944Y-8088460D01*
X10474944Y-8088460D02*
X10455896Y-8097984D01*
X10455896Y-8097984D02*
X10398753Y-8097984D01*
X10398753Y-8097984D02*
X10379706Y-8088460D01*
X10379706Y-8088460D02*
X10370182Y-8078936D01*
X10732087Y-8097984D02*
X10732087Y-7897984D01*
X10817801Y-8097984D02*
X10817801Y-7993222D01*
X10817801Y-7993222D02*
X10808277Y-7974174D01*
X10808277Y-7974174D02*
X10789230Y-7964650D01*
X10789230Y-7964650D02*
X10760658Y-7964650D01*
X10760658Y-7964650D02*
X10741611Y-7974174D01*
X10741611Y-7974174D02*
X10732087Y-7983698D01*
X10941611Y-8097984D02*
X10922563Y-8088460D01*
X10922563Y-8088460D02*
X10913039Y-8078936D01*
X10913039Y-8078936D02*
X10903515Y-8059888D01*
X10903515Y-8059888D02*
X10903515Y-8002746D01*
X10903515Y-8002746D02*
X10913039Y-7983698D01*
X10913039Y-7983698D02*
X10922563Y-7974174D01*
X10922563Y-7974174D02*
X10941611Y-7964650D01*
X10941611Y-7964650D02*
X10970182Y-7964650D01*
X10970182Y-7964650D02*
X10989230Y-7974174D01*
X10989230Y-7974174D02*
X10998753Y-7983698D01*
X10998753Y-7983698D02*
X11008277Y-8002746D01*
X11008277Y-8002746D02*
X11008277Y-8059888D01*
X11008277Y-8059888D02*
X10998753Y-8078936D01*
X10998753Y-8078936D02*
X10989230Y-8088460D01*
X10989230Y-8088460D02*
X10970182Y-8097984D01*
X10970182Y-8097984D02*
X10941611Y-8097984D01*
X11122563Y-8097984D02*
X11103515Y-8088460D01*
X11103515Y-8088460D02*
X11093992Y-8069412D01*
X11093992Y-8069412D02*
X11093992Y-7897984D01*
X11274944Y-8088460D02*
X11255896Y-8097984D01*
X11255896Y-8097984D02*
X11217801Y-8097984D01*
X11217801Y-8097984D02*
X11198753Y-8088460D01*
X11198753Y-8088460D02*
X11189230Y-8069412D01*
X11189230Y-8069412D02*
X11189230Y-7993222D01*
X11189230Y-7993222D02*
X11198753Y-7974174D01*
X11198753Y-7974174D02*
X11217801Y-7964650D01*
X11217801Y-7964650D02*
X11255896Y-7964650D01*
X11255896Y-7964650D02*
X11274944Y-7974174D01*
X11274944Y-7974174D02*
X11284468Y-7993222D01*
X11284468Y-7993222D02*
X11284468Y-8012269D01*
X11284468Y-8012269D02*
X11189230Y-8031317D01*
X11360658Y-8088460D02*
X11379706Y-8097984D01*
X11379706Y-8097984D02*
X11417801Y-8097984D01*
X11417801Y-8097984D02*
X11436849Y-8088460D01*
X11436849Y-8088460D02*
X11446372Y-8069412D01*
X11446372Y-8069412D02*
X11446372Y-8059888D01*
X11446372Y-8059888D02*
X11436849Y-8040841D01*
X11436849Y-8040841D02*
X11417801Y-8031317D01*
X11417801Y-8031317D02*
X11389230Y-8031317D01*
X11389230Y-8031317D02*
X11370182Y-8021793D01*
X11370182Y-8021793D02*
X11360658Y-8002746D01*
X11360658Y-8002746D02*
X11360658Y-7993222D01*
X11360658Y-7993222D02*
X11370182Y-7974174D01*
X11370182Y-7974174D02*
X11389230Y-7964650D01*
X11389230Y-7964650D02*
X11417801Y-7964650D01*
X11417801Y-7964650D02*
X11436849Y-7974174D01*
X11513039Y-8174174D02*
X11522563Y-8164650D01*
X11522563Y-8164650D02*
X11541611Y-8136079D01*
X11541611Y-8136079D02*
X11551134Y-8117031D01*
X11551134Y-8117031D02*
X11560658Y-8088460D01*
X11560658Y-8088460D02*
X11570182Y-8040841D01*
X11570182Y-8040841D02*
X11570182Y-8002746D01*
X11570182Y-8002746D02*
X11560658Y-7955127D01*
X11560658Y-7955127D02*
X11551134Y-7926555D01*
X11551134Y-7926555D02*
X11541611Y-7907508D01*
X11541611Y-7907508D02*
X11522563Y-7878936D01*
X11522563Y-7878936D02*
X11513039Y-7869412D01*
M02*
